<?xml version="1.0" standalone="no"?>
<!DOCTYPE svg PUBLIC "-//W3C//DTD SVG 1.1//EN" "http://www.w3.org/Graphics/SVG/1.1/DTD/svg11.dtd" >
<svg xmlns="http://www.w3.org/2000/svg">
<metadata></metadata>
<defs>
<font id="overpassbold_italic" horiz-adv-x="1120" >
<font-face units-per-em="2048" ascent="1536" descent="-512" />
<missing-glyph horiz-adv-x="452" />
<glyph unicode="&#xfb01;" horiz-adv-x="1171" d="M205 0l143 813h-135l41 234h135l29 159q14 78 46 127t74 78t88 40t89 11q53 0 109.5 -14t103.5 -41l-39 -217q-53 23 -84 29t-53 6q-68 0 -82 -72l-19 -106h203l-41 -234h-203l-143 -813h-262zM763 0l185 1047h264l-184 -1047h-265zM976 1298q0 37 14.5 70t39 56.5 t54.5 38t60 14.5q59 0 95 -37t36 -90q0 -37 -14 -70t-38.5 -56.5t-55.5 -38t-64 -14.5q-57 0 -92 37t-35 90z" />
<glyph unicode="&#xfb02;" horiz-adv-x="1185" d="M205 0l143 813h-135l41 234h135l29 159q14 78 46 127t74 78t88 40t89 11q53 0 109.5 -14t103.5 -41l-39 -217q-53 23 -84 29t-53 6q-68 0 -82 -72l-19 -106h203l-41 -234h-203l-143 -813h-262zM763 0l244 1391l281 88l-262 -1479h-263z" />
<glyph horiz-adv-x="0" />
<glyph horiz-adv-x="682" />
<glyph unicode=" "  horiz-adv-x="452" />
<glyph unicode="&#x09;" horiz-adv-x="452" />
<glyph unicode="&#xa0;" horiz-adv-x="452" />
<glyph unicode="!" horiz-adv-x="589" d="M156 117q0 86 54 141t128 55q72 0 110.5 -41t38.5 -100q0 -86 -53 -141.5t-135 -55.5q-66 0 -104.5 41t-38.5 101zM291 395l51 600l82 463h254l-82 -463l-160 -600h-145z" />
<glyph unicode="&#x22;" horiz-adv-x="880" d="M283 838l57 596h307l-151 -596h-213zM680 838l57 596h307l-151 -596h-113h-100z" />
<glyph unicode="#" horiz-adv-x="1376" d="M145 360l74 230h209l94 289h-209l70 229h213l102 326h224l-105 -326h238l106 326h223l-104 -326h209l-72 -229h-209l-94 -289h209l-74 -230h-209l-116 -360h-224l117 360h-237l-117 -360h-225l116 360h-209zM653 590h238l92 289h-238z" />
<glyph unicode="$" horiz-adv-x="1181" d="M170 367l246 88q23 -98 78 -157.5t153 -59.5q100 0 160.5 48t60.5 134q0 63 -40 105t-99 76t-130 66.5t-130 82t-99 121t-40 180.5q0 57 22.5 122.5t70.5 122t120.5 99.5t173.5 59l26 154h256l-28 -170q61 -20 104 -55t73 -77t46 -88.5t25 -87.5l-254 -83 q-18 61 -59.5 107t-129.5 46q-74 0 -118 -39t-44 -92t40 -88t99.5 -65.5t129 -64.5t129 -85t99.5 -127t40 -188q0 -84 -24.5 -160t-76 -138.5t-130 -107.5t-187.5 -63l-28 -170h-277l33 184q-72 20 -122 59t-85 88.5t-55.5 106.5t-28.5 117z" />
<glyph unicode="%" horiz-adv-x="1658" d="M221 -25l1200 1483h271l-1200 -1483h-271zM272 1024q0 74 23.5 151.5t72 140t121 102.5t168.5 40q76 0 131.5 -28.5t91 -74.5t52 -102.5t16.5 -109.5q0 -92 -28.5 -171t-78.5 -137.5t-121 -92t-157 -33.5q-76 0 -131 28.5t-90 74.5t-52.5 101.5t-17.5 110.5zM492 1040 q0 -43 19.5 -80.5t72.5 -37.5q33 0 60.5 18t46 47t28.5 66t10 73q0 53 -23.5 86t-70.5 33q-35 0 -61.5 -17.5t-45 -47t-27.5 -66.5t-9 -74zM975 291q0 74 23.5 151.5t71.5 140t121 102.5t169 40q76 0 131 -28.5t91 -75t52.5 -102.5t16.5 -109q0 -92 -29 -171t-79 -137.5 t-120.5 -92.5t-156.5 -34q-76 0 -131.5 29t-90 75t-52 101.5t-17.5 110.5zM1194 307q0 -43 19.5 -81t72.5 -38q33 0 60.5 18.5t46 47.5t29 65.5t10.5 73.5q0 53 -24 86t-71 33q-35 0 -61.5 -17.5t-45 -47t-27.5 -66.5t-9 -74z" />
<glyph unicode="&#x26;" horiz-adv-x="1413" d="M176 328q0 94 28.5 167.5t79 132t119 103.5t146.5 82q-43 68 -60.5 130.5t-17.5 133.5q0 90 34 161t88 120t122.5 74.5t140.5 25.5q156 0 240 -82t84 -215q0 -68 -22.5 -126t-62.5 -107t-92.5 -91t-109.5 -75l117 -184q10 33 21 68.5t18 70.5h251q-20 -98 -60 -197.5 t-87 -171.5l215 -348h-332l-80 135q-90 -78 -194.5 -119t-229.5 -41q-84 0 -149.5 27t-111.5 73t-70.5 110.5t-24.5 142.5zM451 381q0 -68 39.5 -109t117.5 -41q61 0 124 26t110 67l-183 303q-209 -109 -208 -246zM719 1112q0 -41 17.5 -85t47.5 -91q66 41 108 91t42 122 q0 53 -27.5 78.5t-68.5 25.5q-47 0 -83 -37.5t-36 -103.5z" />
<glyph unicode="'" horiz-adv-x="483" d="M283 838l57 596h307l-151 -596h-213z" />
<glyph unicode="(" horiz-adv-x="731" d="M211 336q0 203 40 374t102.5 311t139 249.5t150.5 187.5h268q-47 -51 -122.5 -149.5t-146.5 -239.5t-122 -323.5t-51 -403.5q0 -98 12.5 -194.5t28.5 -178.5t35.5 -143.5t36.5 -91.5h-248q-25 43 -46.5 109.5t-39 146.5t-27.5 168t-10 178z" />
<glyph unicode=")" horiz-adv-x="731" d="M29 -266q47 51 122.5 150.5t146.5 242.5t122 325.5t51 397.5q0 98 -12.5 194.5t-28.5 178.5t-36.5 143t-35.5 92h248q25 -43 46.5 -109.5t39 -146.5t27.5 -169t10 -177q0 -203 -40 -374t-102.5 -311t-139 -249.5t-150.5 -187.5h-268z" />
<glyph unicode="*" horiz-adv-x="1081" d="M274 1047l91 219l227 -82l63 -45l-20 84l47 254h242l-45 -246l-52 -92l78 55l228 70l47 -226l-240 -75l-104 -2l69 -41l127 -224l-207 -133l-116 213l-15 96l-39 -96l-174 -209l-178 154l174 194l103 46l-80 2z" />
<glyph unicode="+" horiz-adv-x="1239" d="M281 573v258h323v353h266v-353h324v-258h-324v-352h-266v352h-323z" />
<glyph unicode="," horiz-adv-x="485" d="M33 -205q14 12 36.5 35t46 48.5t45 54t34.5 53.5q-39 14 -64 48t-25 83q0 45 15.5 80.5t41 61.5t58.5 40t68 14q68 0 110.5 -41t42.5 -114q0 -66 -26.5 -130.5t-71.5 -123t-101.5 -108.5t-117.5 -85z" />
<glyph unicode="-" horiz-adv-x="811" d="M231 477l45 256h517l-45 -256h-517z" />
<glyph unicode="." horiz-adv-x="473" d="M98 117q0 86 54.5 141t128.5 55q72 0 110.5 -41t38.5 -100q0 -86 -53 -141.5t-135 -55.5q-66 0 -105 41t-39 101z" />
<glyph unicode="/" horiz-adv-x="1026" d="M-76 -266l1077 1724h271l-1079 -1724h-269z" />
<glyph unicode="0" horiz-adv-x="1308" d="M254 541q0 102 16.5 210.5t49 211t84 193.5t123 158.5t161.5 107.5t203 40q121 0 202 -53t129 -134t67.5 -180.5t19.5 -191.5q0 -94 -14.5 -199.5t-46 -208t-81 -197.5t-120 -167t-163.5 -115t-210 -43q-109 0 -187.5 45t-131 123t-77 181.5t-24.5 218.5zM520 555 q0 -61 10.5 -117.5t32 -101.5t56 -71.5t83.5 -26.5q90 0 155 69.5t106 170t60 210t19 189.5q0 61 -10 119.5t-32.5 102.5t-58.5 71.5t-87 27.5q-61 0 -109.5 -35t-85 -91t-63.5 -127t-43 -142.5t-24.5 -137t-8.5 -110.5z" />
<glyph unicode="1" horiz-adv-x="819" d="M256 1061l39 219q98 0 173 33t116 121h219l-252 -1434h-272l186 1061h-209z" />
<glyph unicode="2" horiz-adv-x="1214" d="M127 0q29 170 85 291t132 209t168 152.5t195 125.5q45 27 96 54.5t93 60.5t69.5 74t27.5 94q0 66 -39 106.5t-123 40.5q-180 0 -262 -174l-217 113q86 145 211 228t303 83q88 0 163 -29.5t128 -81t84 -120t31 -148.5q0 -104 -32 -177t-91 -131t-142 -108.5t-186 -107.5 q-51 -29 -101 -62.5t-91 -70.5t-73 -76t-46 -80h618l-47 -266h-954z" />
<glyph unicode="3" horiz-adv-x="1191" d="M152 311l256 101q29 -98 93 -139.5t144 -41.5q43 0 85 15.5t74 45.5t52.5 70.5t20.5 94.5q0 66 -44.5 112.5t-142.5 46.5h-129l45 256h129q41 0 78 15.5t64.5 42t44 61.5t16.5 74q0 55 -40 97t-112 42q-70 0 -124 -37t-93 -102l-223 96q74 135 198 216t277 81 q84 0 156 -23.5t125 -68.5t84 -107.5t31 -140.5q0 -131 -71 -225t-183 -143q55 -23 92 -59t59.5 -79t31.5 -88t9 -88q0 -100 -39 -184t-108.5 -145.5t-163 -96.5t-199.5 -35q-201 0 -325.5 91.5t-167.5 244.5z" />
<glyph unicode="4" horiz-adv-x="1294" d="M100 287l37 211l842 936h307l-156 -891h168l-45 -256h-168l-51 -287h-272l51 287h-713zM492 543h366l90 516z" />
<glyph unicode="5" horiz-adv-x="1200" d="M156 301l247 102q12 -27 30 -56.5t47.5 -54t71.5 -39.5t101 -15q47 0 94.5 16t85 49t61.5 81t24 114q0 94 -53.5 146t-139.5 52q-70 0 -120 -28.5t-97 -75.5l-225 121l161 721h795l-45 -267h-549l-65 -266q39 23 93 37t128 14q92 0 165.5 -30.5t124 -87t78 -136.5 t27.5 -176q0 -131 -44 -233.5t-121 -172t-181.5 -105.5t-224.5 -36q-86 0 -163 25t-138.5 68t-104.5 102t-63 131z" />
<glyph unicode="6" horiz-adv-x="1218" d="M197 457q0 100 25.5 210.5t78.5 217t134 205t191.5 176t252 129t313.5 63.5l-47 -262q-78 -12 -158 -37.5t-152.5 -70t-135 -106.5t-107.5 -144q41 29 102.5 50t134.5 21q86 0 156 -28.5t119 -79.5t75.5 -122t26.5 -155q0 -131 -45 -233.5t-119.5 -172t-174 -106.5 t-208.5 -37q-115 0 -200.5 36t-144 100.5t-88 152.5t-29.5 193zM485 416q0 -82 50.5 -133.5t138.5 -51.5q51 0 98 15.5t84 46.5t58.5 74t21.5 98q0 76 -48 130t-140 54q-53 0 -100.5 -16.5t-83.5 -46t-57.5 -72.5t-21.5 -98z" />
<glyph unicode="7" horiz-adv-x="1075" d="M256 1167l45 267h948l-43 -244q-129 -129 -230.5 -284.5t-174 -316.5t-118.5 -313.5t-67 -275.5h-290q66 352 204 639t344 528h-618z" />
<glyph unicode="8" horiz-adv-x="1249" d="M195 391q0 90 28.5 160t76.5 120t112.5 81.5t138.5 46.5q-74 29 -129 94t-55 174q0 82 35.5 153.5t101 125t155 83t197.5 29.5q106 0 186 -27.5t134.5 -75.5t81 -111.5t26.5 -135.5q0 -70 -24.5 -126t-63.5 -97t-89 -69t-101 -40q39 -12 78.5 -39.5t70.5 -68.5 t50.5 -94.5t19.5 -118.5q0 -90 -36 -176t-106.5 -154t-176.5 -109t-247 -41q-102 0 -187 33t-146.5 90.5t-96 133t-34.5 159.5zM479 420q0 -84 54.5 -139.5t150.5 -55.5q119 0 187.5 61.5t68.5 166.5q0 35 -13.5 69.5t-40 62t-66.5 45t-93 17.5q-59 0 -105.5 -18.5t-78 -50 t-48 -72.5t-16.5 -86zM645 1044q0 -53 41 -100t125 -47q80 0 137.5 46t57.5 126q0 25 -10.5 51.5t-31 47t-52 33.5t-74.5 13q-37 0 -71 -11t-61.5 -33.5t-44 -54.5t-16.5 -71z" />
<glyph unicode="9" horiz-adv-x="1218" d="M256 946q0 121 45 216t122 161t177 100.5t209 34.5q223 0 346 -129t123 -360q0 -98 -20.5 -210t-66.5 -220.5t-120 -209t-180.5 -178t-248.5 -124.5t-325 -52l48 269q74 2 151.5 20.5t149 61.5t136 114.5t113.5 182.5q-43 -35 -106.5 -58.5t-146.5 -23.5q-90 0 -165 28.5 t-128.5 80.5t-83 128t-29.5 168zM537 969q0 -88 55 -131t129 -43q66 0 116 19.5t83.5 52t51 74.5t17.5 85q0 72 -46 123t-148 51q-53 0 -100.5 -18.5t-82 -49t-55 -72.5t-20.5 -91z" />
<glyph unicode=":" horiz-adv-x="473" d="M98 117q0 86 54.5 141t128.5 55q72 0 110.5 -41t38.5 -100q0 -86 -53 -141.5t-135 -55.5q-66 0 -105 41t-39 101zM217 799q0 86 54.5 141t127.5 55q72 0 111 -41t39 -100q0 -86 -53.5 -141.5t-135.5 -55.5q-66 0 -104.5 41t-38.5 101z" />
<glyph unicode=";" horiz-adv-x="473" d="M25 -205q14 12 36.5 35t46 48.5t45 54t33.5 53.5q-39 14 -63.5 48t-24.5 83q0 45 15.5 80.5t41 61.5t58.5 40t68 14q68 0 110.5 -41t42.5 -114q0 -66 -26.5 -130.5t-71.5 -123t-101.5 -108.5t-117.5 -85zM217 799q0 86 54.5 141t127.5 55q72 0 111 -41t39 -100 q0 -86 -53.5 -141.5t-135.5 -55.5q-66 0 -104.5 41t-38.5 101z" />
<glyph unicode="&#x3c;" horiz-adv-x="1239" d="M297 594v217l913 393v-278l-536 -224l536 -225v-276z" />
<glyph unicode="=" horiz-adv-x="1239" d="M281 346v258h913v-123v-135h-913zM281 801v258h913v-258h-913z" />
<glyph unicode="&#x3e;" horiz-adv-x="1239" d="M281 201v278l536 223l-536 226v276l913 -393v-217z" />
<glyph unicode="?" horiz-adv-x="993" d="M209 961q20 119 70.5 212t122 156.5t161.5 96t193 32.5q86 0 152.5 -27.5t112.5 -76.5t70.5 -114.5t24.5 -141.5q0 -88 -27.5 -149.5t-71.5 -108.5t-95.5 -85t-99.5 -80t-85 -93.5t-49 -122.5l-12 -72h-256l14 74q18 100 57 169.5t86.5 120t96.5 86t89 69.5t65.5 71 t25.5 88q0 53 -34 95t-109 42q-94 0 -160 -62.5t-86 -178.5h-256zM344 117q0 86 54.5 141t127.5 55q72 0 111 -41t39 -100q0 -86 -53.5 -141.5t-135.5 -55.5q-66 0 -104.5 41t-38.5 101z" />
<glyph unicode="@" horiz-adv-x="1646" d="M219 588q0 166 60.5 323.5t174 280.5t276.5 196.5t368 73.5q141 0 250.5 -42t184.5 -113.5t114 -167t39 -201.5q0 -133 -40 -245.5t-110 -194.5t-161 -128t-195 -46q-53 0 -100.5 24.5t-53.5 81.5q-43 -59 -102.5 -82.5t-110.5 -23.5q-106 0 -168.5 73.5t-62.5 210.5 q0 98 34.5 186.5t95 156t139.5 107.5t169 40q59 0 99 -24.5t57 -65.5l20 63h201l-129 -364q-25 -68 -41.5 -112t-16.5 -60q0 -27 27 -27q43 0 88 28.5t82 82t60.5 127t23.5 165.5q0 70 -23.5 133.5t-74 110.5t-127 74.5t-181.5 27.5q-143 0 -263 -51t-207 -140t-135 -210 t-48 -260q0 -92 27.5 -169t83 -133t139.5 -87t195 -31q131 0 274 33l-94 -213q-37 -8 -84.5 -14.5t-108.5 -6.5q-156 0 -276.5 43t-202.5 123t-124 194t-42 253zM786 635q0 -47 21.5 -79t62.5 -32q45 0 84 24.5t69 63.5t46 86t16 93q0 47 -22.5 76.5t-63.5 29.5 q-43 0 -80.5 -21.5t-67.5 -58.5t-47.5 -84t-17.5 -98z" />
<glyph unicode="A" horiz-adv-x="1458" d="M72 0l778 1434h272l275 -1434h-285l-53 297h-531l-159 -297h-297zM657 549h359l-72 399q-2 10 -4 25.5t-5 33t-6 33t-3 23.5q-8 -18 -25.5 -54t-28.5 -57z" />
<glyph unicode="B" horiz-adv-x="1398" d="M164 0l252 1434h606q109 0 183.5 -29t121.5 -75t68.5 -104.5t21.5 -117.5q0 -111 -51 -211t-168 -156q90 -39 135 -116.5t45 -175.5q0 -90 -31.5 -171t-99 -142.5t-172 -98.5t-248.5 -37h-663zM485 258h340q121 0 189.5 48t68.5 140q0 72 -39.5 119t-140.5 47h-354z M594 870h303q129 0 186.5 52.5t57.5 117.5q0 20 -7.5 45t-23.5 44.5t-46 33t-75 13.5h-342z" />
<glyph unicode="C" horiz-adv-x="1304" d="M240 580q0 170 48 328.5t139 280.5t222 194.5t295 72.5q100 0 178 -27.5t134.5 -73.5t93 -104.5t55.5 -117.5l-248 -107q-35 82 -97.5 123t-127.5 41q-100 0 -176 -56.5t-127 -143.5t-77 -191.5t-26 -202.5q0 -63 13.5 -124.5t41 -111t71.5 -80t108 -30.5q51 0 95 15.5 t80 41t62.5 57t44.5 64.5l244 -104q-207 -347 -549 -347q-127 0 -221 48.5t-155.5 130.5t-91 191.5t-29.5 232.5z" />
<glyph unicode="D" horiz-adv-x="1433" d="M164 0l252 1434h444q150 0 259.5 -52.5t181 -141.5t106.5 -208t35 -252q0 -135 -42 -274t-134 -252t-236.5 -183.5t-347.5 -70.5h-518zM481 262h199q119 0 206 45t144 117t85 163t28 181q0 88 -19.5 162t-58.5 128t-99.5 83.5t-142.5 29.5h-182z" />
<glyph unicode="E" horiz-adv-x="1243" d="M164 0l252 1434h940l-45 -263h-660l-53 -301h383l-47 -262h-383l-59 -346h700l-47 -262h-981z" />
<glyph unicode="F" horiz-adv-x="1155" d="M164 0l252 1434h923l-45 -263h-643l-53 -294h406l-50 -275h-403l-107 -602h-280z" />
<glyph unicode="G" horiz-adv-x="1382" d="M240 612q0 164 46 316.5t136 270.5t221 188.5t303 70.5q104 0 182 -28.5t135.5 -73.5t96.5 -100.5t63 -108.5l-245 -133q-35 72 -95.5 125t-158.5 53t-175 -49t-129.5 -131t-79 -185.5t-26.5 -212.5q0 -78 14.5 -146.5t46 -118.5t83 -78.5t122.5 -28.5q113 0 188.5 62.5 t102.5 164.5l6 25h-252l47 247h545l-6 -41q-31 -209 -94.5 -348t-149.5 -223t-188 -119t-213 -35q-143 0 -243.5 52.5t-163 139.5t-91 202.5t-28.5 242.5z" />
<glyph unicode="H" horiz-adv-x="1454" d="M164 0l252 1434h280l-100 -566h567l101 566h280l-252 -1434h-280l106 606h-567l-107 -606h-280z" />
<glyph unicode="I" horiz-adv-x="606" d="M164 0l252 1434h280l-252 -1434h-280z" />
<glyph unicode="J" horiz-adv-x="1142" d="M100 291l246 110q31 -78 80 -117.5t133 -39.5q92 0 148.5 60.5t76.5 176.5l168 953h281l-178 -1014q-25 -141 -81 -228.5t-126 -135.5t-145 -64.5t-134 -16.5q-188 0 -308 85t-161 231z" />
<glyph unicode="K" horiz-adv-x="1439" d="M164 0l252 1434h280l-114 -654l624 654h336l-512 -537l322 -897h-297l-234 680l-315 -330l-62 -350h-280z" />
<glyph unicode="L" horiz-adv-x="1130" d="M164 0l252 1434h280l-207 -1172h658l-47 -262h-936z" />
<glyph unicode="M" horiz-adv-x="1626" d="M164 0l252 1434h282l181 -738q12 -51 16 -80.5t8 -50.5q10 27 21.5 46.5t33.5 58.5l480 764h278l-252 -1434h-278l129 737q2 12 5 27.5t7 32t7 31t5 22.5q-16 -35 -30.5 -61.5t-30.5 -51.5l-469 -762l-203 762q-4 25 -10 51.5t-10 61.5q0 -8 -2 -22.5t-4 -31t-5.5 -31.5 t-5.5 -28l-129 -737h-276z" />
<glyph unicode="N" horiz-adv-x="1443" d="M164 0l252 1434h260l387 -826q10 -20 21.5 -50t17.5 -58q2 29 5 58.5t7 49.5l146 826h274l-252 -1434h-246l-399 836q-10 23 -20.5 52.5t-18.5 55.5q0 -23 -4 -54.5t-8 -53.5l-148 -836h-274z" />
<glyph unicode="O" horiz-adv-x="1468" d="M240 610q0 168 47 321.5t136 270.5t220 186.5t299 69.5q137 0 238.5 -52t167 -140t97.5 -201t32 -231q0 -176 -48.5 -332t-137.5 -272.5t-215.5 -185.5t-284.5 -69q-152 0 -256.5 53.5t-170 142.5t-95 203.5t-29.5 235.5zM514 610q0 -68 14.5 -134t47 -118.5t84.5 -84 t128 -31.5q94 0 171 47t130.5 127t83 187.5t29.5 230.5q0 63 -15.5 127.5t-48 115.5t-86 83t-128.5 32q-96 0 -173 -50t-129.5 -133t-80 -187.5t-27.5 -211.5z" />
<glyph unicode="P" horiz-adv-x="1312" d="M164 0l252 1434h600q111 0 188.5 -37t124.5 -95.5t68.5 -132t21.5 -145.5q0 -98 -34.5 -188.5t-102.5 -158t-167 -108.5t-228 -41h-350l-93 -528h-280zM584 791h331q59 0 101.5 19t68 50t38 68t12.5 69q0 33 -7.5 65t-25 56.5t-46 38.5t-73.5 14h-332z" />
<glyph unicode="Q" horiz-adv-x="1468" d="M240 610q0 168 47 321.5t136 270.5t220 186.5t299 69.5q137 0 238.5 -52t167 -140t97.5 -201t32 -231q0 -227 -79 -417t-222 -306l77 -164l-231 -119l-78 166q-73 -19 -153 -19q-152 0 -256.5 53.5t-170 142.5t-95 203.5t-29.5 235.5zM514 610q0 -68 14.5 -134t47 -118.5 t84.5 -84t128 -31.5h18.5t18.5 2l-80 170l236 116l74 -161q72 82 109.5 202.5t37.5 262.5q0 63 -15.5 127.5t-48 115.5t-86 83t-128.5 32q-96 0 -173 -50t-129.5 -133t-80 -187.5t-27.5 -211.5z" />
<glyph unicode="R" horiz-adv-x="1384" d="M164 0l252 1434h631q117 0 195.5 -37t126.5 -97.5t69.5 -137t21.5 -154.5q0 -59 -15 -129t-55 -133.5t-108 -115.5t-170 -77l143 -553h-301l-135 535h-280l-95 -535h-280zM584 797h368q70 0 114 19.5t68.5 50t33 65.5t8.5 65q0 72 -38 123t-126 51h-363z" />
<glyph unicode="S" horiz-adv-x="1249" d="M174 369l256 94q33 -100 92.5 -160.5t173.5 -60.5q96 0 159 43t63 121q0 63 -44.5 104t-111 73.5t-143 65.5t-143 82t-110.5 124t-44 189q0 88 33.5 164t98 131.5t158 87t209.5 31.5q109 0 187.5 -29.5t132 -76.5t83 -106.5t40.5 -119.5l-252 -82q-14 66 -65.5 112 t-143.5 46q-98 0 -149.5 -42t-51.5 -101q0 -51 45 -85t112.5 -64.5t146.5 -64.5t146.5 -86t112.5 -131t45 -196q0 -102 -40 -187t-112.5 -144.5t-174 -92.5t-226.5 -33q-100 0 -180 30t-139 83t-100 125t-64 156z" />
<glyph unicode="T" horiz-adv-x="1228" d="M295 1167l45 267h1053l-45 -267h-387l-207 -1167h-279l207 1167h-387z" />
<glyph unicode="U" horiz-adv-x="1443" d="M254 434q0 35 3 79t19 134l142 787h276l-145 -838q-10 -53 -13.5 -80t-3.5 -55q0 -61 19.5 -102.5t52.5 -67t76 -35.5t90 -10q61 0 116.5 14t100.5 48t76 92.5t47 148.5l156 885h276l-160 -910q-29 -166 -88 -272.5t-142 -167.5t-185 -85t-217 -24q-102 0 -192.5 27 t-158 83t-106.5 143t-39 206z" />
<glyph unicode="V" horiz-adv-x="1386" d="M330 1434h288l127 -859q2 -23 5.5 -51t6.5 -57t4 -53.5t1 -38.5q10 29 29.5 82t48.5 108l432 869h299l-719 -1434h-287z" />
<glyph unicode="W" horiz-adv-x="1714" d="M334 1434h280l2 -807q0 -37 -1 -60.5t-1 -46.5q6 23 14.5 46.5t24.5 62.5l330 805h238l51 -805q2 -29 2 -57.5v-51.5q6 23 14 46.5t23 60.5l288 807h289l-547 -1434h-254l-61 791q-4 49 -4 91v70q-6 -23 -19.5 -58.5t-37.5 -92.5l-334 -801h-254z" />
<glyph unicode="X" horiz-adv-x="1400" d="M84 0l584 752l-291 682h311l180 -424l332 424h340l-551 -707l314 -727h-312l-203 469l-364 -469h-340z" />
<glyph unicode="Y" horiz-adv-x="1400" d="M307 1434h291l238 -586l442 586h315l-653 -863l-100 -571h-281l103 578z" />
<glyph unicode="Z" horiz-adv-x="1306" d="M109 0l36 211l867 960h-654l45 263h1029l-37 -211l-873 -961h705l-47 -262h-1071z" />
<glyph unicode="[" horiz-adv-x="765" d="M145 -266l306 1724h495l-45 -256h-233l-215 -1212h233l-45 -256h-496z" />
<glyph unicode="\" horiz-adv-x="1026" d="M229 1458h258l469 -1724h-260z" />
<glyph unicode="]" horiz-adv-x="765" d="M33 -266l45 256h233l215 1212h-233l45 256h496l-306 -1724h-495z" />
<glyph unicode="^" horiz-adv-x="1239" d="M244 696l403 762h193l403 -762h-262l-238 416l-237 -416h-262z" />
<glyph unicode="_" horiz-adv-x="983" d="M-74 -362l35 204h1004l-35 -204h-1004z" />
<glyph unicode="`" horiz-adv-x="933" d="M440 1499h330l223 -319h-250z" />
<glyph unicode="a" horiz-adv-x="1097" d="M131 281q0 90 34 161.5t95.5 121.5t147.5 77t190 27q63 0 122.5 -17.5t102.5 -44.5l8 41q8 39 9 66q0 66 -43 95.5t-113 29.5q-86 0 -171 -29t-159 -76l-39 215q80 51 181.5 87t230.5 36q51 0 115.5 -13.5t122 -50t96.5 -100t39 -162.5q0 -23 -4 -54.5t-11 -67.5 l-108 -623h-260l16 82q-41 -43 -115.5 -75t-162.5 -32q-68 0 -126.5 20.5t-102.5 60.5t-69.5 96.5t-25.5 128.5zM393 305q0 -43 36 -69.5t99 -26.5q82 0 139.5 25.5t100.5 60.5l20 111q-35 16 -84 26t-110 10q-37 0 -74 -7t-64.5 -24.5t-45 -43t-17.5 -62.5z" />
<glyph unicode="b" horiz-adv-x="1132" d="M147 0l244 1391l281 88l-90 -508q41 45 100 72.5t131 27.5q70 0 132.5 -30.5t108.5 -89t72.5 -143.5t26.5 -192q0 -162 -43 -281.5t-114.5 -199.5t-164 -120t-188.5 -40q-78 0 -139.5 34t-83.5 81l-17 -90h-256zM465 313q45 -82 156 -82q61 0 110 29t84 78t53.5 114.5 t18.5 141.5q0 106 -47 163.5t-127 57.5q-53 0 -102.5 -27.5t-71.5 -58.5z" />
<glyph unicode="c" horiz-adv-x="1075" d="M174 440q0 129 39 244t110.5 201t173 136t228.5 50q152 0 254 -86t131 -221l-258 -84q-12 59 -50 97t-110 38q-53 0 -98 -27.5t-79 -74.5t-53.5 -111.5t-19.5 -140.5q0 -94 40 -162t120 -68q53 0 108.5 33t90.5 119l237 -78q-55 -156 -176.5 -243t-275.5 -87 q-98 0 -175 35t-129.5 97.5t-80 147.5t-27.5 185z" />
<glyph unicode="d" horiz-adv-x="1132" d="M176 406q0 160 43 283.5t116 208.5t166 129t193 44q88 0 136.5 -31.5t70.5 -68.5l74 420l280 88l-260 -1479h-258l17 94q-41 -57 -104.5 -88t-139.5 -31q-78 0 -140.5 31t-105.5 88.5t-65.5 136t-22.5 175.5zM438 442q0 -94 39 -152.5t125 -58.5q53 0 104.5 24t81.5 62 l72 410q-16 35 -53 61.5t-98 26.5q-66 0 -116 -29.5t-85 -81t-52.5 -119t-17.5 -143.5z" />
<glyph unicode="e" horiz-adv-x="1101" d="M156 422q0 121 38.5 237.5t112.5 207.5t182.5 147.5t249.5 56.5q195 0 293 -110.5t98 -309.5q0 -121 -38 -231h-668v-21q0 -47 16.5 -81.5t44 -59.5t64.5 -37t76 -12q63 0 126.5 30.5t108.5 77.5l135 -172q-78 -80 -173 -125t-230 -45q-98 0 -178 29t-137.5 85t-89 139 t-31.5 194zM463 645h414q0 14 -1.5 26.5t-3.5 22.5q-14 76 -60 110t-112 34q-90 0 -151.5 -47.5t-85.5 -145.5z" />
<glyph unicode="f" horiz-adv-x="710" d="M205 0l143 813h-135l41 234h135l29 159q14 78 46 127t74 78t88 40t89 11q53 0 109.5 -14t103.5 -41l-39 -217q-53 23 -84 29t-53 6q-68 0 -82 -72l-19 -106h203l-41 -234h-203l-143 -813h-262z" />
<glyph unicode="g" horiz-adv-x="1132" d="M176 406q0 150 41 272.5t111.5 209.5t165 135t200.5 48q66 0 121 -27.5t86 -74.5l12 78h271l-178 -990q-23 -125 -70 -210t-119 -139t-169 -80.5t-220 -37.5l-92 222q188 12 281.5 63t115.5 152l10 49q-39 -47 -97 -74t-136 -27t-139.5 31t-104.5 87.5t-66.5 135 t-23.5 177.5zM438 442q0 -41 9.5 -79.5t29 -67.5t49 -46.5t70.5 -17.5q61 0 107.5 21.5t80.5 62.5l74 414q-16 27 -54 56.5t-106 29.5q-61 0 -109 -28.5t-82 -78t-51.5 -118t-17.5 -148.5z" />
<glyph unicode="h" horiz-adv-x="1161" d="M147 0l244 1391l281 88l-97 -539q43 55 111 93t150 38q78 0 135 -25.5t96 -70.5t57.5 -105.5t18.5 -128.5q0 -31 -5 -69.5t-12 -73.5l-106 -598h-262l102 578q4 20 7 47.5t3 52.5q0 143 -133 143q-33 0 -67.5 -12t-65.5 -39t-54.5 -69t-33.5 -99l-106 -602h-263z" />
<glyph unicode="i" horiz-adv-x="555" d="M147 0l185 1047h264l-184 -1047h-265zM360 1298q0 37 14.5 70t39 56.5t54.5 38t60 14.5q59 0 95 -37t36 -90q0 -37 -14 -70t-38.5 -56.5t-55.5 -38t-64 -14.5q-57 0 -92 37t-35 90z" />
<glyph unicode="j" horiz-adv-x="555" d="M-162 -231q76 12 130.5 30.5t92 48t59 71.5t32.5 101l180 1027h264l-178 -1000q-18 -100 -46 -180t-81 -142.5t-139 -106.5t-222 -71zM356 1298q0 37 14.5 70t39 56.5t54.5 38t60 14.5q59 0 95 -37t36 -90q0 -37 -14 -70t-38.5 -56.5t-55.5 -38t-64 -14.5q-57 0 -92 37 t-35 90z" />
<glyph unicode="k" horiz-adv-x="1112" d="M147 0l244 1391l281 88l-123 -699l299 267h342l-373 -322l234 -725h-277l-170 541l-117 -103l-77 -438h-263z" />
<glyph unicode="l" horiz-adv-x="569" d="M147 0l244 1391l281 88l-262 -1479h-263z" />
<glyph unicode="m" horiz-adv-x="1736" d="M147 0l185 1047h258l-17 -97q49 55 119 88t154 33q76 0 137 -42t90 -111q128 153 329 153h3q47 0 102.5 -16.5t102.5 -53t77.5 -97t30.5 -150.5q0 -23 -2 -46.5t-6 -50.5l-117 -657h-270l109 616q6 33 6 60q0 45 -14.5 73.5t-34 44t-41 20.5t-35.5 5q-18 0 -48 -7 t-59.5 -28.5t-55.5 -61.5t-38 -104l-108 -618h-271l109 616q6 33 6 60q0 45 -14.5 73.5t-34 44t-41 20.5t-35.5 5q-18 0 -48 -7t-60.5 -28.5t-57.5 -61.5t-39 -104l-108 -618h-263z" />
<glyph unicode="n" horiz-adv-x="1161" d="M147 0l185 1047h264l-18 -105q43 55 109.5 92t148.5 37q78 0 135 -25.5t96 -70.5t57.5 -105.5t18.5 -128.5q0 -31 -5 -69.5t-12 -73.5l-106 -598h-262l102 578q4 20 7 47.5t3 52.5q0 143 -133 143q-33 0 -67.5 -12t-65.5 -39t-54.5 -69t-33.5 -99l-106 -602h-263z" />
<glyph unicode="o" d="M176 434q0 139 40 256t112.5 202t175 132t225.5 47q92 0 167 -32.5t126 -91t78.5 -140.5t27.5 -182q0 -145 -39.5 -265t-111.5 -205t-170 -132.5t-217 -47.5q-207 0 -310.5 118t-103.5 341zM438 473q0 -240 174 -240q55 0 101.5 26t80 72t53 109.5t19.5 139.5 q0 113 -43 174t-133 61q-53 0 -99 -26.5t-80 -72.5t-53.5 -108.5t-19.5 -134.5z" />
<glyph unicode="p" horiz-adv-x="1132" d="M74 -410l256 1457h264l-16 -84q43 49 102 78.5t137 29.5q68 0 128.5 -29.5t105.5 -86t71.5 -138.5t26.5 -184q0 -162 -44 -285t-115.5 -206t-164 -125t-188.5 -42q-147 0 -213 101l-70 -398zM465 317q14 -31 51 -58.5t109 -27.5q121 0 191.5 102.5t70.5 270.5 q0 94 -41 152.5t-127 58.5q-51 0 -104.5 -27.5t-79.5 -68.5z" />
<glyph unicode="q" horiz-adv-x="1132" d="M172 430q0 154 44 273.5t115.5 201.5t165 124t189.5 42q92 0 142.5 -36t72.5 -77l14 89h263l-240 -1369l-281 -88l86 486q-41 -45 -100 -73t-143 -28q-72 0 -132.5 32t-103.5 91.5t-67.5 143.5t-24.5 188zM438 453q0 -104 42 -163t124 -59q61 0 110.5 28t71.5 58l72 410 q-10 35 -49 61.5t-92 26.5q-61 0 -112.5 -27.5t-88.5 -76.5t-57.5 -116t-20.5 -142z" />
<glyph unicode="r" horiz-adv-x="843" d="M141 0l185 1047h262l-19 -99q29 49 86.5 87t130.5 38q53 0 101.5 -23.5t81.5 -58.5l-78 -243q-31 29 -74 47t-90 18q-31 0 -64.5 -10t-64.5 -37t-55.5 -71t-36.5 -111l-103 -584h-262z" />
<glyph unicode="s" horiz-adv-x="970" d="M113 168l190 145q12 -16 32.5 -35.5t48.5 -37t64.5 -28.5t81.5 -11q57 0 103.5 22.5t46.5 71.5q0 33 -33 57.5t-83 50t-107.5 53t-107.5 65.5t-83 91.5t-33 126.5q0 78 32 139.5t87.5 104.5t132 65.5t166.5 22.5q63 0 118.5 -15.5t100.5 -40t79 -54t52 -58.5l-198 -145 q-23 31 -66 61.5t-114 30.5q-59 0 -96.5 -24.5t-37.5 -65.5q0 -29 34 -51.5t84 -47t108.5 -53t108.5 -67.5t84 -92.5t34 -126.5q0 -162 -116.5 -254.5t-321.5 -92.5q-63 0 -124 14.5t-113 39t-92 60.5t-62 79z" />
<glyph unicode="t" horiz-adv-x="772" d="M180 813l41 234h162l59 344l279 88l-76 -432h221l-41 -234h-221l-82 -465q-6 -35 -9 -53.5t-3 -30.5q0 -59 72 -59q41 0 74.5 10t80.5 31l-49 -226q-47 -23 -107.5 -34t-119.5 -11q-98 0 -158.5 54.5t-60.5 146.5q0 27 4 71t12 85l84 481h-162z" />
<glyph unicode="u" horiz-adv-x="1161" d="M190 301q0 25 3.5 51.5t7.5 55.5l112 639h265l-103 -578q-8 -41 -10 -62.5t-2 -35.5q0 -68 34.5 -104t100.5 -36q39 0 78 10.5t71.5 34t55 61.5t33.5 91l108 619h262l-184 -1047h-262l16 98q-55 -59 -130 -91t-171 -32q-51 0 -101 19.5t-91 59.5t-67 101.5t-26 145.5z " />
<glyph unicode="v" horiz-adv-x="1099" d="M233 1047h265l100 -621q4 -23 6 -47.5t4 -48.5q10 25 21.5 49t23.5 47l318 621h274l-543 -1047h-280z" />
<glyph unicode="w" horiz-adv-x="1476" d="M244 1047h252l28 -510q2 -31 2 -68v-70q10 33 25.5 70t28.5 68l215 510h247l41 -510q4 -31 4 -74v-64q12 33 25.5 70t26.5 68l204 510h259l-447 -1047h-235l-52 522q-4 29 -5 75t-1 81q-12 -35 -29.5 -81t-29.5 -75l-221 -522h-234z" />
<glyph unicode="x" horiz-adv-x="1161" d="M68 0l456 549l-252 498h285l143 -287l240 287h313l-434 -521l268 -526h-284l-160 315l-262 -315h-313z" />
<glyph unicode="y" d="M203 -397l227 417l-197 1027h263l112 -605q4 -23 8.5 -49t6.5 -47q10 27 21 50.5t24 45.5l327 605h285l-788 -1444h-289z" />
<glyph unicode="z" horiz-adv-x="1054" d="M102 0l37 209l604 600h-460l41 238h806l-34 -203l-607 -606h496l-41 -238h-842z" />
<glyph unicode="{" horiz-adv-x="747" d="M162 475l43 242h59q39 0 64.5 34.5t36.5 92.5l30 180q35 201 170 317.5t361 116.5l-43 -246q-199 -10 -234 -200l-26 -148q-16 -92 -43 -145t-60 -79t-71.5 -34t-81.5 -10l-2 -6q82 -10 127 -57.5t45 -133.5q0 -16 -2.5 -33.5t-6.5 -39.5l-28 -162q-2 -10 -3 -21.5 t-1 -21.5q0 -66 41 -105t127 -43l-43 -239q-82 6 -151 31.5t-118 72.5t-76.5 116t-27.5 161q0 59 12 131l19 102q2 10 3 21.5t1 21.5q0 39 -15.5 61.5t-46.5 22.5h-59z" />
<glyph unicode="|" horiz-adv-x="589" d="M94 -420l365 2069h262l-365 -2069h-262z" />
<glyph unicode="}" horiz-adv-x="747" d="M31 -266l45 246q201 10 231 202l25 144q25 139 85 207.5t183 68.5l2 6q-84 16 -129 71.5t-45 141.5q0 12 1 24.5t3 24.5l25 142q2 12 4 25.5t2 23.5q0 147 -170 158l43 239q178 -4 278.5 -94t100.5 -266q0 -57 -13 -121l-22 -133q-2 -12 -3 -25.5t-1 -34.5 q0 -29 15.5 -48t45.5 -19h58l-43 -242h-52q-47 0 -71.5 -34.5t-34.5 -92.5l-39 -213q-35 -188 -165 -294.5t-359 -106.5z" />
<glyph unicode="~" horiz-adv-x="1239" d="M285 518q0 74 15 140.5t49 117.5t86 82t126 31q61 0 109.5 -17.5t89.5 -38t77.5 -38t77.5 -17.5q45 0 64.5 31t24.5 80h200q0 -74 -14 -140.5t-47 -117.5t-86 -82t-129 -31q-61 0 -110.5 17.5t-91.5 38t-79 38t-74 17.5q-45 0 -64.5 -32t-23.5 -79h-200z" />
<glyph unicode="&#xa1;" horiz-adv-x="589" d="M98 -410l82 463l160 600h145l-51 -600l-82 -463h-254zM289 877q0 86 53 141t135 55q66 0 105 -41t39 -100q0 -86 -54.5 -141.5t-128.5 -55.5q-72 0 -110.5 41t-38.5 101z" />
<glyph unicode="&#xa2;" horiz-adv-x="1075" d="M209 633q0 111 29.5 212t84 182t132 138.5t176.5 81.5l39 211h245l-38 -211q104 -29 174.5 -105.5t93.5 -185.5l-258 -84q-12 59 -50 97.5t-110 38.5q-53 0 -98 -28t-79 -75t-53.5 -111.5t-19.5 -140.5q0 -94 40 -161.5t120 -67.5q53 0 108.5 32.5t90.5 118.5l233 -75 q-47 -137 -148.5 -221t-232.5 -105l-35 -199h-245l38 224q-117 49 -177 164.5t-60 269.5z" />
<glyph unicode="&#xa3;" horiz-adv-x="1179" d="M156 0l45 254q45 20 80.5 54t61.5 76t43 85t26 82h-168l45 246h114q-2 25 -13 76t-11 110q0 90 30.5 175t97 151.5t171 107.5t250.5 41q129 0 235.5 -45t177.5 -106l-139 -246q-18 18 -48 42.5t-71 46t-90 37t-104 15.5q-68 0 -114 -17.5t-75.5 -46t-42 -65.5t-12.5 -76 q0 -33 14.5 -91t20.5 -109h334l-45 -246h-289q-16 -78 -56 -151.5t-100 -139.5h641l-45 -260h-964z" />
<glyph unicode="&#xa4;" horiz-adv-x="1277" d="M123 289l170 149q-8 29 -12.5 70t-4.5 70q0 106 29 188t78 160l-121 153l217 193l113 -144q59 29 121.5 45.5t134.5 16.5q66 0 125 -15.5t104 -46.5l160 144l158 -199l-170 -149q6 -29 10 -73t4 -79q0 -86 -24.5 -171t-79.5 -169l120 -149l-219 -193l-114 146 q-57 -29 -121.5 -45.5t-130.5 -16.5q-135 0 -232 59l-159 -143zM543 633q0 -86 46 -142.5t126 -56.5q55 0 102 22.5t82 62.5t55.5 94.5t20.5 117.5q0 86 -45 142.5t-127 56.5q-53 0 -101.5 -22.5t-83 -62.5t-55 -94.5t-20.5 -117.5z" />
<glyph unicode="&#xa5;" horiz-adv-x="1196" d="M236 170l34 201h262l23 133h-262l37 201h229l-278 729h286l187 -510l356 510h307l-532 -729h231l-37 -201h-264l-22 -133h264l-35 -201h-264l-31 -170h-260l31 170h-262z" />
<glyph unicode="&#xa6;" horiz-adv-x="589" d="M125 -246l127 719h119h135l-127 -719h-254zM301 756l127 719h254l-127 -719h-254z" />
<glyph unicode="&#xa7;" horiz-adv-x="1042" d="M88 -6l221 139q14 -20 35 -41.5t48.5 -40t62 -30t75.5 -11.5q66 0 117 25.5t51 87.5q0 47 -64.5 88t-172.5 94q-43 20 -86 46t-77 57.5t-54.5 74.5t-20.5 103q0 94 51.5 162.5t122.5 111.5q-41 39 -65.5 97.5t-24.5 125.5q0 84 34 153t92.5 118t139 76.5t172.5 27.5 q131 0 230.5 -53t148.5 -133l-215 -156q-27 33 -69.5 59.5t-110.5 26.5q-66 0 -106.5 -26.5t-40.5 -69.5t63.5 -80t149.5 -76q49 -23 96 -47t83 -59t58.5 -82t22.5 -111q0 -94 -36 -160.5t-116 -119.5q35 -39 57.5 -91.5t22.5 -134.5q0 -78 -29.5 -148.5t-88 -124.5 t-144.5 -86t-197 -32q-147 0 -262 64.5t-174 175.5zM502 655q0 -43 59.5 -77.5t167.5 -79.5q23 10 37 33.5t14 50.5q0 49 -59 83.5t-139 67.5q-37 -8 -58.5 -28.5t-21.5 -49.5z" />
<glyph unicode="&#xa8;" horiz-adv-x="933" d="M416 1315q0 37 14 68.5t38 55t52.5 37t59.5 13.5q59 0 94 -36t35 -89q0 -37 -14.5 -68.5t-38 -55t-53 -37t-62.5 -13.5q-57 0 -91 36t-34 89zM791 1315q0 37 13 68.5t36.5 55t53.5 37t62 13.5q59 0 93 -36t34 -89q0 -37 -14 -68.5t-37.5 -55t-54.5 -37t-62 -13.5 q-59 0 -91.5 36t-32.5 89z" />
<glyph unicode="&#xa9;" horiz-adv-x="1658" d="M207 717q0 158 56 293t156.5 235.5t236 156.5t292.5 56q158 0 293 -56t235.5 -156.5t157 -236t56.5 -292.5q0 -158 -56.5 -293t-157 -235.5t-235.5 -157t-293 -56.5t-293 56.5t-235.5 157t-156.5 235.5t-56 293zM395 717q0 -121 41 -224.5t115 -179t175 -118.5t222 -43 t222.5 43t175 118.5t114.5 179t41 224.5t-41 224t-114.5 179t-175 119t-222.5 43t-222 -43t-175 -119t-115 -179t-41 -224zM584 717q0 76 19.5 154.5t63.5 143t114.5 106.5t172.5 42q117 0 193 -52t117 -138l-187 -88q-23 39 -51.5 58.5t-71.5 19.5t-72.5 -24t-48 -59.5 t-26.5 -78.5t-8 -84q0 -43 9 -87t28.5 -79t48 -57.5t69.5 -22.5t71 21.5t52 56.5l189 -66q-47 -104 -123 -158.5t-189 -54.5q-104 0 -175.5 39t-114.5 102.5t-61.5 143.5t-18.5 162z" />
<glyph unicode="&#xaa;" horiz-adv-x="866" d="M225 813q0 80 29 140.5t77 99.5t108.5 58t123.5 19q59 0 107.5 -12t74.5 -28l7 40q2 10 3 18.5t1 18.5q0 100 -117 101q-61 0 -128 -24.5t-122 -61.5l-33 176q66 41 153 70.5t187 29.5q47 0 96.5 -13t88.5 -44t63.5 -80t24.5 -121q0 -41 -8 -80l-95 -540h-211l11 61 q-25 -29 -74 -55.5t-121 -26.5q-49 0 -93 16.5t-78 48t-54.5 79t-20.5 110.5zM420 834q0 -37 26.5 -61.5t73.5 -24.5q59 0 101.5 22.5t76.5 50.5l17 92q-27 12 -64 22.5t-84 10.5q-59 0 -103 -27.5t-44 -84.5z" />
<glyph unicode="&#xab;" horiz-adv-x="1105" d="M152 524l391 523h274l-397 -535l203 -512h-265zM594 524l391 523h275l-398 -535l203 -512h-143h-121z" />
<glyph unicode="&#xac;" horiz-adv-x="1239" d="M281 725v258h913v-653h-266v395h-647z" />
<glyph unicode="&#xad;" horiz-adv-x="811" d="M231 477l45 256h517l-45 -256h-517z" />
<glyph unicode="&#xae;" horiz-adv-x="1658" d="M207 717q0 158 56 293t156.5 235.5t236 156.5t292.5 56q158 0 293 -56t235.5 -156.5t157 -236t56.5 -292.5q0 -158 -56.5 -293t-157 -235.5t-235.5 -157t-293 -56.5t-293 56.5t-235.5 157t-156.5 235.5t-56 293zM395 717q0 -121 41 -224.5t115 -179t175 -118.5t222 -43 t222.5 43t175 118.5t114.5 179t41 224.5t-41 224t-114.5 179t-175 119t-222.5 43t-222 -43t-175 -119t-115 -179t-41 -224zM655 285v864h340q84 0 139.5 -23.5t87 -61.5t45 -86t13.5 -99q0 -76 -41 -143.5t-133 -102.5l170 -348h-234l-153 323h-33v-323h-201zM856 799h139 q47 0 65.5 25.5t18.5 54.5q0 25 -17.5 52t-66.5 27h-139v-159z" />
<glyph unicode="&#xaf;" horiz-adv-x="933" d="M430 1200l37 217h649l-37 -217h-649z" />
<glyph unicode="&#xb0;" horiz-adv-x="811" d="M262 1266q0 86 31 159.5t84 126t123.5 82t150.5 29.5q86 0 152.5 -27.5t113 -77t70 -116t23.5 -146.5q0 -86 -31 -159.5t-84 -126t-123.5 -82t-150.5 -29.5q-86 0 -153 27.5t-113 77t-69.5 116t-23.5 146.5zM508 1266q0 -53 30 -87t83 -34q59 0 101 43t42 108 q0 53 -29.5 87t-83.5 34q-59 0 -101 -43t-42 -108z" />
<glyph unicode="&#xb1;" horiz-adv-x="1239" d="M283 0v258h913v-258h-913zM283 690v258h323v297h266v-297h324v-258h-324v-297h-266v297h-323z" />
<glyph unicode="&#xb2;" horiz-adv-x="727" d="M207 909q16 88 41.5 158t68.5 129t109 111.5t160 107.5q41 23 75.5 49.5t34.5 57.5q0 29 -16 45t-49 16q-37 0 -70 -26.5t-55 -73.5l-187 49q53 115 146.5 185.5t214.5 70.5q59 0 106.5 -20.5t79 -53.5t48 -76t16.5 -88q0 -47 -11.5 -83.5t-39 -71.5t-73.5 -70t-116 -76 q-51 -31 -97 -64.5t-69 -66.5h324l-37 -209h-604z" />
<glyph unicode="&#xb3;" horiz-adv-x="698" d="M227 1147l205 53q4 -53 33 -78.5t70 -25.5q45 0 69.5 24.5t24.5 59.5q0 80 -90 80h-78l35 188h69q49 0 73 26.5t24 55.5q0 25 -16.5 41t-45.5 16q-31 0 -56.5 -19.5t-45.5 -54.5l-168 70q55 98 137 151.5t190 53.5q104 0 165 -61.5t61 -145.5q0 -82 -44 -139.5t-98 -83.5 q39 -16 71 -64.5t32 -117.5q0 -59 -22.5 -109.5t-64.5 -89.5t-101.5 -60.5t-133.5 -21.5q-135 0 -205.5 67.5t-89.5 184.5z" />
<glyph unicode="&#xb4;" horiz-adv-x="933" d="M479 1180l334 319h330l-416 -319h-248z" />
<glyph unicode="&#xb5;" horiz-adv-x="1171" d="M74 -410l256 1457h258l-103 -582q-4 -23 -7 -49.5t-3 -40.5q0 -143 141 -144q78 0 143.5 49.5t88.5 172.5l106 594h263l-185 -1047h-262l16 98q-37 -53 -96 -88t-135 -35q-51 0 -86 17.5t-53 38.5l-62 -353z" />
<glyph unicode="&#xb6;" horiz-adv-x="1271" d="M205 940q0 76 26.5 163t88 160.5t163 122t248.5 48.5h645l-270 -1532l-279 -123l246 1399h-145l-258 -1465l-281 -123l170 971q-88 4 -154.5 37t-110.5 84t-66.5 117.5t-22.5 140.5z" />
<glyph unicode="&#xb7;" horiz-adv-x="473" d="M197 688q0 86 54 141.5t128 55.5q72 0 110.5 -41t38.5 -101q0 -86 -53 -141t-135 -55q-66 0 -104.5 41t-38.5 100z" />
<glyph unicode="&#xb8;" horiz-adv-x="933" d="M152 -403l127 86q10 -16 27.5 -27.5t45.5 -11.5q51 0 81 25.5t30 66.5q0 31 -21.5 49t-62.5 18q-45 0 -90 -28l-43 67l176 178h137l-90 -114q102 0 148.5 -44t46.5 -110q0 -106 -83.5 -179t-228.5 -73q-84 0 -130 28t-70 69z" />
<glyph unicode="&#xb9;" horiz-adv-x="440" d="M281 909l112 635h-100l31 170q66 0 99.5 15.5t55.5 44.5h170l-153 -865h-215z" />
<glyph unicode="&#xba;" horiz-adv-x="913" d="M244 926q0 121 32.5 219t93 167.5t145.5 107.5t192 38q70 0 129 -25.5t101 -73.5t65.5 -116.5t23.5 -152.5q0 -121 -31.5 -218.5t-92 -167t-146 -107.5t-189.5 -38q-145 0 -234 98.5t-89 268.5zM459 965q0 -96 34.5 -146.5t100.5 -50.5q49 0 89 21.5t68.5 60.5t44 90 t15.5 113q0 94 -34 145t-97 51q-49 0 -90 -22.5t-71 -60.5t-45 -90t-15 -111z" />
<glyph unicode="&#xbb;" horiz-adv-x="1105" d="M18 0l404 539l-195 508h262l207 -523l-391 -524h-287zM461 0l403 539l-194 508h262l207 -523l-391 -524h-287z" />
<glyph unicode="&#xbc;" horiz-adv-x="1472" d="M30 -25l1202 1483h254l-1202 -1483h-254zM223 580l113 634h-100l28 170q66 0 99.5 15.5t56.5 44.5h170l-152 -864h-215zM711 164l27 147l501 553h197l-90 -512h110l-32 -188h-111l-29 -164h-198l28 164h-403zM973 352h174l43 238z" />
<glyph unicode="&#xbd;" horiz-adv-x="1554" d="M30 -25l1202 1483h254l-1202 -1483h-254zM223 580l113 634h-100l28 170q66 0 99.5 15.5t56.5 44.5h170l-152 -864h-215zM844 0q18 100 54 179t85.5 140.5t110.5 107.5t129 79q41 23 76 46t35 64q0 25 -15.5 41.5t-48.5 16.5q-45 0 -75.5 -26.5t-53.5 -74.5l-184 50 q53 115 146 185.5t214 70.5q117 0 181.5 -61.5t64.5 -160.5q0 -72 -21.5 -122t-58.5 -85.5t-86 -63.5t-106 -56q-53 -29 -92.5 -57.5t-61.5 -63.5h348l-37 -209h-604z" />
<glyph unicode="&#xbe;" horiz-adv-x="1712" d="M168 817l207 53q4 -53 29.5 -78.5t66.5 -25.5q47 0 73.5 28.5t26.5 69.5q0 29 -21.5 47.5t-70.5 18.5h-76l33 188h74q51 0 72.5 25.5t21.5 56.5q0 25 -15.5 41t-43.5 16q-39 0 -61.5 -19t-43.5 -54l-168 69q55 98 141.5 151.5t186.5 53.5q111 0 167 -61.5t56 -145.5 q0 -82 -43 -139t-96 -84q47 -20 73.5 -61t26.5 -99q0 -63 -24.5 -118.5t-69.5 -96.5t-110.5 -64.5t-145.5 -23.5q-117 0 -183.5 66.5t-82.5 185.5zM270 -25l1202 1483h254l-1202 -1483h-254zM950 164l27 147l501 553h197l-90 -512h110l-32 -188h-111l-29 -164h-198l28 164 h-403zM1212 352h174l43 238z" />
<glyph unicode="&#xbf;" horiz-adv-x="993" d="M63 -49q0 88 28 149.5t72 108.5t95 85t99.5 80t85 93t49.5 123l12 72h256l-15 -74q-18 -100 -57 -170t-86 -120t-96 -86t-89 -69.5t-65.5 -70.5t-25.5 -88q0 -53 33.5 -95.5t109.5 -42.5q94 0 159.5 62.5t86.5 179.5h256q-20 -121 -70.5 -213t-122 -155.5t-163 -96.5 t-191.5 -33q-86 0 -152.5 28t-112.5 77t-71 114.5t-25 141.5zM504 877q0 86 53 141t135 55q66 0 105 -41t39 -100q0 -86 -54.5 -141.5t-128.5 -55.5q-72 0 -110.5 41t-38.5 101z" />
<glyph unicode="&#xc0;" horiz-adv-x="1458" d="M72 0l778 1434h272l275 -1434h-285l-53 297h-531l-159 -297h-297zM651 1888h330l223 -319h-250zM657 549h359l-72 399q-2 10 -4 25.5t-5 33t-6 33t-3 23.5q-8 -18 -25.5 -54t-28.5 -57z" />
<glyph unicode="&#xc1;" horiz-adv-x="1458" d="M72 0l778 1434h272l275 -1434h-285l-53 297h-531l-159 -297h-297zM657 549h359l-72 399q-2 10 -4 25.5t-5 33t-6 33t-3 23.5q-8 -18 -25.5 -54t-28.5 -57zM796 1569l334 319h330l-416 -319h-248z" />
<glyph unicode="&#xc2;" horiz-adv-x="1458" d="M72 0l778 1434h272l275 -1434h-285l-53 297h-531l-159 -297h-297zM612 1569l334 319h246l221 -319h-236l-139 141l-190 -141h-236zM657 549h359l-72 399q-2 10 -4 25.5t-5 33t-6 33t-3 23.5q-8 -18 -25.5 -54t-28.5 -57z" />
<glyph unicode="&#xc3;" horiz-adv-x="1458" d="M72 0l778 1434h272l275 -1434h-285l-53 297h-531l-159 -297h-297zM636 1591q20 123 85 203t192 80q51 0 92 -14.5t77 -33t68.5 -32.5t69.5 -14t66.5 19.5t40.5 66.5h120q-10 -61 -30.5 -113.5t-54 -89.5t-81 -58.5t-110.5 -21.5q-53 0 -93 14.5t-76 33t-68.5 32.5 t-69.5 14t-66.5 -19.5t-40.5 -66.5h-121zM657 549h359l-72 399q-2 10 -4 25.5t-5 33t-6 33t-3 23.5q-8 -18 -25.5 -54t-28.5 -57z" />
<glyph unicode="&#xc4;" horiz-adv-x="1458" d="M72 0l778 1434h272l275 -1434h-285l-53 297h-531l-159 -297h-297zM657 549h359l-72 399q-2 10 -4 25.5t-5 33t-6 33t-3 23.5q-8 -18 -25.5 -54t-28.5 -57zM701 1704q0 37 14 68.5t38 55t52.5 37t59.5 13.5q59 0 94 -36t35 -89q0 -37 -14.5 -68.5t-38 -55t-53 -37 t-62.5 -13.5q-57 0 -91 36t-34 89zM1076 1704q0 37 13 68.5t36.5 55t53.5 37t62 13.5q59 0 93 -36t34 -89q0 -37 -14 -68.5t-37.5 -55t-54.5 -37t-62 -13.5q-59 0 -91.5 36t-32.5 89z" />
<glyph unicode="&#xc5;" horiz-adv-x="1458" d="M72 0l712 1315q-25 29 -48 72t-23 106q0 45 16 94t52 90t91.5 68t133.5 27q53 0 99 -18.5t79 -49.5t51 -72t18 -86q0 -66 -29.5 -122t-80.5 -99l254 -1325h-285l-53 297h-531l-159 -297h-297zM657 549h359l-68 381q-4 27 -11 61.5t-11 65.5q-14 -29 -34 -65t-34 -62z M905 1511q0 -35 18.5 -58t55.5 -23q33 0 57.5 23.5t24.5 62.5q0 31 -16.5 54t-55.5 23q-41 0 -62.5 -25.5t-21.5 -56.5z" />
<glyph unicode="&#xc6;" horiz-adv-x="1767" d="M-47 0l1048 1434h879l-45 -263h-590l-53 -301h313l-47 -262h-313l-60 -346h631l-47 -262h-903l53 297h-354l-215 -297h-297zM649 549h213l74 409q-12 -25 -28.5 -49t-37.5 -53z" />
<glyph unicode="&#xc7;" horiz-adv-x="1304" d="M240 580q0 162 46 318.5t135 280.5t220 200.5t303 76.5q186 0 300 -91t161 -232l-248 -107q-27 61 -83 112.5t-142 51.5q-100 0 -176 -56.5t-127 -142.5t-77 -191.5t-26 -203.5q0 -70 14.5 -132.5t44 -110.5t72.5 -75.5t99 -27.5q94 0 167.5 48t118.5 130l244 -104 q-102 -174 -229 -254t-277 -90l-55 -74q102 0 148.5 -44t46.5 -110q0 -106 -84.5 -179t-227.5 -73q-84 0 -130 28t-70 69l127 86q10 -16 26.5 -27.5t44.5 -11.5q53 0 83 25.5t30 66.5q0 31 -21.5 49t-62.5 18q-45 0 -90 -28l-43 67l139 144q-96 16 -171 66t-126 128 t-77.5 179.5t-26.5 220.5z" />
<glyph unicode="&#xc8;" horiz-adv-x="1243" d="M164 0l252 1434h940l-45 -263h-660l-53 -301h383l-47 -262h-383l-59 -346h700l-47 -262h-981zM590 1888h330l223 -319h-250z" />
<glyph unicode="&#xc9;" horiz-adv-x="1243" d="M164 0l252 1434h940l-45 -263h-660l-53 -301h383l-47 -262h-383l-59 -346h700l-47 -262h-981zM774 1569l334 319h330l-416 -319h-248z" />
<glyph unicode="&#xca;" horiz-adv-x="1243" d="M164 0l252 1434h940l-45 -263h-660l-53 -301h383l-47 -262h-383l-59 -346h700l-47 -262h-981zM537 1569l334 319h246l221 -319h-236l-139 141l-190 -141h-236z" />
<glyph unicode="&#xcb;" horiz-adv-x="1243" d="M164 0l252 1434h940l-45 -263h-660l-53 -301h383l-47 -262h-383l-59 -346h700l-47 -262h-981zM639 1704q0 37 14 68.5t38 55t52.5 37t59.5 13.5q59 0 94 -36t35 -89q0 -37 -14.5 -68.5t-38 -55t-53 -37t-62.5 -13.5q-57 0 -91 36t-34 89zM1014 1704q0 37 13 68.5t36.5 55 t53.5 37t62 13.5q59 0 93 -36t34 -89q0 -37 -14 -68.5t-37.5 -55t-54.5 -37t-62 -13.5q-59 0 -91.5 36t-32.5 89z" />
<glyph unicode="&#xcc;" horiz-adv-x="606" d="M164 0l252 1434h280l-252 -1434h-280zM235 1888h330l223 -319h-250z" />
<glyph unicode="&#xcd;" horiz-adv-x="606" d="M164 0l252 1434h280l-252 -1434h-280zM340 1569l334 319h330l-416 -319h-248z" />
<glyph unicode="&#xce;" horiz-adv-x="606" d="M164 0l252 1434h280l-252 -1434h-280zM176 1569l334 319h246l221 -319h-236l-139 141l-190 -141h-236z" />
<glyph unicode="&#xcf;" horiz-adv-x="606" d="M164 0l252 1434h280l-252 -1434h-280zM271 1704q0 37 14 68.5t38 55t52.5 37t59.5 13.5q59 0 94 -36t35 -89q0 -37 -14.5 -68.5t-38 -55t-53 -37t-62.5 -13.5q-57 0 -91 36t-34 89zM646 1704q0 37 13 68.5t36.5 55t53.5 37t62 13.5q59 0 93 -36t34 -89q0 -37 -14 -68.5 t-37.5 -55t-54.5 -37t-62 -13.5q-59 0 -91.5 36t-32.5 89z" />
<glyph unicode="&#xd0;" horiz-adv-x="1441" d="M156 588l45 258h121l102 588h444q150 0 259.5 -52.5t181 -141.5t106.5 -208t35 -252q0 -135 -42 -274t-134 -252t-236.5 -183.5t-347.5 -70.5h-518l104 588h-120zM489 262h199q119 0 206 45t144.5 117t85 163t27.5 181q0 88 -19.5 162t-58.5 128t-99.5 83.5t-142.5 29.5 h-182l-57 -325h280l-45 -258h-280z" />
<glyph unicode="&#xd1;" horiz-adv-x="1443" d="M164 0l252 1434h260l387 -826q10 -20 21.5 -50t17.5 -58q2 29 5 58.5t7 49.5l146 826h274l-252 -1434h-246l-399 836q-10 23 -20.5 52.5t-18.5 55.5q0 -23 -4 -54.5t-8 -53.5l-148 -836h-274zM626 1591q20 123 85 203t192 80q51 0 92 -14.5t77 -33t68.5 -32.5t69.5 -14 t66.5 19.5t40.5 66.5h120q-10 -61 -30.5 -113.5t-54 -89.5t-81 -58.5t-110.5 -21.5q-53 0 -93 14.5t-76 33t-68.5 32.5t-69.5 14t-66.5 -19.5t-40.5 -66.5h-121z" />
<glyph unicode="&#xd2;" horiz-adv-x="1468" d="M240 610q0 168 47 321.5t136 270.5t220 186.5t299 69.5q137 0 238.5 -52t167 -140t97.5 -201t32 -231q0 -176 -48.5 -332t-137.5 -272.5t-215.5 -185.5t-284.5 -69q-152 0 -256.5 53.5t-170 142.5t-95 203.5t-29.5 235.5zM514 610q0 -68 14.5 -134t47 -118.5t84.5 -84 t128 -31.5q94 0 171 47t130.5 127t83 187.5t29.5 230.5q0 63 -15.5 127.5t-48 115.5t-86 83t-128.5 32q-96 0 -173 -50t-129.5 -133t-80 -187.5t-27.5 -211.5zM688 1888h330l223 -319h-250z" />
<glyph unicode="&#xd3;" horiz-adv-x="1468" d="M240 610q0 168 47 321.5t136 270.5t220 186.5t299 69.5q137 0 238.5 -52t167 -140t97.5 -201t32 -231q0 -176 -48.5 -332t-137.5 -272.5t-215.5 -185.5t-284.5 -69q-152 0 -256.5 53.5t-170 142.5t-95 203.5t-29.5 235.5zM514 610q0 -68 14.5 -134t47 -118.5t84.5 -84 t128 -31.5q94 0 171 47t130.5 127t83 187.5t29.5 230.5q0 63 -15.5 127.5t-48 115.5t-86 83t-128.5 32q-96 0 -173 -50t-129.5 -133t-80 -187.5t-27.5 -211.5zM772 1569l334 319h330l-416 -319h-248z" />
<glyph unicode="&#xd4;" horiz-adv-x="1468" d="M240 610q0 168 47 321.5t136 270.5t220 186.5t299 69.5q137 0 238.5 -52t167 -140t97.5 -201t32 -231q0 -176 -48.5 -332t-137.5 -272.5t-215.5 -185.5t-284.5 -69q-152 0 -256.5 53.5t-170 142.5t-95 203.5t-29.5 235.5zM514 610q0 -68 14.5 -134t47 -118.5t84.5 -84 t128 -31.5q94 0 171 47t130.5 127t83 187.5t29.5 230.5q0 63 -15.5 127.5t-48 115.5t-86 83t-128.5 32q-96 0 -173 -50t-129.5 -133t-80 -187.5t-27.5 -211.5zM602 1569l334 319h246l221 -319h-236l-139 141l-190 -141h-236z" />
<glyph unicode="&#xd5;" horiz-adv-x="1468" d="M240 610q0 168 47 321.5t136 270.5t220 186.5t299 69.5q137 0 238.5 -52t167 -140t97.5 -201t32 -231q0 -176 -48.5 -332t-137.5 -272.5t-215.5 -185.5t-284.5 -69q-152 0 -256.5 53.5t-170 142.5t-95 203.5t-29.5 235.5zM514 610q0 -68 14.5 -134t47 -118.5t84.5 -84 t128 -31.5q94 0 171 47t130.5 127t83 187.5t29.5 230.5q0 63 -15.5 127.5t-48 115.5t-86 83t-128.5 32q-96 0 -173 -50t-129.5 -133t-80 -187.5t-27.5 -211.5zM639 1591q20 123 85 203t192 80q51 0 92 -14.5t77 -33t68.5 -32.5t69.5 -14t66.5 19.5t40.5 66.5h120 q-10 -61 -30.5 -113.5t-54 -89.5t-81 -58.5t-110.5 -21.5q-53 0 -93 14.5t-76 33t-68.5 32.5t-69.5 14t-66.5 -19.5t-40.5 -66.5h-121z" />
<glyph unicode="&#xd6;" horiz-adv-x="1468" d="M240 610q0 168 47 321.5t136 270.5t220 186.5t299 69.5q137 0 238.5 -52t167 -140t97.5 -201t32 -231q0 -176 -48.5 -332t-137.5 -272.5t-215.5 -185.5t-284.5 -69q-152 0 -256.5 53.5t-170 142.5t-95 203.5t-29.5 235.5zM514 610q0 -68 14.5 -134t47 -118.5t84.5 -84 t128 -31.5q94 0 171 47t130.5 127t83 187.5t29.5 230.5q0 63 -15.5 127.5t-48 115.5t-86 83t-128.5 32q-96 0 -173 -50t-129.5 -133t-80 -187.5t-27.5 -211.5zM697 1704q0 37 14 68.5t38 55t52.5 37t59.5 13.5q59 0 94 -36t35 -89q0 -37 -14.5 -68.5t-38 -55t-53 -37 t-62.5 -13.5q-57 0 -91 36t-34 89zM1072 1704q0 37 13 68.5t36.5 55t53.5 37t62 13.5q59 0 93 -36t34 -89q0 -37 -14 -68.5t-37.5 -55t-54.5 -37t-62 -13.5q-59 0 -91.5 36t-32.5 89z" />
<glyph unicode="&#xd7;" horiz-adv-x="1239" d="M252 412l295 293l-293 294l186 187l295 -293l293 295l195 -193l-297 -295l295 -292l-189 -189l-293 295l-295 -297z" />
<glyph unicode="&#xd8;" horiz-adv-x="1468" d="M115 -25l211 256q-45 82 -65.5 178.5t-20.5 200.5q0 168 47 321.5t136 270.5t220 186.5t299 69.5q98 0 176 -26.5t137 -73.5l84 100h269l-217 -262q43 -78 64.5 -171t21.5 -191q0 -176 -48.5 -332t-137.5 -272.5t-216 -185.5t-284 -69q-104 0 -185.5 25t-142.5 72 l-80 -97h-268zM514 610q0 -35 3 -68.5t11 -66.5l549 668q-61 49 -153 49q-96 0 -173 -50t-129.5 -133t-80 -188t-27.5 -211zM639 287q61 -45 149 -45q94 0 171 47t130.5 127t83 187.5t29.5 230.5q0 29 -4 59.5t-10 58.5z" />
<glyph unicode="&#xd9;" horiz-adv-x="1443" d="M254 434q0 35 3 79t19 134l142 787h276l-145 -838q-10 -53 -13.5 -80t-3.5 -55q0 -61 19.5 -102.5t52.5 -67t76 -35.5t90 -10q61 0 116.5 14t100.5 48t76 92.5t47 148.5l156 885h276l-160 -910q-29 -166 -88 -272.5t-142 -167.5t-185 -85t-217 -24q-102 0 -192.5 27 t-158 83t-106.5 143t-39 206zM651 1888h330l223 -319h-250z" />
<glyph unicode="&#xda;" horiz-adv-x="1443" d="M254 434q0 35 3 79t19 134l142 787h276l-145 -838q-10 -53 -13.5 -80t-3.5 -55q0 -61 19.5 -102.5t52.5 -67t76 -35.5t90 -10q61 0 116.5 14t100.5 48t76 92.5t47 148.5l156 885h276l-160 -910q-29 -166 -88 -272.5t-142 -167.5t-185 -85t-217 -24q-102 0 -192.5 27 t-158 83t-106.5 143t-39 206zM790 1569l334 319h330l-416 -319h-248z" />
<glyph unicode="&#xdb;" horiz-adv-x="1443" d="M254 434q0 35 3 79t19 134l142 787h276l-145 -838q-10 -53 -13.5 -80t-3.5 -55q0 -61 19.5 -102.5t52.5 -67t76 -35.5t90 -10q61 0 116.5 14t100.5 48t76 92.5t47 148.5l156 885h276l-160 -910q-29 -166 -88 -272.5t-142 -167.5t-185 -85t-217 -24q-102 0 -192.5 27 t-158 83t-106.5 143t-39 206zM596 1569l334 319h246l221 -319h-236l-139 141l-190 -141h-236z" />
<glyph unicode="&#xdc;" horiz-adv-x="1443" d="M254 434q0 35 3 79t19 134l142 787h276l-145 -838q-10 -53 -13.5 -80t-3.5 -55q0 -61 19.5 -102.5t52.5 -67t76 -35.5t90 -10q61 0 116.5 14t100.5 48t76 92.5t47 148.5l156 885h276l-160 -910q-29 -166 -88 -272.5t-142 -167.5t-185 -85t-217 -24q-102 0 -192.5 27 t-158 83t-106.5 143t-39 206zM680 1704q0 37 14 68.5t38 55t52.5 37t59.5 13.5q59 0 94 -36t35 -89q0 -37 -14.5 -68.5t-38 -55t-53 -37t-62.5 -13.5q-57 0 -91 36t-34 89zM1055 1704q0 37 13 68.5t36.5 55t53.5 37t62 13.5q59 0 93 -36t34 -89q0 -37 -14 -68.5t-37.5 -55 t-54.5 -37t-62 -13.5q-59 0 -91.5 36t-32.5 89z" />
<glyph unicode="&#xdd;" horiz-adv-x="1400" d="M307 1434h291l238 -586l442 586h315l-653 -863l-100 -571h-281l103 578zM798 1569l334 319h330l-416 -319h-248z" />
<glyph unicode="&#xde;" horiz-adv-x="1312" d="M164 0l252 1434h280l-43 -252h318q115 0 192.5 -38t124.5 -98.5t66.5 -133t19.5 -140.5q0 -98 -34.5 -188t-102.5 -158t-167 -109t-228 -41h-350l-50 -276h-278zM539 539h333q59 0 101.5 21.5t68 52t37 66.5t11.5 66q0 72 -33 123.5t-119 51.5h-332z" />
<glyph unicode="&#xdf;" horiz-adv-x="1130" d="M55 -410l244 1385q25 135 75 227t118.5 149.5t150.5 82t166 24.5q80 0 147.5 -23.5t116.5 -66.5t77 -104.5t28 -139.5q0 -104 -62.5 -198.5t-185.5 -143.5q92 -33 150.5 -116.5t58.5 -212.5q0 -109 -40 -196t-106.5 -150.5t-152.5 -97.5t-181 -34q-86 0 -139 12.5 t-86 35.5l150 194q23 -8 39 -10t39 -2q43 0 81.5 17.5t68.5 49t47.5 77.5t17.5 104q0 86 -45.5 148.5t-147.5 62.5h-72l41 229h72q39 0 75 14.5t62.5 40t43 60t16.5 75.5q0 63 -36 104.5t-102 41.5q-84 0 -144 -59.5t-87 -204.5l-221 -1250z" />
<glyph unicode="&#xe0;" horiz-adv-x="1097" d="M131 281q0 90 34 161.5t95.5 121.5t147.5 77t190 27q63 0 122.5 -17.5t102.5 -44.5l8 41q8 39 9 66q0 66 -43 95.5t-113 29.5q-86 0 -171 -29t-159 -76l-39 215q80 51 181.5 87t230.5 36q51 0 115.5 -13.5t122 -50t96.5 -100t39 -162.5q0 -23 -4 -54.5t-11 -67.5 l-108 -623h-260l16 82q-41 -43 -115.5 -75t-162.5 -32q-68 0 -126.5 20.5t-102.5 60.5t-69.5 96.5t-25.5 128.5zM393 305q0 -43 36 -69.5t99 -26.5q82 0 139.5 25.5t100.5 60.5l20 111q-35 16 -84 26t-110 10q-37 0 -74 -7t-64.5 -24.5t-45 -43t-17.5 -62.5zM506 1499h330 l223 -319h-250z" />
<glyph unicode="&#xe1;" horiz-adv-x="1097" d="M131 281q0 90 34 161.5t95.5 121.5t147.5 77t190 27q63 0 122.5 -17.5t102.5 -44.5l8 41q8 39 9 66q0 66 -43 95.5t-113 29.5q-86 0 -171 -29t-159 -76l-39 215q80 51 181.5 87t230.5 36q51 0 115.5 -13.5t122 -50t96.5 -100t39 -162.5q0 -23 -4 -54.5t-11 -67.5 l-108 -623h-260l16 82q-41 -43 -115.5 -75t-162.5 -32q-68 0 -126.5 20.5t-102.5 60.5t-69.5 96.5t-25.5 128.5zM393 305q0 -43 36 -69.5t99 -26.5q82 0 139.5 25.5t100.5 60.5l20 111q-35 16 -84 26t-110 10q-37 0 -74 -7t-64.5 -24.5t-45 -43t-17.5 -62.5zM610 1180 l334 319h330l-416 -319h-248z" />
<glyph unicode="&#xe2;" horiz-adv-x="1097" d="M131 281q0 90 34 161.5t95.5 121.5t147.5 77t190 27q63 0 122.5 -17.5t102.5 -44.5l8 41q8 39 9 66q0 66 -43 95.5t-113 29.5q-86 0 -171 -29t-159 -76l-39 215q80 51 181.5 87t230.5 36q51 0 115.5 -13.5t122 -50t96.5 -100t39 -162.5q0 -23 -4 -54.5t-11 -67.5 l-108 -623h-260l16 82q-41 -43 -115.5 -75t-162.5 -32q-68 0 -126.5 20.5t-102.5 60.5t-69.5 96.5t-25.5 128.5zM379 1180l334 319h246l221 -319h-236l-139 141l-190 -141h-236zM393 305q0 -43 36 -69.5t99 -26.5q82 0 139.5 25.5t100.5 60.5l20 111q-35 16 -84 26t-110 10 q-37 0 -74 -7t-64.5 -24.5t-45 -43t-17.5 -62.5z" />
<glyph unicode="&#xe3;" horiz-adv-x="1097" d="M131 281q0 90 34 161.5t95.5 121.5t147.5 77t190 27q63 0 122.5 -17.5t102.5 -44.5l8 41q8 39 9 66q0 66 -43 95.5t-113 29.5q-86 0 -171 -29t-159 -76l-39 215q80 51 181.5 87t230.5 36q51 0 115.5 -13.5t122 -50t96.5 -100t39 -162.5q0 -23 -4 -54.5t-11 -67.5 l-108 -623h-260l16 82q-41 -43 -115.5 -75t-162.5 -32q-68 0 -126.5 20.5t-102.5 60.5t-69.5 96.5t-25.5 128.5zM376 1202q20 123 85 203t192 80q51 0 92 -14.5t77 -33t68.5 -32.5t69.5 -14t66.5 19.5t40.5 66.5h120q-10 -61 -30.5 -113.5t-54 -89.5t-81 -58.5t-110.5 -21.5 q-53 0 -93 14.5t-76 33t-68.5 32.5t-69.5 14t-66.5 -19.5t-40.5 -66.5h-121zM393 305q0 -43 36 -69.5t99 -26.5q82 0 139.5 25.5t100.5 60.5l20 111q-35 16 -84 26t-110 10q-37 0 -74 -7t-64.5 -24.5t-45 -43t-17.5 -62.5z" />
<glyph unicode="&#xe4;" horiz-adv-x="1097" d="M131 281q0 90 34 161.5t95.5 121.5t147.5 77t190 27q63 0 122.5 -17.5t102.5 -44.5l8 41q8 39 9 66q0 66 -43 95.5t-113 29.5q-86 0 -171 -29t-159 -76l-39 215q80 51 181.5 87t230.5 36q51 0 115.5 -13.5t122 -50t96.5 -100t39 -162.5q0 -23 -4 -54.5t-11 -67.5 l-108 -623h-260l16 82q-41 -43 -115.5 -75t-162.5 -32q-68 0 -126.5 20.5t-102.5 60.5t-69.5 96.5t-25.5 128.5zM393 305q0 -43 36 -69.5t99 -26.5q82 0 139.5 25.5t100.5 60.5l20 111q-35 16 -84 26t-110 10q-37 0 -74 -7t-64.5 -24.5t-45 -43t-17.5 -62.5zM473 1315 q0 37 14 68.5t38 55t52.5 37t59.5 13.5q59 0 94 -36t35 -89q0 -37 -14.5 -68.5t-38 -55t-53 -37t-62.5 -13.5q-57 0 -91 36t-34 89zM848 1315q0 37 13 68.5t36.5 55t53.5 37t62 13.5q59 0 93 -36t34 -89q0 -37 -14 -68.5t-37.5 -55t-54.5 -37t-62 -13.5q-59 0 -91.5 36 t-32.5 89z" />
<glyph unicode="&#xe5;" horiz-adv-x="1097" d="M131 281q0 90 34 161.5t95.5 121.5t147.5 77t190 27q63 0 122.5 -17.5t102.5 -44.5l8 41q8 39 9 66q0 66 -43 95.5t-113 29.5q-86 0 -171 -29t-159 -76l-39 215q80 51 181.5 87t230.5 36q51 0 115.5 -13.5t122 -50t96.5 -100t39 -162.5q0 -23 -4 -54.5t-11 -67.5 l-108 -623h-260l16 82q-41 -43 -115.5 -75t-162.5 -32q-68 0 -126.5 20.5t-102.5 60.5t-69.5 96.5t-25.5 128.5zM393 305q0 -43 36 -69.5t99 -26.5q82 0 139.5 25.5t100.5 60.5l20 111q-35 16 -84 26t-110 10q-37 0 -74 -7t-64.5 -24.5t-45 -43t-17.5 -62.5zM587 1370 q0 63 26 119t69 96.5t98 64.5t115 24q45 0 84 -17.5t67.5 -48.5t44 -71t15.5 -85q0 -63 -26 -118.5t-69 -97.5t-97 -65.5t-111 -23.5q-47 0 -87 17.5t-69 48t-44.5 70.5t-15.5 87zM770 1397q0 -29 17 -48.5t46 -19.5q35 0 63.5 28t28.5 69q0 29 -17 48t-46 19 q-37 0 -64.5 -27.5t-27.5 -68.5z" />
<glyph unicode="&#xe6;" horiz-adv-x="1673" d="M131 281q0 100 38 174.5t100.5 122t142.5 71t166 23.5q59 0 116.5 -15.5t89.5 -33.5l9 49q2 12 3 22.5t1 20.5q0 59 -38 91t-104 32q-82 0 -160.5 -27t-154.5 -78l-35 215q78 51 176.5 87t220.5 36q74 0 147 -33.5t118 -93.5q53 53 140 90t210 37q84 0 154.5 -24.5 t122 -75.5t80 -129t28.5 -185q0 -66 -10.5 -125t-28.5 -112h-666q0 -4 -1 -9t-1 -10q0 -92 58.5 -142t144.5 -50q53 0 116.5 26.5t117.5 81.5l135 -172q-164 -170 -404 -170q-123 0 -213 43t-137 125q-96 -92 -194.5 -130t-192.5 -38q-57 0 -110.5 19.5t-94.5 57.5 t-65.5 95.5t-24.5 133.5zM389 305q0 -43 33.5 -69.5t99.5 -26.5q61 0 112.5 25.5t90.5 60.5l20 113q-31 16 -73.5 25t-85.5 9q-39 0 -75 -8t-62.5 -24.5t-43 -42t-16.5 -62.5zM1034 645h414v15.5t-2 21.5q-10 80 -58 118t-122 38q-80 0 -143.5 -46.5t-88.5 -146.5z" />
<glyph unicode="&#xe7;" horiz-adv-x="1075" d="M174 432q0 137 40 255t112.5 203t174 133t224.5 48q78 0 142.5 -22.5t113.5 -63.5t82 -97.5t47 -123.5l-258 -84q-12 59 -50 97t-108 38q-53 0 -99 -26.5t-80 -74.5t-53.5 -111.5t-19.5 -137.5q0 -102 41 -168t115 -66q78 0 125 41t78 111l237 -78q-35 -96 -88 -158.5 t-112.5 -100.5t-121 -53.5t-112.5 -17.5l-55 -69q102 0 148 -44t46 -110q0 -106 -83 -179t-228 -73q-82 0 -129 28t-70 69l127 86q8 -16 25.5 -27.5t46.5 -11.5q53 0 82 25.5t29 68.5q0 29 -21.5 47t-62.5 18q-47 0 -88 -28l-43 67l143 148q-137 35 -217 153.5t-80 288.5z " />
<glyph unicode="&#xe8;" horiz-adv-x="1101" d="M156 422q0 121 38.5 237.5t112.5 207.5t182.5 147.5t249.5 56.5q195 0 293 -110.5t98 -309.5q0 -121 -38 -231h-668v-21q0 -47 16.5 -81.5t44 -59.5t64.5 -37t76 -12q63 0 126.5 30.5t108.5 77.5l135 -172q-78 -80 -173 -125t-230 -45q-98 0 -178 29t-137.5 85t-89 139 t-31.5 194zM452 1499h330l223 -319h-250zM463 645h414q0 14 -1.5 26.5t-3.5 22.5q-14 76 -60 110t-112 34q-90 0 -151.5 -47.5t-85.5 -145.5z" />
<glyph unicode="&#xe9;" horiz-adv-x="1101" d="M156 422q0 121 38.5 237.5t112.5 207.5t182.5 147.5t249.5 56.5q195 0 293 -110.5t98 -309.5q0 -121 -38 -231h-668v-21q0 -47 16.5 -81.5t44 -59.5t64.5 -37t76 -12q63 0 126.5 30.5t108.5 77.5l135 -172q-78 -80 -173 -125t-230 -45q-98 0 -178 29t-137.5 85t-89 139 t-31.5 194zM463 645h414q0 14 -1.5 26.5t-3.5 22.5q-14 76 -60 110t-112 34q-90 0 -151.5 -47.5t-85.5 -145.5zM620 1180l334 319h330l-416 -319h-248z" />
<glyph unicode="&#xea;" horiz-adv-x="1101" d="M156 422q0 121 38.5 237.5t112.5 207.5t182.5 147.5t249.5 56.5q195 0 293 -110.5t98 -309.5q0 -121 -38 -231h-668v-21q0 -47 16.5 -81.5t44 -59.5t64.5 -37t76 -12q63 0 126.5 30.5t108.5 77.5l135 -172q-78 -80 -173 -125t-230 -45q-98 0 -178 29t-137.5 85t-89 139 t-31.5 194zM389 1180l334 319h246l221 -319h-236l-139 141l-190 -141h-236zM463 645h414q0 14 -1.5 26.5t-3.5 22.5q-14 76 -60 110t-112 34q-90 0 -151.5 -47.5t-85.5 -145.5z" />
<glyph unicode="&#xeb;" horiz-adv-x="1101" d="M156 422q0 121 38.5 237.5t112.5 207.5t182.5 147.5t249.5 56.5q195 0 293 -110.5t98 -309.5q0 -121 -38 -231h-668v-21q0 -47 16.5 -81.5t44 -59.5t64.5 -37t76 -12q63 0 126.5 30.5t108.5 77.5l135 -172q-78 -80 -173 -125t-230 -45q-98 0 -178 29t-137.5 85t-89 139 t-31.5 194zM463 645h414q0 14 -1.5 26.5t-3.5 22.5q-14 76 -60 110t-112 34q-90 0 -151.5 -47.5t-85.5 -145.5zM463 1315q0 37 14 68.5t38 55t52.5 37t59.5 13.5q59 0 94 -36t35 -89q0 -37 -14.5 -68.5t-38 -55t-53 -37t-62.5 -13.5q-57 0 -91 36t-34 89zM838 1315 q0 37 13 68.5t36.5 55t53.5 37t62 13.5q59 0 93 -36t34 -89q0 -37 -14 -68.5t-37.5 -55t-54.5 -37t-62 -13.5q-59 0 -91.5 36t-32.5 89z" />
<glyph unicode="&#xec;" horiz-adv-x="555" d="M141 1499h330l223 -319h-250zM147 0l185 1047h264l-184 -1047h-265z" />
<glyph unicode="&#xed;" horiz-adv-x="555" d="M147 0l185 1047h264l-184 -1047h-265zM274 1180l334 319h330l-416 -319h-248z" />
<glyph unicode="&#xee;" horiz-adv-x="555" d="M74 1180l334 319h246l221 -319h-236l-139 141l-190 -141h-236zM147 0l185 1047h264l-184 -1047h-265z" />
<glyph unicode="&#xef;" horiz-adv-x="555" d="M147 0l185 1047h264l-184 -1047h-265zM174 1315q0 37 14 68.5t38 55t52.5 37t59.5 13.5q59 0 94 -36t35 -89q0 -37 -14.5 -68.5t-38 -55t-53 -37t-62.5 -13.5q-57 0 -91 36t-34 89zM549 1315q0 37 13 68.5t36.5 55t53.5 37t62 13.5q59 0 93 -36t34 -89q0 -37 -14 -68.5 t-37.5 -55t-54.5 -37t-62 -13.5q-59 0 -91.5 36t-32.5 89z" />
<glyph unicode="&#xf0;" d="M164 391q0 111 40 210t108.5 173t161.5 117t202 43q63 0 117.5 -16.5t87.5 -45.5q-4 72 -27 128.5t-57 97.5l-138 -125l-116 137l104 96q-41 16 -86 24.5t-90 10.5l41 217q92 0 175 -17.5t155 -58.5l137 125l115 -139l-113 -102q76 -90 118 -227.5t42 -336.5 q0 -154 -36 -286.5t-106.5 -230t-177 -154t-250.5 -56.5q-94 0 -168.5 31t-128 85t-82 131t-28.5 169zM430 416q0 -78 48 -131.5t124 -53.5q49 0 93 19.5t79 54.5t55.5 83t20.5 106q0 82 -47 133t-125 51q-51 0 -96 -19.5t-79 -54.5t-53.5 -83t-19.5 -105z" />
<glyph unicode="&#xf1;" horiz-adv-x="1161" d="M147 0l185 1047h264l-18 -105q43 55 109.5 92t148.5 37q78 0 135 -25.5t96 -70.5t57.5 -105.5t18.5 -128.5q0 -31 -5 -69.5t-12 -73.5l-106 -598h-262l102 578q4 20 7 47.5t3 52.5q0 143 -133 143q-33 0 -67.5 -12t-65.5 -39t-54.5 -69t-33.5 -99l-106 -602h-263z M419 1202q20 123 85 203t192 80q51 0 92 -14.5t77 -33t68.5 -32.5t69.5 -14t66.5 19.5t40.5 66.5h120q-10 -61 -30.5 -113.5t-54 -89.5t-81 -58.5t-110.5 -21.5q-53 0 -93 14.5t-76 33t-68.5 32.5t-69.5 14t-66.5 -19.5t-40.5 -66.5h-121z" />
<glyph unicode="&#xf2;" d="M176 434q0 139 40 256t112.5 202t175 132t225.5 47q92 0 167 -32.5t126 -91t78.5 -140.5t27.5 -182q0 -145 -39.5 -265t-111.5 -205t-170 -132.5t-217 -47.5q-207 0 -310.5 118t-103.5 341zM438 473q0 -240 174 -240q55 0 101.5 26t80 72t53 109.5t19.5 139.5 q0 113 -43 174t-133 61q-53 0 -99 -26.5t-80 -72.5t-53.5 -108.5t-19.5 -134.5zM442 1499h330l223 -319h-250z" />
<glyph unicode="&#xf3;" d="M176 434q0 139 40 256t112.5 202t175 132t225.5 47q92 0 167 -32.5t126 -91t78.5 -140.5t27.5 -182q0 -145 -39.5 -265t-111.5 -205t-170 -132.5t-217 -47.5q-207 0 -310.5 118t-103.5 341zM438 473q0 -240 174 -240q55 0 101.5 26t80 72t53 109.5t19.5 139.5 q0 113 -43 174t-133 61q-53 0 -99 -26.5t-80 -72.5t-53.5 -108.5t-19.5 -134.5zM608 1180l334 319h330l-416 -319h-248z" />
<glyph unicode="&#xf4;" d="M176 434q0 139 40 256t112.5 202t175 132t225.5 47q92 0 167 -32.5t126 -91t78.5 -140.5t27.5 -182q0 -145 -39.5 -265t-111.5 -205t-170 -132.5t-217 -47.5q-207 0 -310.5 118t-103.5 341zM356 1180l334 319h246l221 -319h-236l-139 141l-190 -141h-236zM438 473 q0 -240 174 -240q55 0 101.5 26t80 72t53 109.5t19.5 139.5q0 113 -43 174t-133 61q-53 0 -99 -26.5t-80 -72.5t-53.5 -108.5t-19.5 -134.5z" />
<glyph unicode="&#xf5;" d="M176 434q0 139 40 256t112.5 202t175 132t225.5 47q92 0 167 -32.5t126 -91t78.5 -140.5t27.5 -182q0 -145 -39.5 -265t-111.5 -205t-170 -132.5t-217 -47.5q-207 0 -310.5 118t-103.5 341zM395 1202q20 123 85 203t192 80q51 0 92 -14.5t77 -33t68.5 -32.5t69.5 -14 t66.5 19.5t40.5 66.5h120q-10 -61 -30.5 -113.5t-54 -89.5t-81 -58.5t-110.5 -21.5q-53 0 -93 14.5t-76 33t-68.5 32.5t-69.5 14t-66.5 -19.5t-40.5 -66.5h-121zM438 473q0 -240 174 -240q55 0 101.5 26t80 72t53 109.5t19.5 139.5q0 113 -43 174t-133 61q-53 0 -99 -26.5 t-80 -72.5t-53.5 -108.5t-19.5 -134.5z" />
<glyph unicode="&#xf6;" d="M176 434q0 139 40 256t112.5 202t175 132t225.5 47q92 0 167 -32.5t126 -91t78.5 -140.5t27.5 -182q0 -145 -39.5 -265t-111.5 -205t-170 -132.5t-217 -47.5q-207 0 -310.5 118t-103.5 341zM438 473q0 -240 174 -240q55 0 101.5 26t80 72t53 109.5t19.5 139.5 q0 113 -43 174t-133 61q-53 0 -99 -26.5t-80 -72.5t-53.5 -108.5t-19.5 -134.5zM451 1315q0 37 14 68.5t38 55t52.5 37t59.5 13.5q59 0 94 -36t35 -89q0 -37 -14.5 -68.5t-38 -55t-53 -37t-62.5 -13.5q-57 0 -91 36t-34 89zM826 1315q0 37 13 68.5t36.5 55t53.5 37t62 13.5 q59 0 93 -36t34 -89q0 -37 -14 -68.5t-37.5 -55t-54.5 -37t-62 -13.5q-59 0 -91.5 36t-32.5 89z" />
<glyph unicode="&#xf7;" horiz-adv-x="1239" d="M281 573v258h913v-258h-913zM578 336q0 66 46 111t113 45q68 0 114 -45.5t46 -110.5q0 -66 -46 -111t-114 -45t-113.5 45t-45.5 111zM578 1069q0 66 46 111t113 45q68 0 114 -45t46 -111t-46 -111t-114 -45t-113.5 45.5t-45.5 110.5z" />
<glyph unicode="&#xf8;" d="M92 -25l146 179q-61 111 -62 280q0 139 40 256t112.5 202t175 132t225.5 47q119 0 209 -55l45 55h229l-149 -184q66 -109 65 -262q0 -145 -39.5 -265t-111.5 -205t-170 -132.5t-217 -47.5q-133 0 -225 52l-41 -52h-232zM438 438.5q0 -16.5 4 -32.5l322 395q-31 14 -74 14 q-53 0 -99 -26.5t-80 -72.5t-53.5 -108.5t-19.5 -134.5v-34.5zM543 246q30 -13 69 -13q55 0 101.5 26t80 72t53 109.5t19.5 139.5q0 16 -1 30.5t-3 28.5z" />
<glyph unicode="&#xf9;" horiz-adv-x="1161" d="M190 301q0 25 3.5 51.5t7.5 55.5l112 639h265l-103 -578q-8 -41 -10 -62.5t-2 -35.5q0 -68 34.5 -104t100.5 -36q39 0 78 10.5t71.5 34t55 61.5t33.5 91l108 619h262l-184 -1047h-262l16 98q-55 -59 -130 -91t-171 -32q-51 0 -101 19.5t-91 59.5t-67 101.5t-26 145.5z M475 1499h330l223 -319h-250z" />
<glyph unicode="&#xfa;" horiz-adv-x="1161" d="M190 301q0 25 3.5 51.5t7.5 55.5l112 639h265l-103 -578q-8 -41 -10 -62.5t-2 -35.5q0 -68 34.5 -104t100.5 -36q39 0 78 10.5t71.5 34t55 61.5t33.5 91l108 619h262l-184 -1047h-262l16 98q-55 -59 -130 -91t-171 -32q-51 0 -101 19.5t-91 59.5t-67 101.5t-26 145.5z M620 1180l334 319h330l-416 -319h-248z" />
<glyph unicode="&#xfb;" horiz-adv-x="1161" d="M190 301q0 25 3.5 51.5t7.5 55.5l112 639h265l-103 -578q-8 -41 -10 -62.5t-2 -35.5q0 -68 34.5 -104t100.5 -36q39 0 78 10.5t71.5 34t55 61.5t33.5 91l108 619h262l-184 -1047h-262l16 98q-55 -59 -130 -91t-171 -32q-51 0 -101 19.5t-91 59.5t-67 101.5t-26 145.5z M369 1180l334 319h246l221 -319h-236l-139 141l-190 -141h-236z" />
<glyph unicode="&#xfc;" horiz-adv-x="1161" d="M190 301q0 25 3.5 51.5t7.5 55.5l112 639h265l-103 -578q-8 -41 -10 -62.5t-2 -35.5q0 -68 34.5 -104t100.5 -36q39 0 78 10.5t71.5 34t55 61.5t33.5 91l108 619h262l-184 -1047h-262l16 98q-55 -59 -130 -91t-171 -32q-51 0 -101 19.5t-91 59.5t-67 101.5t-26 145.5z M463 1315q0 37 14 68.5t38 55t52.5 37t59.5 13.5q59 0 94 -36t35 -89q0 -37 -14.5 -68.5t-38 -55t-53 -37t-62.5 -13.5q-57 0 -91 36t-34 89zM838 1315q0 37 13 68.5t36.5 55t53.5 37t62 13.5q59 0 93 -36t34 -89q0 -37 -14 -68.5t-37.5 -55t-54.5 -37t-62 -13.5 q-59 0 -91.5 36t-32.5 89z" />
<glyph unicode="&#xfd;" d="M203 -397l227 417l-197 1027h263l112 -605q4 -23 8.5 -49t6.5 -47q10 27 21 50.5t24 45.5l327 605h285l-788 -1444h-289zM614 1180l334 319h330l-416 -319h-248z" />
<glyph unicode="&#xfe;" horiz-adv-x="1132" d="M74 -410l317 1801l281 88l-94 -516q43 49 102 78.5t137 29.5q68 0 128.5 -29.5t105.5 -86t71.5 -138.5t26.5 -184q0 -162 -44 -285t-115.5 -206t-164 -125t-188.5 -42q-147 0 -213 101l-70 -398zM465 317q14 -31 51 -58.5t109 -27.5q121 0 191.5 102.5t70.5 270.5 q0 94 -41 152.5t-127 58.5q-51 0 -104.5 -27.5t-79.5 -68.5z" />
<glyph unicode="&#xff;" d="M203 -397l227 417l-197 1027h263l112 -605q4 -23 8.5 -49t6.5 -47q10 27 21 50.5t24 45.5l327 605h285l-788 -1444h-289zM475 1315q0 37 14 68.5t38 55t52.5 37t59.5 13.5q59 0 94 -36t35 -89q0 -37 -14.5 -68.5t-38 -55t-53 -37t-62.5 -13.5q-57 0 -91 36t-34 89z M850 1315q0 37 13 68.5t36.5 55t53.5 37t62 13.5q59 0 93 -36t34 -89q0 -37 -14 -68.5t-37.5 -55t-54.5 -37t-62 -13.5q-59 0 -91.5 36t-32.5 89z" />
<glyph unicode="&#x152;" horiz-adv-x="1878" d="M240 582q0 145 42 300.5t129 283.5t222 210t323 82q47 0 91.5 -7t85.5 -17h858l-45 -263h-596l-54 -301h318l-47 -262h-318l-59 -346h637l-47 -262h-826q-45 -10 -94 -17.5t-100 -7.5q-147 0 -246.5 55.5t-161 142.5t-87 194.5t-25.5 214.5zM520 610q0 -68 14.5 -134 t47 -118.5t85 -84t128.5 -31.5q66 0 120 24l158 881q-63 45 -147 45q-98 0 -173 -50t-127.5 -133t-79 -187.5t-26.5 -211.5z" />
<glyph unicode="&#x153;" horiz-adv-x="1771" d="M176 426q0 141 42 260t115 205t173 133t217 47q215 0 317 -141q70 66 156 103.5t190 37.5q193 0 303.5 -105.5t110.5 -293.5q0 -63 -7 -129t-28 -123h-667v-21q0 -47 16 -81.5t44 -59.5t65 -37t75 -12q63 0 127 30.5t109 77.5l129 -165q-78 -80 -178.5 -128.5 t-241.5 -48.5q-96 0 -173 37t-130 105q-72 -68 -164 -105t-196 -37q-199 0 -301.5 117t-102.5 334zM438 473q0 -242 164 -242q57 0 106.5 27t84 73t54 109.5t19.5 139.5q0 113 -42 174t-119 61q-59 0 -108.5 -26.5t-84.5 -72.5t-54.5 -108.5t-19.5 -134.5zM1137 645h413 q0 33 -6 57q-16 72 -61 104t-109 32q-90 0 -151.5 -47.5t-85.5 -145.5z" />
<glyph unicode="&#x178;" horiz-adv-x="1400" d="M307 1434h291l238 -586l442 586h315l-653 -863l-100 -571h-281l103 578zM660 1704q0 37 14 68.5t38 55t52.5 37t59.5 13.5q59 0 94 -36t35 -89q0 -37 -14.5 -68.5t-38 -55t-53 -37t-62.5 -13.5q-57 0 -91 36t-34 89zM1035 1704q0 37 13 68.5t36.5 55t53.5 37t62 13.5 q59 0 93 -36t34 -89q0 -37 -14 -68.5t-37.5 -55t-54.5 -37t-62 -13.5q-59 0 -91.5 36t-32.5 89z" />
<glyph unicode="&#x2c6;" horiz-adv-x="933" d="M342 1180l334 319h246l221 -319h-236l-139 141l-190 -141h-236z" />
<glyph unicode="&#x2dc;" horiz-adv-x="933" d="M360 1202q20 123 85 203t192 80q51 0 92 -14.5t77 -33t68.5 -32.5t69.5 -14t66.5 19.5t40.5 66.5h120q-10 -61 -30.5 -113.5t-54 -89.5t-81 -58.5t-110.5 -21.5q-53 0 -93 14.5t-76 33t-68.5 32.5t-69.5 14t-66.5 -19.5t-40.5 -66.5h-121z" />
<glyph unicode="&#x2000;" horiz-adv-x="944" />
<glyph unicode="&#x2001;" horiz-adv-x="1888" />
<glyph unicode="&#x2002;" horiz-adv-x="944" />
<glyph unicode="&#x2003;" horiz-adv-x="1888" />
<glyph unicode="&#x2004;" horiz-adv-x="629" />
<glyph unicode="&#x2005;" horiz-adv-x="472" />
<glyph unicode="&#x2006;" horiz-adv-x="314" />
<glyph unicode="&#x2007;" horiz-adv-x="314" />
<glyph unicode="&#x2008;" horiz-adv-x="236" />
<glyph unicode="&#x2009;" horiz-adv-x="377" />
<glyph unicode="&#x200a;" horiz-adv-x="104" />
<glyph unicode="&#x2010;" horiz-adv-x="811" d="M231 477l45 256h517l-45 -256h-517z" />
<glyph unicode="&#x2011;" horiz-adv-x="811" d="M231 477l45 256h517l-45 -256h-517z" />
<glyph unicode="&#x2012;" horiz-adv-x="811" d="M231 477l45 256h517l-45 -256h-517z" />
<glyph unicode="&#x2013;" horiz-adv-x="972" d="M182 471l41 234h776l-41 -234h-776z" />
<glyph unicode="&#x2014;" horiz-adv-x="1130" d="M74 471l41 234h1151l-41 -234h-1151z" />
<glyph unicode="&#x2018;" horiz-adv-x="485" d="M250 1012q0 66 26.5 130t71.5 122.5t101.5 108.5t117.5 85l92 -84q-16 -12 -37.5 -33.5t-45 -48t-45 -54.5t-33.5 -52q39 -14 63.5 -48t24.5 -83q0 -43 -15.5 -79t-42 -62.5t-62.5 -42t-75 -15.5q-59 0 -100 41t-41 115z" />
<glyph unicode="&#x2019;" horiz-adv-x="485" d="M236 940q14 12 36.5 33.5t46 48.5t45 54.5t33.5 51.5q-39 14 -63.5 48t-24.5 84q0 43 15.5 78.5t42 62t62.5 42t75 15.5q59 0 100 -41t41 -114q0 -66 -26.5 -130.5t-71.5 -123t-101.5 -108.5t-117.5 -85z" />
<glyph unicode="&#x201a;" horiz-adv-x="485" d="M33 -205q14 12 36.5 35t46 48.5t45 54t34.5 53.5q-39 14 -64 48t-25 83q0 45 15.5 80.5t41 61.5t58.5 40t68 14q68 0 110.5 -41t42.5 -114q0 -66 -26.5 -130.5t-71.5 -123t-101.5 -108.5t-117.5 -85z" />
<glyph unicode="&#x201c;" horiz-adv-x="956" d="M250 1012q0 66 26.5 130t71.5 122.5t101.5 108.5t117.5 85l92 -84q-16 -12 -37.5 -33.5t-45 -48t-45 -54.5t-33.5 -52q39 -14 63.5 -48t24.5 -83q0 -43 -15.5 -79t-42 -62.5t-62.5 -42t-75 -15.5q-59 0 -100 41t-41 115zM719 1012q0 66 26.5 130t71.5 122.5t102.5 108.5 t116.5 85l92 -84q-16 -12 -37.5 -33.5t-45 -48t-44 -54.5t-32.5 -52q37 -14 61.5 -48t24.5 -83q0 -45 -17.5 -82t-45 -62.5t-62.5 -40t-72 -14.5q-59 0 -99 41t-40 115z" />
<glyph unicode="&#x201d;" horiz-adv-x="956" d="M236 940q14 12 36.5 33.5t46 48.5t45 54.5t33.5 51.5q-39 14 -63.5 48t-24.5 84q0 43 15.5 78.5t42 62t62.5 42t75 15.5q59 0 100 -41t41 -114q0 -66 -26.5 -130.5t-71.5 -123t-101.5 -108.5t-117.5 -85zM707 940q14 12 36.5 33.5t46 48.5t45 54.5t33.5 51.5 q-39 14 -63.5 48t-24.5 84q0 43 15.5 78.5t42 62t62.5 42t75 15.5q59 0 100 -41t41 -114q0 -66 -26.5 -130.5t-71.5 -123t-101.5 -108.5t-117.5 -85z" />
<glyph unicode="&#x201e;" horiz-adv-x="956" d="M33 -205q14 12 36.5 35t46 48.5t45 54t34.5 53.5q-39 14 -64 48t-25 83q0 45 15.5 80.5t41 61.5t58.5 40t68 14q68 0 110.5 -41t42.5 -114q0 -66 -26.5 -130.5t-71.5 -123t-101.5 -108.5t-117.5 -85zM502 -205q14 12 36.5 35t46 48.5t45 54t34.5 53.5q-39 14 -64 48 t-25 83q0 45 15.5 80.5t41 61.5t58.5 40t68 14q68 0 110.5 -41t42.5 -114q0 -66 -26.5 -130.5t-71.5 -123t-101.5 -108.5t-117.5 -85z" />
<glyph unicode="&#x2022;" horiz-adv-x="827" d="M240 672q0 70 28.5 133t76.5 109.5t111.5 74t133.5 27.5q55 0 102 -20.5t80 -55.5t51.5 -81t18.5 -97q0 -72 -29 -134.5t-78 -108.5t-112.5 -72.5t-133.5 -26.5q-55 0 -101 19.5t-79 54t-51 79.5t-18 99z" />
<glyph unicode="&#x2026;" horiz-adv-x="2058" d="M199 117q0 41 16 76.5t44 62.5t63.5 42t74.5 15q63 0 102.5 -42t39.5 -101q0 -41 -16.5 -77t-44 -61.5t-64.5 -41t-76 -15.5q-63 0 -101 41t-38 101zM885 117q0 41 16.5 76.5t44 62.5t63 42t74.5 15q63 0 102.5 -42t39.5 -101q0 -41 -16.5 -77t-44 -61.5t-64.5 -41 t-76 -15.5q-63 0 -101 41t-38 101zM1571 117q0 41 16.5 76.5t44 62.5t63.5 42t74 15q63 0 102.5 -42t39.5 -101q0 -41 -16.5 -77t-44 -61.5t-64.5 -41t-76 -15.5q-63 0 -101 41t-38 101z" />
<glyph unicode="&#x202f;" horiz-adv-x="377" />
<glyph unicode="&#x2039;" horiz-adv-x="663" d="M152 524l391 523h284l-399 -529l201 -518h-271z" />
<glyph unicode="&#x203a;" horiz-adv-x="663" d="M27 0l399 532l-203 515h266l207 -523l-391 -524h-278z" />
<glyph unicode="&#x205f;" horiz-adv-x="472" />
<glyph unicode="&#x20ac;" horiz-adv-x="1255" d="M154 444l118 197h72q6 57 18 123h-151l119 199h88q35 94 87 183t127 158.5t172 111.5t222 42q92 0 178 -29.5t174 -107.5l-133 -236q-47 51 -107.5 84t-140.5 33q-51 0 -95 -18.5t-82 -51t-67.5 -75.5t-54.5 -94l480 2l-115 -201h-432q-16 -68 -23 -123h387l-112 -201 l-277 2q4 -37 14.5 -73.5t32 -67.5t55 -50.5t83.5 -19.5q68 0 130 38t117 108l183 -131q-92 -131 -199 -201t-244 -70q-92 0 -169 27t-134 83t-92 145t-43 212z" />
<glyph unicode="&#x2122;" horiz-adv-x="1660" d="M137 1251v183h631v-183h-215v-682h-199v682h-217zM819 569v865h242l172 -398l18 -51l19 51l172 398h241v-865h-198v531l-19 -56l-213 -491l-215 491l-20 62v-537h-199z" />
<glyph unicode="&#x25fc;" horiz-adv-x="1044" d="M0 0v1044h1044v-1044h-1044z" />
</font>
</defs>
</svg>
