<?xml version="1.0" standalone="no"?>
<!DOCTYPE svg PUBLIC "-//W3C//DTD SVG 1.1//EN" "http://www.w3.org/Graphics/SVG/1.1/DTD/svg11.dtd" >
<svg xmlns="http://www.w3.org/2000/svg">
<metadata></metadata>
<defs>
<font id="overpassextralight_italic" horiz-adv-x="1306" >
<font-face units-per-em="2048" ascent="1536" descent="-512" />
<missing-glyph horiz-adv-x="471" />
<glyph unicode="&#xfb01;" horiz-adv-x="1021" d="M207 0l172 979h-164l12 68h164l33 188q20 111 74.5 167t152.5 56q37 0 69 -9t54 -24l-12 -65q-25 12 -51.5 21.5t-63.5 9.5q-70 0 -102.5 -39t-46.5 -125l-31 -180h242l-13 -68h-241l-172 -979h-76zM731 0l184 1047h74l-182 -1047h-76zM942 1327q0 29 18.5 50.5 t51.5 21.5q25 0 37 -15.5t12 -37.5q0 -29 -18.5 -49.5t-51.5 -20.5q-23 0 -36 14.5t-13 36.5z" />
<glyph unicode="&#xfb02;" horiz-adv-x="1009" d="M207 0l172 979h-164l12 68h164l33 188q20 111 74.5 167t152.5 56q37 0 69 -9t54 -24l-12 -65q-25 12 -51.5 21.5t-63.5 9.5q-70 0 -102.5 -39t-46.5 -125l-31 -180h242l-13 -68h-241l-172 -979h-76zM727 0l254 1442l80 37l-258 -1479h-76z" />
<glyph horiz-adv-x="0" />
<glyph horiz-adv-x="682" />
<glyph unicode=" "  horiz-adv-x="471" />
<glyph unicode="&#x09;" horiz-adv-x="471" />
<glyph unicode="&#xa0;" horiz-adv-x="471" />
<glyph unicode="!" horiz-adv-x="503" d="M201 25q0 29 20.5 49t48.5 20q23 0 37.5 -16.5t14.5 -38.5q0 -29 -20.5 -48.5t-49.5 -19.5q-23 0 -37 15.5t-14 38.5zM301 395l45 547l90 516h80l-90 -516l-104 -547h-21z" />
<glyph unicode="&#x22;" horiz-adv-x="700" d="M254 887l96 547h78l-96 -547h-78zM598 887l96 547h78l-96 -547h-78z" />
<glyph unicode="#" horiz-adv-x="1353" d="M178 446l23 74h245l127 416h-247l22 74h246l127 424h78l-127 -424h383l127 424h86l-127 -424h241l-20 -74h-242l-127 -416h244l-23 -74h-241l-133 -446h-86l133 446h-383l-133 -446h-80l135 446h-248zM524 520h383l127 416h-383z" />
<glyph unicode="$" horiz-adv-x="1163" d="M170 279l76 24q35 -123 112.5 -188.5t219.5 -65.5q80 0 152.5 23.5t125.5 68.5t85 110.5t32 151.5q0 61 -23.5 112.5t-62.5 92.5t-90.5 72t-106.5 55q-61 25 -120.5 56.5t-106.5 73.5t-76 97.5t-29 129.5q0 76 28 140t82 113.5t132 79t178 33.5l29 158h74l-29 -162 q117 -10 187.5 -71.5t93.5 -161.5l-74 -23q-23 90 -84.5 139t-177.5 49q-80 0 -146.5 -20t-115 -57t-74 -90.5t-25.5 -116.5q0 -59 25.5 -103.5t66.5 -78t95.5 -61.5t109.5 -52q55 -25 112.5 -58.5t103.5 -79.5t75 -107.5t29 -143.5q0 -100 -34 -180t-95.5 -137.5 t-146.5 -89t-185 -34.5l-31 -178h-74l31 178q-74 6 -132 33t-101 68t-72 92t-43 109z" />
<glyph unicode="%" horiz-adv-x="1771" d="M281 1020q0 66 21.5 142.5t67.5 142t117.5 109.5t171.5 44q72 0 122 -26.5t81 -69.5t44.5 -95.5t13.5 -103.5q0 -72 -20.5 -147.5t-66 -140t-117 -105.5t-171.5 -41q-72 0 -121 24.5t-82 65.5t-47 93.5t-14 107.5zM328 -25l1239 1483h88l-1239 -1483h-88zM360 1030 q0 -43 10.5 -83t33 -72.5t58.5 -52t89 -19.5q76 0 131 33.5t90 85t52.5 113t17.5 118.5q0 39 -9.5 81t-32 74.5t-58 54t-89.5 21.5q-78 0 -133 -34.5t-90 -88t-52.5 -116t-17.5 -115.5zM1061 266q0 66 21.5 142.5t66.5 142t116.5 110t172.5 44.5q72 0 122 -27t80.5 -70 t44 -95t13.5 -103q0 -72 -20.5 -148t-65.5 -140.5t-116 -105.5t-171 -41q-72 0 -122 25t-81.5 65.5t-46 93t-14.5 107.5zM1141 276q0 -43 10 -82.5t31.5 -72.5t57.5 -52.5t89 -19.5q76 0 131.5 34t90 85t52 112.5t17.5 118.5q0 39 -9 81t-32 75t-58.5 54.5t-88.5 21.5 q-78 0 -132.5 -35t-90 -88t-52 -115.5t-16.5 -116.5z" />
<glyph unicode="&#x26;" horiz-adv-x="1282" d="M133 285q0 92 34 165.5t94.5 135t141 114t175.5 101.5q-72 111 -104 188.5t-32 140.5q0 76 27 136.5t74 103.5t110.5 65.5t134.5 22.5q55 0 104.5 -18.5t86.5 -51t57.5 -79.5t20.5 -105q0 -129 -93.5 -226t-277.5 -194l293 -436q53 72 91 151t63 154h77 q-23 -86 -69.5 -181t-118.5 -185l192 -287h-106l-145 219q-98 -104 -225.5 -174t-276.5 -70q-154 0 -241 83t-87 227zM211 297q0 -119 72.5 -183.5t189.5 -64.5q135 0 248 64.5t203 165.5l-312 466q-188 -96 -294.5 -200.5t-106.5 -247.5zM524 1143q0 -66 34 -140.5 t93 -164.5q158 80 241 161.5t83 196.5q0 86 -53.5 137t-139.5 51q-57 0 -105 -18t-82 -50t-52.5 -77t-18.5 -96z" />
<glyph unicode="'" horiz-adv-x="356" d="M254 887l96 547h78l-96 -547h-78z" />
<glyph unicode="(" horiz-adv-x="647" d="M246 338q0 197 41 366.5t105.5 311t146.5 252t161 190.5h74q-39 -41 -113.5 -135t-148.5 -235.5t-129 -328t-55 -407.5q0 -125 14 -227t33.5 -181t40 -132.5t33.5 -77.5h-74q-53 96 -91 246.5t-38 357.5z" />
<glyph unicode=")" horiz-adv-x="647" d="M63 -266q35 39 105 127t140.5 223t122.5 317.5t52 411.5q0 123 -15 229.5t-37.5 190.5t-46.5 141.5t-40 83.5h74q59 -104 102 -265t43 -370q0 -201 -38 -365.5t-98 -298.5t-136 -238.5t-154 -186.5h-74z" />
<glyph unicode="*" horiz-adv-x="1032" d="M256 1114l39 72l188 -66l160 -92l8 191l37 215h82l-37 -215l-61 -191l196 94l209 66l15 -78l-207 -66l-211 -40l121 -150l100 -174l-74 -49l-96 174l-72 184l-135 -184l-153 -170l-58 49l150 170l180 150l-195 45z" />
<glyph unicode="+" horiz-adv-x="1302" d="M272 664v73h441v447h78v-447h444v-73h-444v-443h-78v443h-441z" />
<glyph unicode="," horiz-adv-x="372" d="M80 -283q37 41 67.5 105.5t40.5 122.5q2 10 2 26q-23 0 -39 14.5t-16 39.5q0 29 18.5 49t49.5 20q23 0 40 -16.5t17 -54.5q0 -43 -15.5 -89.5t-40 -88.5t-53 -77.5t-53.5 -56.5z" />
<glyph unicode="-" horiz-adv-x="776" d="M238 573l12 74h457l-13 -74h-456z" />
<glyph unicode="." horiz-adv-x="372" d="M129 25q2 29 23.5 49t50.5 20q23 0 36 -16.5t13 -38.5q-2 -29 -23.5 -48.5t-50.5 -19.5q-23 0 -36 15.5t-13 38.5z" />
<glyph unicode="/" horiz-adv-x="946" d="M-61 -266l1103 1724h82l-1106 -1724h-79z" />
<glyph unicode="0" horiz-adv-x="1220" d="M233 508q0 72 11.5 170t39 204.5t71.5 209t109.5 184.5t155 132t205.5 50q98 0 165 -46t108 -120.5t59.5 -171t18.5 -196.5q0 -80 -12.5 -180.5t-41 -206t-73.5 -207t-111 -180t-152.5 -127t-197.5 -48.5q-102 0 -171 47.5t-110 124t-57.5 171t-16.5 190.5zM313 508 q0 -86 14.5 -169t47.5 -147.5t87 -103.5t134 -39q92 0 166 45t129 118t94 166t63.5 190.5t36 190.5t11.5 165q0 86 -13.5 169t-46 147.5t-87 104t-136.5 39.5q-94 0 -167 -45t-129 -119.5t-95 -169t-62.5 -191.5t-35 -189t-11.5 -162z" />
<glyph unicode="1" horiz-adv-x="634" d="M285 1192l6 49q68 0 114 7t77.5 27.5t56 58.5t49.5 100h49l-254 -1434h-74l211 1192h-235z" />
<glyph unicode="2" horiz-adv-x="1179" d="M129 0q20 121 63.5 207t105.5 152.5t142 119.5t176 109q86 49 170 101t151 115.5t107.5 142.5t40.5 181q0 115 -69.5 185.5t-202.5 70.5q-137 0 -236.5 -73.5t-152.5 -192.5l-64 33q29 66 74 122t103.5 97t129 64.5t148.5 23.5q170 0 260 -92t90 -238q0 -117 -46 -204.5 t-120.5 -158.5t-167 -128t-184.5 -111q-92 -53 -162.5 -102t-122 -101.5t-85 -112.5t-54.5 -136h772l-14 -74h-852z" />
<glyph unicode="3" horiz-adv-x="1159" d="M129 285l72 26q33 -127 121 -194.5t221 -67.5q86 0 162.5 24.5t134 74t91.5 122t34 168.5q0 125 -72 198t-231 73h-64l12 71h45q78 0 146.5 25.5t120 74t81 115t29.5 150.5q0 111 -68.5 175t-185.5 64q-68 0 -125 -20.5t-104 -53t-83 -72.5t-60 -77l-66 29q31 49 76 97 t101 86t125 61.5t146 23.5q72 0 132.5 -22.5t103.5 -62.5t66.5 -96t23.5 -124q0 -59 -18.5 -119.5t-56.5 -115t-95 -99.5t-137 -71q115 -29 174 -108t59 -198q0 -109 -38.5 -195.5t-105.5 -147t-158 -92.5t-195 -32q-92 0 -164 26t-122 69t-82 98t-46 117z" />
<glyph unicode="4" horiz-adv-x="1153" d="M131 418l8 43l897 973h35l-166 -949h211l-14 -67h-211l-74 -418h-76l74 418h-684zM250 485h579l136 785z" />
<glyph unicode="5" horiz-adv-x="1236" d="M164 162l59 61q18 -29 49 -58.5t74 -56t100.5 -43t128.5 -16.5q121 0 211.5 42t149.5 110.5t89 155.5t30 175q0 143 -85 231.5t-231 88.5q-119 0 -211 -48t-157 -114l-60 17l244 727h645l-12 -74h-580l-184 -549q66 53 148.5 84t179.5 31q86 0 156.5 -29t119.5 -80 t77 -121.5t28 -154.5q0 -104 -35 -206t-104.5 -181.5t-174.5 -129t-244 -49.5q-78 0 -144 18.5t-118.5 46.5t-90.5 60.5t-58 61.5z" />
<glyph unicode="6" horiz-adv-x="1150" d="M174 369q0 182 65.5 352t181.5 312.5t273.5 253t339.5 171.5l-20 -76q-121 -41 -231.5 -113.5t-204 -166.5t-164 -205t-111.5 -227q76 102 177.5 151t207.5 49q86 0 152.5 -28.5t110.5 -78.5t67.5 -119t23.5 -148q0 -106 -38.5 -201.5t-107.5 -166.5t-162 -112t-202 -41 q-96 0 -164.5 34t-111.5 89.5t-62.5 126t-19.5 144.5zM250 356q0 -139 75.5 -223t211.5 -84q88 0 165.5 35t136 96.5t91.5 142t33 173.5q0 135 -74 218t-211 83q-88 0 -166 -36t-136.5 -95.5t-92 -140.5t-33.5 -169z" />
<glyph unicode="7" horiz-adv-x="972" d="M291 1360l14 74h797l-10 -64q-182 -176 -305 -361.5t-203 -363.5t-124 -343t-69 -302h-80q33 174 84 345t133 341t199 338t283 336h-719z" />
<glyph unicode="8" horiz-adv-x="1175" d="M195 330q0 82 27.5 156.5t77.5 136t118.5 106.5t148.5 66q-45 14 -78.5 40.5t-57 61.5t-35 75t-11.5 81q0 82 32 155.5t88 129t135 88t173 32.5q74 0 131 -23.5t97 -64.5t60.5 -97t20.5 -122q0 -59 -18.5 -115.5t-56 -105.5t-94 -87t-130.5 -57q115 -33 176.5 -120.5 t61.5 -206.5q0 -104 -38 -192.5t-103.5 -153t-154.5 -101.5t-194 -37q-88 0 -157.5 27t-118.5 75t-74.5 112.5t-25.5 140.5zM276 332q0 -131 82 -207t213 -76q82 0 157 27.5t131 80t89 127t33 167.5q0 63 -19.5 118.5t-57.5 96.5t-92 65.5t-122 24.5q-88 0 -163.5 -35 t-131 -93.5t-87.5 -135t-32 -160.5zM463 1053q0 -104 63.5 -168t180.5 -64q74 0 136 24.5t107 68.5t71 104.5t26 132.5q0 111 -68 172t-176 61q-68 0 -130.5 -23.5t-108.5 -66.5t-73.5 -104.5t-27.5 -136.5z" />
<glyph unicode="9" horiz-adv-x="1150" d="M276 965q0 104 38 194t104.5 156.5t157.5 104.5t200 38q90 0 159 -30.5t115 -83t69.5 -122t23.5 -145.5q0 -174 -63.5 -349t-173 -324.5t-258 -263t-318.5 -165.5l12 74q119 37 225.5 112t194.5 173t152.5 215t101.5 237q-72 -86 -169 -141t-216 -55q-90 0 -155.5 29.5 t-111 81t-67 120t-21.5 144.5zM358 965q0 -131 73 -216t204 -85q90 0 169 32.5t136 88t90 131t33 161.5q0 66 -20.5 122t-57.5 97t-90 64.5t-119 23.5q-88 0 -164.5 -31.5t-133 -89t-88.5 -134t-32 -164.5z" />
<glyph unicode=":" horiz-adv-x="372" d="M111 25q2 29 23.5 49t49.5 20q23 0 36 -16.5t13 -38.5q-2 -29 -23 -48.5t-50 -19.5q-23 0 -36 15.5t-13 38.5zM268 920q2 29 23.5 49t50.5 20q23 0 36 -16.5t13 -38.5q-2 -29 -23.5 -48.5t-50.5 -19.5q-23 0 -36 15.5t-13 38.5z" />
<glyph unicode=";" horiz-adv-x="372" d="M57 -283q37 41 68 105.5t41 122.5q2 10 2 26q-23 0 -39 14.5t-16 39.5q0 29 18.5 49t48.5 20q23 0 40.5 -16.5t17.5 -54.5q0 -43 -15.5 -89.5t-40 -88.5t-53.5 -77.5t-53 -56.5zM268 920q2 29 23.5 49t50.5 20q23 0 36 -16.5t13 -38.5q-2 -29 -23.5 -48.5t-50.5 -19.5 q-23 0 -36 15.5t-13 38.5z" />
<glyph unicode="&#x3c;" horiz-adv-x="1302" d="M272 664v77l963 418v-84l-866 -373l866 -372v-84z" />
<glyph unicode="=" horiz-adv-x="1302" d="M272 469v74h963v-74h-963zM272 858v74h963v-74h-963z" />
<glyph unicode="&#x3e;" horiz-adv-x="1302" d="M272 246v84l867 372l-867 373v84l963 -418v-77z" />
<glyph unicode="?" horiz-adv-x="1028" d="M287 1167q70 141 189.5 216t266.5 75q168 0 256 -90t88 -227q0 -90 -33.5 -156.5t-84.5 -122t-113.5 -103.5t-120 -101.5t-101.5 -118t-61 -150.5l-12 -70h-78l13 70q18 96 63 166t101.5 125t118 102t112.5 98.5t84 113t33 145.5q0 104 -68 174.5t-205 70.5 q-133 0 -229 -62t-154 -185zM410 25q2 29 23.5 49t49.5 20q23 0 36 -16.5t13 -38.5q-2 -29 -23 -48.5t-50 -19.5q-23 0 -36 15.5t-13 38.5z" />
<glyph unicode="@" horiz-adv-x="1587" d="M193 592q0 190 71.5 350t189 274.5t267 178t305.5 63.5q135 0 242.5 -39t182.5 -109.5t116 -169t41 -214.5q0 -123 -34 -232.5t-89 -190.5t-126 -128t-145 -47q-66 0 -104.5 36.5t-38.5 106.5q-63 -90 -142 -126t-151 -36q-117 0 -183.5 78t-66.5 213q0 88 30 175 t85 155.5t134 110.5t175 42q55 0 95 -18t68 -47t42 -68t19 -78l57 185h72l-131 -420q-14 -41 -22.5 -82t-8.5 -66q0 -98 80 -98q57 0 112.5 44t98.5 119t68.5 171t25.5 201q0 102 -36 186t-101.5 144.5t-157.5 94t-207 33.5q-147 0 -283.5 -60t-241 -166.5t-167 -252 t-62.5 -313.5q0 -115 35 -214t101.5 -172t164 -115t224.5 -42q70 0 139.5 6t128.5 21l-27 -74q-57 -14 -118.5 -20.5t-122.5 -6.5q-131 0 -242 42t-191.5 122t-125.5 195t-45 258zM606 606q0 -104 51.5 -164.5t139.5 -60.5q70 0 131 35t106 91t72 129t27 146 q0 104 -50.5 167t-136.5 63q-80 0 -142.5 -35t-106.5 -92.5t-67.5 -130t-23.5 -148.5z" />
<glyph unicode="A" d="M119 0l727 1434h53l231 -1434h-75l-68 403h-581l-205 -403h-82zM434 465h545l-94 616q-2 12 -7.5 41t-10.5 63t-10 68.5t-7 57.5q-10 -25 -25.5 -59.5t-32 -69.5t-29.5 -62.5t-18 -38.5z" />
<glyph unicode="B" horiz-adv-x="1253" d="M178 0l252 1434h420q98 0 164.5 -24t107.5 -65.5t58.5 -97t17.5 -117.5q0 -74 -26.5 -138t-72.5 -114.5t-110.5 -85t-140.5 -47.5q127 -10 204.5 -93t77.5 -222q0 -70 -24.5 -145.5t-80.5 -139t-150.5 -104.5t-233.5 -41h-463zM264 66h385q113 0 191 32.5t125 85 t68.5 117t21.5 129.5q0 59 -16.5 110.5t-56.5 89.5t-106.5 59.5t-166.5 21.5h-330zM391 776h299q100 0 181 26.5t138.5 75t87 113t29.5 139.5q0 47 -13 90.5t-45 76t-86 52t-136 19.5h-350z" />
<glyph unicode="C" horiz-adv-x="1269" d="M236 545q0 168 46 331.5t133 292.5t215 209t292 80q84 0 144 -19.5t102 -52t71 -74.5t49 -85l-69 -37q-20 43 -45 78t-60 61.5t-82 40.5t-112 14q-145 0 -257 -73.5t-189 -192.5t-117 -268.5t-40 -302.5q0 -98 19.5 -188.5t62.5 -159t112 -109.5t167 -41q70 0 129 19.5 t107.5 50.5t85 69.5t63.5 79.5l70 -30q-31 -49 -74 -96.5t-99.5 -84.5t-128 -59.5t-161.5 -22.5q-119 0 -201 47.5t-134 127t-75.5 182t-23.5 213.5z" />
<glyph unicode="D" horiz-adv-x="1320" d="M178 0l252 1434h307q147 0 247.5 -48.5t163 -128t89.5 -182t27 -211.5q0 -168 -49.5 -323.5t-147.5 -275.5t-245.5 -192.5t-344.5 -72.5h-299zM268 74h224q162 0 289.5 61.5t215.5 169t135.5 251.5t47.5 308q0 96 -22.5 186.5t-76 159t-141.5 109.5t-217 41h-231z" />
<glyph unicode="E" horiz-adv-x="1150" d="M178 0l252 1434h731l-10 -68h-655l-105 -590h436l-12 -67h-436l-113 -641h701l-13 -68h-776z" />
<glyph unicode="F" horiz-adv-x="1085" d="M178 0l252 1434h752l-11 -68h-675l-105 -590h451l-13 -67h-450l-125 -709h-76z" />
<glyph unicode="G" horiz-adv-x="1353" d="M236 543q0 168 44 331.5t130 293.5t215 210t301 80q76 0 133 -17.5t100 -45t73 -62.5t50 -71l-74 -43q-35 66 -103.5 115.5t-186.5 49.5q-104 0 -190.5 -36.5t-153 -100t-115.5 -147.5t-81 -176.5t-47.5 -188.5t-15.5 -184q0 -100 20.5 -191.5t63.5 -160t112 -109.5 t167 -41q174 0 294 123t167 379l4 24h-291l10 72h371l-12 -72q-29 -160 -81.5 -273.5t-124 -186t-158.5 -106.5t-183 -34q-119 0 -203 47.5t-136 125t-75.5 181t-23.5 214.5z" />
<glyph unicode="H" horiz-adv-x="1327" d="M178 0l252 1434h76l-113 -654h746l112 654h76l-252 -1434h-76l125 711h-745l-125 -711h-76z" />
<glyph unicode="I" horiz-adv-x="483" d="M178 0l252 1434h76l-252 -1434h-76z" />
<glyph unicode="J" horiz-adv-x="1048" d="M80 219l67 33q12 -43 32 -80t51.5 -65.5t76.5 -45t111 -16.5q61 0 122.5 18.5t116 64.5t95.5 126t63 203l170 977h78l-170 -973q-27 -147 -77 -241.5t-114.5 -149t-138 -75t-145.5 -20.5q-74 0 -130.5 19.5t-98.5 52.5t-68.5 78t-40.5 94z" />
<glyph unicode="K" horiz-adv-x="1226" d="M178 0l252 1434h76l-137 -781l739 781h88l-461 -486l336 -948h-78l-315 889l-330 -348l-94 -541h-76z" />
<glyph unicode="L" horiz-adv-x="1046" d="M178 0l252 1434h76l-240 -1366h692l-12 -68h-768z" />
<glyph unicode="M" horiz-adv-x="1593" d="M176 0l252 1434h68l288 -1262l732 1262h71l-252 -1434h-75l213 1217l-717 -1242l-289 1246l-215 -1221h-76z" />
<glyph unicode="N" horiz-adv-x="1353" d="M176 0l252 1434h72l553 -1293l227 1293h76l-252 -1434h-72l-553 1292l-227 -1292h-76z" />
<glyph unicode="O" horiz-adv-x="1425" d="M236 553q0 98 17 202.5t54 206t92.5 191.5t132 157.5t175 107.5t219.5 40q123 0 205.5 -47t135 -126t75 -181.5t22.5 -212.5q0 -98 -17.5 -204.5t-52 -209t-90 -193.5t-131.5 -160t-173 -109t-218 -40t-206 49.5t-138 131.5t-77.5 185t-24.5 212zM315 545 q0 -98 19.5 -188.5t64.5 -159t117 -108.5t176 -40q106 0 191.5 38t152 101.5t113.5 148.5t77.5 178t45 190.5t14.5 187.5q0 96 -19.5 185t-63.5 157t-114.5 108.5t-173.5 40.5q-160 0 -273.5 -80.5t-186 -204.5t-106.5 -271.5t-34 -282.5z" />
<glyph unicode="P" horiz-adv-x="1185" d="M178 0l252 1434h412q115 0 191.5 -30t123.5 -81t66.5 -116.5t19.5 -135.5q0 -80 -30.5 -164t-96 -154.5t-166 -115.5t-239.5 -45h-353l-104 -592h-76zM373 666h342q117 0 200.5 37.5t138 96t81 130t26.5 141.5q0 57 -15.5 110.5t-53 92.5t-100 62.5t-156.5 23.5h-344z " />
<glyph unicode="Q" horiz-adv-x="1425" d="M236 553q0 98 17 202.5t54 206t92.5 191.5t132 157.5t175 107.5t219.5 40q123 0 205.5 -47t135 -126t75 -181.5t22.5 -212.5q0 -102 -18.5 -213t-57.5 -215.5t-97 -197.5t-140 -161l90 -182l-62 -39l-88 178q-133 -86 -309 -86q-121 0 -206 49.5t-138 131.5t-77.5 185 t-24.5 212zM315 545q0 -98 19.5 -188.5t64.5 -159t117 -108.5t176 -40q78 0 143.5 20.5t122.5 57.5l-94 190l64 39l90 -184q70 61 121 147.5t83.5 182.5t48 197.5t15.5 193.5q0 96 -19.5 185t-63.5 157t-114.5 108.5t-173.5 40.5q-160 0 -273.5 -80.5t-186 -204.5 t-106.5 -271.5t-34 -282.5z" />
<glyph unicode="R" horiz-adv-x="1277" d="M178 0l252 1434h461q100 0 168.5 -30t111.5 -78t62.5 -107.5t19.5 -118.5q0 -92 -33.5 -167t-94 -129t-142.5 -86t-176 -40l211 -678h-82l-211 674h-352l-119 -674h-76zM385 741h342q86 0 167 20.5t142.5 63.5t99.5 111t38 164q0 45 -13.5 92t-45.5 86t-87 63.5 t-137 24.5h-395z" />
<glyph unicode="S" horiz-adv-x="1167" d="M172 276l76 25q31 -115 116 -184.5t216 -69.5q78 0 146.5 23.5t120.5 69.5t83 111.5t31 151.5q0 94 -45.5 157t-112 108t-144 81.5t-144 82t-112 109t-45.5 159.5q0 74 30 139.5t85 114.5t134 76.5t175 27.5q139 0 230.5 -64.5t107.5 -172.5l-76 -21q-20 90 -85.5 138 t-178.5 48q-160 0 -251 -77.5t-91 -206.5q0 -82 45 -134.5t112 -93t144.5 -76.5t144 -85t111.5 -119t45 -176q0 -104 -35.5 -186t-99 -138.5t-149.5 -87.5t-185 -31q-84 0 -150.5 25t-117.5 65.5t-84 95t-47 115.5z" />
<glyph unicode="T" horiz-adv-x="1099" d="M344 1366l12 68h844l-12 -68h-385l-242 -1366h-76l242 1366h-383z" />
<glyph unicode="U" d="M248 367q0 39 4 80.5t12 89.5l158 897h78l-156 -883q-10 -49 -13 -92t-3 -80q0 -104 27.5 -169t71.5 -100.5t96 -49t102 -13.5q72 0 142.5 19.5t132 71.5t108.5 143.5t71 232.5l160 920h76l-160 -924q-25 -143 -72 -244.5t-114.5 -166t-154.5 -94.5t-189 -30 q-80 0 -149.5 22.5t-120 70t-79 122t-28.5 177.5z" />
<glyph unicode="V" horiz-adv-x="1253" d="M330 1434h80l202 -1278l645 1278h84l-725 -1434h-55z" />
<glyph unicode="W" horiz-adv-x="1662" d="M330 1434h82l77 -1250l517 1250h61l92 -1250l508 1250h80l-586 -1434h-63l-92 1245l-517 -1245h-65z" />
<glyph unicode="X" horiz-adv-x="1077" d="M57 0l533 752l-244 682h80l217 -609l430 609h88l-489 -691l266 -743h-80l-240 668l-473 -668h-88z" />
<glyph unicode="Y" horiz-adv-x="1187" d="M315 1434h76l277 -789l549 789h83l-604 -867l-100 -567h-74l101 567z" />
<glyph unicode="Z" horiz-adv-x="1177" d="M90 0l8 39l1059 1327h-778l10 68h879l-8 -43l-1057 -1323h821l-8 -68h-926z" />
<glyph unicode="[" horiz-adv-x="727" d="M178 -266l301 1724h359l-11 -69h-282l-279 -1586h283l-12 -69h-359z" />
<glyph unicode="\" horiz-adv-x="946" d="M240 1458h79l504 -1724h-80z" />
<glyph unicode="]" horiz-adv-x="727" d="M55 -266l13 69h282l279 1586h-283l10 69h359l-301 -1724h-359z" />
<glyph unicode="^" horiz-adv-x="1302" d="M317 741l398 717h78l397 -717h-78l-358 617l-359 -617h-78z" />
<glyph unicode="_" horiz-adv-x="1036" d="M-49 -317l12 67h1043l-13 -67h-1042z" />
<glyph unicode="`" horiz-adv-x="636" d="M264 1499h113l254 -319h-76z" />
<glyph unicode="a" horiz-adv-x="1017" d="M158 266q0 88 32.5 159t89 121t131 76.5t156.5 26.5q94 0 163 -29.5t124 -76.5l25 133q8 47 11 75.5t3 55.5q0 59 -15.5 97t-42 60.5t-63.5 31t-78 8.5q-90 0 -177 -34t-152 -71l-15 66q63 35 152.5 70.5t193.5 35.5q55 0 104.5 -12t86.5 -43t58.5 -81t21.5 -126 q0 -18 -2 -43t-11 -74l-120 -692h-74l26 154q-66 -72 -152.5 -125.5t-201.5 -53.5q-125 0 -199.5 75t-74.5 216zM242 266q0 -102 51 -162.5t143 -60.5q61 0 113.5 18.5t98.5 48t84 66.5t71 74l41 227q-53 41 -123 72t-158 31q-63 0 -121.5 -21.5t-102.5 -62.5t-70.5 -99.5 t-26.5 -130.5z" />
<glyph unicode="b" horiz-adv-x="1093" d="M172 0l252 1440l82 39l-103 -586q61 82 147.5 130t182.5 48q147 0 230.5 -112.5t83.5 -305.5q0 -156 -35 -281.5t-98.5 -213.5t-152 -135.5t-194.5 -47.5q-102 0 -172.5 43t-120.5 136l-26 -154h-76zM293 258q33 -92 101.5 -150.5t172.5 -58.5q94 0 168 47t125 128 t79 191.5t28 237.5q0 166 -62.5 255t-181.5 89q-59 0 -111.5 -20.5t-95.5 -52t-75.5 -69.5t-55.5 -71z" />
<glyph unicode="c" horiz-adv-x="927" d="M178 387q0 143 35 268t97.5 217.5t149.5 145.5t191 53q63 0 112.5 -19.5t83.5 -50t53.5 -70.5t23.5 -81l-70 -27q-14 84 -67.5 129t-137.5 45q-88 0 -160.5 -47t-124 -130t-79 -193.5t-27.5 -239.5q0 -160 60.5 -249t179.5 -89q86 0 155.5 51.5t110.5 143.5l70 -29 q-53 -111 -137 -175.5t-199 -64.5q-147 0 -233.5 105.5t-86.5 306.5z" />
<glyph unicode="d" horiz-adv-x="1093" d="M195 414q0 147 36.5 269t103 208t159 133t202.5 47q57 0 103.5 -17.5t79 -43t54 -58t34.5 -63.5l98 553l80 37l-258 -1479h-76l27 150q-82 -94 -163 -134.5t-157 -40.5q-158 0 -240.5 120t-82.5 319zM274 414q0 -76 15.5 -142.5t45.5 -116t76 -78t107 -28.5 q92 0 180 56.5t160 160.5l90 520q-12 33 -31.5 70t-50 68.5t-73.5 52t-101 20.5q-96 0 -173 -43t-131 -120.5t-84 -185t-30 -234.5z" />
<glyph unicode="e" horiz-adv-x="1026" d="M178 391q0 156 40 281t108.5 214t162 137t197.5 48q66 0 123 -19.5t99 -62.5t66.5 -110.5t24.5 -161.5q0 -80 -24 -193l-4 -22h-707q-6 -55 -6 -111q0 -76 13.5 -139.5t45 -108.5t83 -69.5t126.5 -24.5q59 0 123 22.5t127 69.5l39 -57q-63 -47 -138 -78t-169 -31 q-162 0 -246 107.5t-84 308.5zM274 569h633q6 41 10.5 77t4.5 71q0 86 -21.5 141t-55.5 87t-76 45.5t-81 13.5q-92 0 -161.5 -37t-121 -97.5t-83 -138.5t-48.5 -162z" />
<glyph unicode="f" horiz-adv-x="608" d="M207 0l172 979h-164l12 68h164l33 188q20 111 74.5 167t152.5 56q37 0 69 -9t54 -24l-12 -65q-25 12 -51.5 21.5t-63.5 9.5q-70 0 -102.5 -39t-46.5 -125l-31 -180h242l-13 -68h-241l-172 -979h-76z" />
<glyph unicode="g" horiz-adv-x="1097" d="M182 399q0 154 39 278t106.5 212t160 135t200.5 47q57 0 102.5 -15.5t80 -41t58 -57t36.5 -62.5l26 152h74l-191 -1094q-20 -113 -71 -185.5t-123 -115.5t-156 -62.5t-168 -25.5l-28 65q115 6 197.5 30t139 66t89 101t47.5 137l37 209q-66 -102 -154 -149.5t-186 -47.5 q-135 0 -225.5 106.5t-90.5 317.5zM262 412q0 -174 69.5 -268.5t180.5 -94.5q57 0 107.5 18.5t93.5 49t78.5 71.5t64.5 88l90 521q-35 98 -105.5 149t-158.5 51q-98 0 -176 -43t-132.5 -120.5t-83 -185t-28.5 -236.5z" />
<glyph unicode="h" horiz-adv-x="1089" d="M172 0l254 1442l80 37l-109 -621q31 57 71 98t85 67t89 37t85 11q129 0 200.5 -71.5t71.5 -215.5q0 -70 -12 -145l-113 -639h-73l112 647q6 39 8.5 71t2.5 66q0 117 -57.5 167t-149.5 50q-63 0 -121.5 -20t-106 -66.5t-83 -123t-54.5 -187.5l-104 -604h-76z" />
<glyph unicode="i" horiz-adv-x="466" d="M176 0l184 1047h74l-182 -1047h-76zM387 1327q0 29 18.5 50.5t51.5 21.5q25 0 37 -15.5t12 -37.5q0 -29 -18.5 -49.5t-51.5 -20.5q-23 0 -36 14.5t-13 36.5z" />
<glyph unicode="j" horiz-adv-x="479" d="M-137 -373q66 6 116 24.5t85.5 52.5t60.5 86t37 128l198 1129h74l-196 -1129q-18 -102 -53 -168.5t-81.5 -105.5t-100.5 -56.5t-114 -23.5zM387 1327q0 29 18.5 50.5t51.5 21.5q25 0 37 -15.5t12 -37.5q0 -29 -18.5 -49.5t-51.5 -20.5q-23 0 -36 14.5t-13 36.5z" />
<glyph unicode="k" horiz-adv-x="980" d="M172 0l254 1442l80 37l-160 -914l514 482h92l-305 -287l248 -760h-78l-229 705l-258 -242l-82 -463h-76z" />
<glyph unicode="l" horiz-adv-x="454" d="M172 0l254 1442l80 37l-258 -1479h-76z" />
<glyph unicode="m" horiz-adv-x="1669" d="M172 0l184 1047h72l-33 -189q27 51 65 91t81 67.5t89 41t89 13.5q100 0 163.5 -60.5t67.5 -195.5q57 129 155 192.5t202 63.5q127 0 193.5 -78t66.5 -221q0 -20 -2 -55t-9 -68l-114 -649h-74l113 651q4 29 7 65t3 58q0 45 -9 86t-32 73t-60.5 50t-97.5 18 q-70 0 -125 -27.5t-97 -74.5t-69.5 -108.5t-39.5 -128.5l-117 -662h-74l113 651q4 29 7 64t3 59q0 43 -7 83t-27.5 73t-57.5 52t-94 19q-141 0 -231.5 -102t-119.5 -268l-108 -631h-76z" />
<glyph unicode="n" horiz-adv-x="1089" d="M172 0l184 1047h72l-33 -189q31 57 71 98t84 67t89 37t84 11q135 0 205.5 -73.5t70.5 -215.5q0 -74 -14 -157l-111 -625h-73l108 625q10 53 12.5 88t2.5 69q0 117 -56.5 168t-154.5 51q-59 0 -116.5 -20t-106 -66.5t-84 -121t-54.5 -185.5l-104 -608h-76z" />
<glyph unicode="o" horiz-adv-x="1064" d="M188 395q0 156 36 282t102.5 213t158.5 134t205 47q158 0 246 -107.5t88 -306.5q0 -154 -35 -279.5t-99.5 -214.5t-158.5 -138.5t-213 -49.5q-154 0 -242 104.5t-88 315.5zM268 393q0 -162 65.5 -253t196.5 -91q96 0 173 44t130.5 123t82 188.5t28.5 240.5 q0 168 -67.5 260t-192.5 92q-100 0 -178 -45t-130 -126t-80 -191.5t-28 -241.5z" />
<glyph unicode="p" horiz-adv-x="1101" d="M98 -416l258 1463h76l-29 -154q68 88 148 133t182 45q74 0 133.5 -29.5t101.5 -85t63.5 -132t21.5 -171.5q0 -158 -37 -283.5t-103.5 -213.5t-157.5 -134.5t-202 -46.5q-94 0 -169 53.5t-105 145.5l-97 -553zM295 270q31 -104 97.5 -162.5t160.5 -58.5q98 0 176 44 t132 122t83 187.5t29 242.5q0 160 -64.5 256t-191.5 96q-92 0 -180 -54t-150 -146z" />
<glyph unicode="q" horiz-adv-x="1101" d="M193 393q0 154 36.5 279t101 214t152.5 137t191 48q111 0 182.5 -47t108.5 -129l26 152h76l-248 -1418l-82 -39l101 578q-59 -92 -146.5 -142.5t-179.5 -50.5q-147 0 -233 103.5t-86 314.5zM272 393q0 -178 61.5 -261t184.5 -83q98 0 185.5 60.5t152.5 164.5l92 523 q-31 92 -100.5 146t-173.5 54q-86 0 -160 -43t-128 -121.5t-84 -190.5t-30 -249z" />
<glyph unicode="r" horiz-adv-x="737" d="M172 0l184 1047h72l-39 -224q72 129 162 188.5t170 59.5q59 0 92 -14.5t49 -28.5l-26 -63q-16 10 -47 21t-80 11t-104.5 -24.5t-105.5 -75.5t-91 -130t-60 -187l-100 -580h-76z" />
<glyph unicode="s" horiz-adv-x="894" d="M141 133l60 47q41 -57 105.5 -96t152.5 -39q117 0 187.5 59.5t70.5 171.5q0 70 -35 113t-87 73t-112.5 55.5t-113 59t-87 84t-34.5 130.5q0 55 23.5 106t68.5 90t106.5 61.5t139.5 22.5q92 0 162.5 -38t111.5 -91l-57 -45q-35 41 -89.5 72.5t-135.5 31.5 q-117 0 -186.5 -61t-69.5 -149q0 -61 34.5 -101.5t87 -70t113.5 -55t113.5 -61.5t87.5 -88.5t35 -131.5q0 -139 -87.5 -223.5t-250.5 -84.5q-106 0 -186.5 46.5t-127.5 111.5z" />
<glyph unicode="t" horiz-adv-x="698" d="M227 979l13 68h172l69 395l80 37l-76 -432h260l-12 -68h-260l-129 -743q-4 -25 -7 -47.5t-3 -45.5q0 -41 21.5 -68.5t78.5 -27.5q45 0 87 16.5t71 32.5l-23 -78q-35 -20 -72.5 -31.5t-74.5 -11.5q-86 0 -125 44t-39 116q0 41 12 109l129 735h-172z" />
<glyph unicode="u" horiz-adv-x="1089" d="M219 264q0 31 4 68t10 76l113 639h74l-113 -656q-6 -35 -9 -67.5t-3 -59.5q0 -119 56.5 -170t160.5 -51q57 0 112.5 20.5t103.5 67.5t85 122t55 185l105 609h76l-185 -1047h-71l30 180q-35 -59 -74.5 -98t-82.5 -62.5t-85 -34t-81 -10.5q-137 0 -209 74t-72 215z" />
<glyph unicode="v" horiz-adv-x="974" d="M252 1047h74l159 -912l476 912h77l-546 -1047h-56z" />
<glyph unicode="w" horiz-adv-x="1388" d="M252 1047h74l59 -908l432 908h53l119 -904l375 904h76l-441 -1047h-55l-125 903l-432 -903h-55z" />
<glyph unicode="x" horiz-adv-x="958" d="M68 0l440 549l-225 498h77l197 -437l350 437h86l-405 -506l246 -541h-78l-217 479l-385 -479h-86z" />
<glyph unicode="y" horiz-adv-x="993" d="M201 -397l227 426l-184 1018h71l164 -926l494 926h80l-774 -1444h-78z" />
<glyph unicode="z" horiz-adv-x="972" d="M100 0l9 45l765 934h-561l13 68h665l-8 -43l-768 -936h602l-10 -68h-707z" />
<glyph unicode="{" horiz-adv-x="724" d="M180 559l15 76h8q86 0 148.5 57.5t82.5 169.5l31 178q16 94 46 171t78 132.5t113.5 85t151.5 29.5l-12 -65q-121 -4 -195 -86t-98 -230l-29 -168q-16 -90 -41.5 -148.5t-61.5 -92t-81 -49t-98 -19.5l-2 -8q84 -10 131 -56.5t47 -156.5q0 -57 -13 -133l-22 -129 q-4 -29 -7 -55.5t-3 -51.5q0 -205 194 -211l-12 -65q-133 8 -192.5 80.5t-59.5 208.5q0 41 5 87t15 97l15 82q6 33 10 57.5t4 44.5q0 82 -43 125t-117 43h-8z" />
<glyph unicode="|" horiz-adv-x="503" d="M98 -420l363 2069h76l-363 -2069h-76z" />
<glyph unicode="}" horiz-adv-x="724" d="M55 -266l13 65q121 4 195.5 86t98.5 230l29 168q14 90 40 148t61.5 92t80.5 49.5t99 19.5l2 8q-84 10 -130 56t-46 157q0 55 12 133l22 129q4 29 7.5 55.5t3.5 51.5q0 205 -197 211l12 65q133 -8 192.5 -80.5t59.5 -208.5q0 -41 -5 -87t-15 -97l-15 -82q-6 -33 -10 -57.5 t-4 -44.5q0 -82 43 -125t117 -43h8l-14 -76h-8q-86 0 -148.5 -57.5t-83.5 -169.5l-31 -178q-16 -94 -45.5 -171t-78 -132.5t-114 -85t-151.5 -29.5z" />
<glyph unicode="~" horiz-adv-x="1302" d="M276 567q0 49 14.5 97.5t44.5 86t75 60.5t108 23q72 0 132.5 -30t115.5 -67t110.5 -66.5t116.5 -29.5q74 0 116 51t46 142h76q0 -49 -14.5 -97.5t-43 -86.5t-75 -60.5t-109.5 -22.5q-72 0 -132 30t-115.5 66.5t-111 66.5t-116.5 30q-74 0 -116 -50.5t-46 -142.5h-76z" />
<glyph unicode="&#xa1;" horiz-adv-x="503" d="M117 -410l90 516l104 547h21l-45 -547l-90 -516h-80zM311 1004q0 29 20.5 48t49.5 19q23 0 37 -15.5t14 -37.5q0 -29 -20.5 -49.5t-49.5 -20.5q-23 0 -37 16.5t-14 39.5z" />
<glyph unicode="&#xa2;" horiz-adv-x="997" d="M233 578q0 137 32 257.5t90.5 212t139 147.5t179.5 65l35 198h73l-34 -198q106 -12 164.5 -78t66.5 -142l-70 -26q-14 84 -67.5 129t-136.5 45q-88 0 -161 -47t-124 -130t-79 -193.5t-28 -239.5q0 -160 60.5 -249t179.5 -89q86 0 155.5 51t110.5 143l70 -28 q-53 -111 -136 -174.5t-196 -65.5l-33 -191h-73l34 197q-119 23 -185.5 125t-66.5 281z" />
<glyph unicode="&#xa3;" horiz-adv-x="1187" d="M150 0l14 82q98 74 156.5 141.5t88 131t39 120.5t9.5 111v51h-195l10 68h177q-10 78 -26.5 155.5t-16.5 153.5q0 90 30.5 171t93 141t155.5 96t216 36q109 0 195 -29.5t145 -80.5l-39 -66q-41 37 -115.5 70.5t-197.5 33.5q-102 0 -178 -30.5t-126 -81.5t-75 -116.5 t-25 -135.5q0 -78 17.5 -157t27.5 -160h344l-10 -68h-327v-45q0 -156 -83 -288t-227 -236h824l-13 -68h-888z" />
<glyph unicode="&#xa4;" horiz-adv-x="1251" d="M131 227l182 154q-51 94 -51 227q0 115 39 213.5t109 171.5l-121 144l69 57l117 -143q66 49 145.5 77.5t172.5 28.5q98 0 171.5 -30.5t122.5 -84.5l177 152l49 -57l-183 -154q53 -96 54 -227q0 -115 -40 -213.5t-110 -171.5l121 -144l-70 -57l-116 141 q-134 -104 -314 -104q-197 0 -299 115l-176 -152zM344 608q0 -145 81 -235t228 -90q96 0 178 35.5t142.5 99t94.5 149.5t34 189q0 145 -81 235t-228 90q-96 0 -179.5 -35.5t-142.5 -99t-93 -150.5t-34 -188z" />
<glyph unicode="&#xa5;" horiz-adv-x="1093" d="M158 252l12 67h371l43 246h-371l10 68h340l-295 801h78l285 -783l563 783h84l-578 -801h316l-10 -68h-347l-43 -246h347l-13 -67h-346l-45 -252h-76l45 252h-370z" />
<glyph unicode="&#xa6;" horiz-adv-x="503" d="M129 -246l117 666h76l-117 -666h-76zM313 805l117 670h76l-117 -670h-76z" />
<glyph unicode="&#xa7;" horiz-adv-x="1040" d="M84 -92l66 51q16 -18 40.5 -41.5t59.5 -43t81 -33t107 -13.5q74 0 139.5 16.5t114.5 50t77 87t28 129.5q0 61 -32 103t-82 72.5t-111.5 55.5t-122.5 51q-51 20 -92.5 42t-71 49.5t-46 62.5t-16.5 84q0 100 71 164.5t185 93.5q-92 41 -130 105.5t-38 142.5q0 76 31 135 t85 100t126 63.5t154 22.5q129 0 210.5 -42t120.5 -85l-63 -51q-31 33 -97.5 68.5t-170.5 35.5q-137 0 -226.5 -63.5t-89.5 -177.5q0 -51 19.5 -88t59.5 -65.5t100.5 -56.5t140.5 -61q49 -20 95 -42.5t81 -52t56.5 -69.5t21.5 -96q0 -78 -49.5 -153.5t-161.5 -116.5 q66 -39 94.5 -99.5t28.5 -127.5q0 -90 -34 -158t-92.5 -113t-139.5 -67.5t-173 -22.5q-72 0 -128 14.5t-99 36t-75 49t-52 54.5zM303 639q0 -57 51.5 -100t128.5 -74q63 -25 117.5 -47.5t87.5 -38.5q80 27 137.5 82t57.5 133q0 49 -26 86t-71 65.5t-105 53t-128 49.5 q-113 -16 -181.5 -73.5t-68.5 -135.5z" />
<glyph unicode="&#xa8;" horiz-adv-x="636" d="M281 1329q2 29 23.5 49.5t49.5 20.5q23 0 36 -16.5t13 -39.5q-2 -29 -23 -48t-50 -19q-23 0 -36 15.5t-13 37.5zM621 1329q2 29 23.5 49.5t49.5 20.5q23 0 36 -16.5t13 -39.5q-2 -29 -23 -48t-50 -19q-23 0 -36 15.5t-13 37.5z" />
<glyph unicode="&#xa9;" horiz-adv-x="1740" d="M221 717q0 158 56.5 293t157 235.5t235.5 156.5t293 56t293 -56t235 -156.5t156.5 -236t56.5 -292.5q0 -158 -56.5 -293t-156.5 -235.5t-235 -157t-293 -56.5t-293 56.5t-235.5 157t-157 235.5t-56.5 293zM295 717q0 -143 50 -266t139 -213.5t211.5 -141.5t267.5 -51 q143 0 266 51t212 141.5t139 213t50 266.5q0 143 -50 266t-139 213t-212 141.5t-266 51.5q-145 0 -267.5 -51.5t-211.5 -141.5t-139 -213t-50 -266zM633 727q0 203 87 325t253 122q106 0 175 -47.5t105 -133.5l-69 -28q-27 57 -79 97t-132 40q-131 0 -196.5 -100.5 t-65.5 -274.5q0 -186 67.5 -279.5t196.5 -93.5q76 0 138.5 35t90.5 121l62 -25q-35 -98 -110 -150t-181 -52q-168 0 -255 113.5t-87 330.5z" />
<glyph unicode="&#xaa;" horiz-adv-x="876" d="M229 797q0 84 32 144t82 100t111.5 59.5t120.5 19.5q68 0 127.5 -24.5t98.5 -59.5l16 92q4 29 9 55.5t5 53.5q0 78 -41.5 115t-115.5 37q-39 0 -79 -9.5t-77 -24t-70.5 -29.5t-58.5 -30l-12 68q25 14 59.5 31.5t74.5 31t82 22.5t81 9q106 0 170.5 -51t64.5 -170 q0 -20 -4 -46t-10 -63l-98 -548h-76l20 116q-53 -57 -126.5 -97t-151.5 -40q-102 0 -168 64.5t-66 173.5zM309 799q0 -86 45 -129t111 -43q45 0 88 14t80 36.5t68.5 50.5t56.5 52l33 191q-37 29 -94.5 55.5t-125.5 26.5q-43 0 -89 -15.5t-85 -46t-63.5 -79t-24.5 -113.5z " />
<glyph unicode="&#xab;" horiz-adv-x="903" d="M150 524l401 523h86l-401 -523l219 -524h-86zM518 524l402 523h86l-402 -523l219 -524h-86z" />
<glyph unicode="&#xac;" horiz-adv-x="1302" d="M272 874v74h963v-588h-74v514h-889z" />
<glyph unicode="&#xad;" horiz-adv-x="776" d="M238 573l12 74h457l-13 -74h-456z" />
<glyph unicode="&#xae;" horiz-adv-x="1740" d="M221 717q0 158 56.5 293t157 235.5t235.5 156.5t293 56t293 -56t235 -156.5t156.5 -236t56.5 -292.5q0 -158 -56.5 -293t-156.5 -235.5t-235 -157t-293 -56.5t-293 56.5t-235.5 157t-157 235.5t-56.5 293zM295 717q0 -143 50 -266t139 -213.5t211.5 -141.5t267.5 -51 q143 0 266 51t212 141.5t139 213t50 266.5q0 143 -50 266t-139 213t-212 141.5t-266 51.5q-145 0 -267.5 -51.5t-211.5 -141.5t-139 -213t-50 -266zM682 281v866h365q68 0 113.5 -24.5t74.5 -61.5t41 -81t12 -83q0 -92 -55 -160.5t-172 -79.5l215 -376h-86l-209 372h-225 v-372h-74zM756 727h272q51 0 86 14.5t56.5 38t30.5 54t9 63.5q0 31 -8 62.5t-28.5 57t-56.5 41t-89 15.5h-272v-346z" />
<glyph unicode="&#xaf;" horiz-adv-x="636" d="M162 1276l12 67h676l-12 -67h-676z" />
<glyph unicode="&#xb0;" horiz-adv-x="770" d="M283 1219q0 70 25.5 128t69.5 100t104.5 65.5t127.5 23.5q104 0 169 -65.5t65 -165.5q0 -70 -25.5 -128.5t-71 -100.5t-104.5 -65.5t-127 -23.5q-104 0 -168.5 65.5t-64.5 166.5zM352 1229q0 -74 47 -125t127 -51q49 0 94.5 19.5t79 52t54 76.5t20.5 93q0 76 -48 126 t-126 50q-51 0 -96 -19t-79 -52t-53.5 -77t-19.5 -93z" />
<glyph unicode="&#xb1;" horiz-adv-x="1302" d="M272 0v74h963v-74h-963zM272 795v73h443v377h73v-377h447v-73h-447v-377h-73v377h-443z" />
<glyph unicode="&#xb2;" horiz-adv-x="708" d="M190 909q14 76 47 134.5t79 104.5t100.5 82t113.5 68q57 31 98.5 59.5t68 59.5t40 67t13.5 83q0 27 -9.5 53.5t-28 47t-48 33.5t-68.5 13q-88 0 -139 -43t-82 -110l-68 28q35 82 107.5 140.5t181.5 58.5q102 0 167.5 -61.5t65.5 -159.5q0 -61 -16 -107.5t-50 -84.5 t-86 -72.5t-124 -73.5q-113 -59 -170 -113.5t-86 -122.5h428l-12 -84h-523z" />
<glyph unicode="&#xb3;" horiz-adv-x="702" d="M205 1077l71 25q23 -68 68 -104.5t125 -36.5q98 0 165.5 54t67.5 152q0 66 -37.5 108t-115.5 42h-64l17 74h43q43 0 78.5 16t61.5 44t41 63.5t15 74.5q0 53 -32.5 90t-104.5 37t-124 -35.5t-91 -95.5l-63 29q47 82 119.5 129t164.5 47t151.5 -53.5t59.5 -143.5 q0 -78 -46 -141t-124 -92q59 -16 94 -64.5t35 -128.5q0 -63 -24.5 -115.5t-67.5 -89t-99.5 -56t-119.5 -19.5q-115 0 -178.5 54t-85.5 136z" />
<glyph unicode="&#xb4;" horiz-adv-x="636" d="M332 1180l364 319h113l-401 -319h-76z" />
<glyph unicode="&#xb5;" horiz-adv-x="1089" d="M100 -410l256 1457h74l-113 -656q-12 -72 -12 -121q0 -74 19.5 -119t50.5 -68.5t69.5 -31.5t77.5 -8q57 0 113.5 20.5t103.5 67.5t84 123t56 184l104 609h76l-185 -1047h-71l31 180q-55 -98 -140.5 -151.5t-179.5 -53.5q-88 0 -151.5 31t-96.5 96l-82 -473z" />
<glyph unicode="&#xb6;" horiz-adv-x="1183" d="M213 963q0 74 26.5 151.5t86 140t158 103.5t239.5 41h463l-279 -1585l-82 -37l273 1548h-215l-289 -1647l-84 -34l168 960q-133 0 -222 33t-142.5 84t-77 115.5t-23.5 126.5zM293 963q0 -53 19.5 -103.5t66.5 -91.5t123 -65.5t190 -24.5l115 647h-92q-119 0 -200 -34 t-130 -86t-70.5 -116.5t-21.5 -125.5z" />
<glyph unicode="&#xb7;" horiz-adv-x="372" d="M225 709q2 29 23.5 49t50.5 20q23 0 36 -16.5t13 -38.5q-2 -29 -23.5 -48.5t-50.5 -19.5q-23 0 -36 15.5t-13 38.5z" />
<glyph unicode="&#xb8;" horiz-adv-x="636" d="M-43 -422l57 37q12 -12 33 -23.5t53 -11.5q72 0 113 42t41 102q0 47 -29.5 75.5t-83.5 28.5q-45 0 -80 -16l-16 24l164 184h49l-104 -141q92 0 132 -46t40 -101q0 -43 -17.5 -81t-48.5 -66.5t-74 -46t-94 -17.5q-47 0 -81 15t-54 42z" />
<glyph unicode="&#xb9;" horiz-adv-x="360" d="M258 909l121 684h-115l8 45q78 4 111 37t55 99h51l-151 -865h-80z" />
<glyph unicode="&#xba;" horiz-adv-x="911" d="M266 903q0 127 31 229.5t86 175t132 111.5t171 39q133 0 207 -93t74 -253q0 -127 -31 -229.5t-86 -174t-133 -111.5t-172 -40q-129 0 -204 91t-75 255zM346 903q0 -129 56.5 -200.5t154.5 -71.5q74 0 134.5 33.5t104.5 96t67.5 151.5t23.5 200q0 133 -55.5 202.5 t-153.5 69.5q-76 0 -137.5 -33.5t-104.5 -96t-66.5 -151.5t-23.5 -200z" />
<glyph unicode="&#xbb;" horiz-adv-x="903" d="M43 0l403 524l-221 523h86l221 -523l-403 -524h-86zM412 0l403 524l-221 523h86l221 -523l-403 -524h-86z" />
<glyph unicode="&#xbc;" horiz-adv-x="1331" d="M2 -25l1237 1483h90l-1237 -1483h-90zM229 580l121 684h-115l8 45q78 4 111 36.5t55 98.5h51l-151 -864h-80zM646 240l8 41l551 585h65l-98 -553h115l-13 -73h-114l-41 -240h-78l41 240h-436zM773 313h321l76 420z" />
<glyph unicode="&#xbd;" horiz-adv-x="1431" d="M2 -25l1237 1483h90l-1237 -1483h-90zM229 580l121 684h-115l8 45q78 4 111 36.5t55 98.5h51l-151 -864h-80zM786 0q14 76 47 134.5t79.5 104.5t101.5 82.5t115 69.5q55 31 96 59.5t67.5 58.5t40 65.5t13.5 82.5q0 27 -8.5 53.5t-27 47t-47 34t-69.5 13.5q-88 0 -138 -44 t-83 -112l-66 29q35 82 108 141.5t181 59.5q100 0 164.5 -57.5t64.5 -155.5q0 -63 -16 -111.5t-50 -87.5t-86 -74t-124 -74q-113 -59 -169 -114t-85 -123h426l-14 -82h-521z" />
<glyph unicode="&#xbe;" horiz-adv-x="1626" d="M156 745l69 25q29 -68 71 -104.5t128 -36.5q98 0 165.5 54t67.5 153q0 66 -37.5 107.5t-113.5 41.5h-64l15 74h43q43 0 78.5 16.5t62.5 44t42 63.5t15 74q0 53 -33.5 90t-103.5 37q-72 0 -125 -35.5t-94 -95.5l-66 31q49 82 125 128t162 46q98 0 156.5 -50t58.5 -148 q0 -76 -43 -139.5t-127 -94.5q59 -16 93 -65.5t34 -124.5q0 -66 -25.5 -117t-68.5 -88t-99.5 -56.5t-117.5 -19.5q-109 0 -176.5 52t-91.5 138zM295 -25l1237 1483h90l-1237 -1483h-90zM938 240l8 41l551 585h65l-98 -553h115l-13 -73h-114l-41 -240h-78l41 240h-436z M1065 313h321l76 420z" />
<glyph unicode="&#xbf;" horiz-adv-x="1028" d="M98 -92q0 90 34 156.5t85 122t113.5 103.5t120 101t101.5 117.5t60 150.5l13 70h77l-12 -70q-18 -96 -63 -165.5t-101.5 -125t-118 -102.5t-112.5 -98t-84 -112.5t-33 -145.5q0 -104 67.5 -175t205.5 -71q133 0 229 62.5t154 185.5l65 -31q-70 -141 -190 -216t-267 -75 q-168 0 -256 90.5t-88 227.5zM653 1004q2 29 23.5 48t50.5 19q23 0 36 -15.5t13 -37.5q-2 -29 -23.5 -49.5t-50.5 -20.5q-23 0 -36 16.5t-13 39.5z" />
<glyph unicode="&#xc0;" d="M119 0l727 1434h53l231 -1434h-75l-68 403h-581l-205 -403h-82zM434 465h545l-94 616q-2 12 -7.5 41t-10.5 63t-10 68.5t-7 57.5q-10 -25 -25.5 -59.5t-32 -69.5t-29.5 -62.5t-18 -38.5zM653 1888h113l254 -319h-76z" />
<glyph unicode="&#xc1;" d="M119 0l727 1434h53l231 -1434h-75l-68 403h-581l-205 -403h-82zM434 465h545l-94 616q-2 12 -7.5 41t-10.5 63t-10 68.5t-7 57.5q-10 -25 -25.5 -59.5t-32 -69.5t-29.5 -62.5t-18 -38.5zM752 1569l364 319h113l-401 -319h-76z" />
<glyph unicode="&#xc2;" d="M119 0l727 1434h53l231 -1434h-75l-68 403h-581l-205 -403h-82zM434 465h545l-94 616q-2 12 -7.5 41t-10.5 63t-10 68.5t-7 57.5q-10 -25 -25.5 -59.5t-32 -69.5t-29.5 -62.5t-18 -38.5zM551 1569l367 319h65l252 -319h-71l-224 245l-309 -245h-80z" />
<glyph unicode="&#xc3;" d="M119 0l727 1434h53l231 -1434h-75l-68 403h-581l-205 -403h-82zM434 465h545l-94 616q-2 12 -7.5 41t-10.5 63t-10 68.5t-7 57.5q-10 -25 -25.5 -59.5t-32 -69.5t-29.5 -62.5t-18 -38.5zM566 1630q16 98 68 161.5t138 63.5q53 0 93 -25.5t76 -57t72 -57.5t79 -26 q98 0 133 158h57q-16 -98 -68.5 -161.5t-138.5 -63.5q-53 0 -93 25.5t-75.5 57.5t-71.5 57.5t-79 25.5q-98 0 -133 -158h-57z" />
<glyph unicode="&#xc4;" d="M119 0l727 1434h53l231 -1434h-75l-68 403h-581l-205 -403h-82zM434 465h545l-94 616q-2 12 -7.5 41t-10.5 63t-10 68.5t-7 57.5q-10 -25 -25.5 -59.5t-32 -69.5t-29.5 -62.5t-18 -38.5zM684 1679q2 29 23.5 49.5t49.5 20.5q23 0 36 -16.5t13 -39.5q-2 -29 -23 -48 t-50 -19q-23 0 -36 15.5t-13 37.5zM1024 1679q2 29 23.5 49.5t49.5 20.5q23 0 36 -16.5t13 -39.5q-2 -29 -23 -48t-50 -19q-23 0 -36 15.5t-13 37.5z" />
<glyph unicode="&#xc5;" d="M119 0l663 1309q-66 20 -104.5 72.5t-38.5 121.5q0 55 20.5 102.5t55.5 81t84 53t104 19.5q96 0 154.5 -61.5t58.5 -143.5q0 -94 -55 -160.5t-141 -86.5l210 -1307h-75l-68 403h-581l-205 -403h-82zM434 465h545l-94 616q-2 12 -7.5 41t-10.5 63t-10 68.5t-7 57.5 q-10 -25 -25.5 -59.5t-32 -69.5t-29.5 -62.5t-18 -38.5zM709 1503q0 -66 42 -103.5t101 -37.5q82 0 138.5 53t56.5 139q0 61 -41 101.5t-103 40.5q-39 0 -74.5 -14.5t-62.5 -39t-42 -60.5t-15 -79z" />
<glyph unicode="&#xc6;" horiz-adv-x="1697" d="M-39 0l1079 1434h684l-10 -68h-612l-105 -590h394l-13 -67h-393l-113 -641h658l-12 -68h-734l72 403h-502l-301 -403h-92zM399 465h467l142 811z" />
<glyph unicode="&#xc7;" horiz-adv-x="1269" d="M236 545q0 168 46 331.5t133 292.5t215 209t292 80q84 0 144 -19.5t102 -52t71 -74.5t49 -85l-69 -37q-20 43 -45 78t-60 61.5t-82 40.5t-112 14q-145 0 -257 -73.5t-189 -192.5t-117 -268.5t-40 -302.5q0 -98 19.5 -188.5t62.5 -159t112 -109.5t167 -41q70 0 129 19.5 t107.5 50.5t85 69.5t63.5 79.5l70 -30q-29 -45 -67 -88.5t-87 -79t-110.5 -59t-137.5 -31.5l-74 -101q92 0 132 -46t40 -101q0 -43 -17 -81t-48 -66.5t-74 -46t-94 -17.5q-47 0 -81 15t-54 42l57 37q12 -12 32.5 -23.5t53.5 -11.5q72 0 113 42t41 102q0 47 -30 75.5 t-83 28.5q-45 0 -80 -16l-16 24l123 139q-119 0 -202 47.5t-135 127t-75.5 182t-23.5 213.5z" />
<glyph unicode="&#xc8;" horiz-adv-x="1150" d="M178 0l252 1434h731l-10 -68h-655l-105 -590h436l-12 -67h-436l-113 -641h701l-13 -68h-776zM565 1888h113l254 -319h-76z" />
<glyph unicode="&#xc9;" horiz-adv-x="1150" d="M178 0l252 1434h731l-10 -68h-655l-105 -590h436l-12 -67h-436l-113 -641h701l-13 -68h-776zM658 1569l364 319h113l-401 -319h-76z" />
<glyph unicode="&#xca;" horiz-adv-x="1150" d="M178 0l252 1434h731l-10 -68h-655l-105 -590h436l-12 -67h-436l-113 -641h701l-13 -68h-776zM473 1569l367 319h65l252 -319h-71l-224 245l-309 -245h-80z" />
<glyph unicode="&#xcb;" horiz-adv-x="1150" d="M178 0l252 1434h731l-10 -68h-655l-105 -590h436l-12 -67h-436l-113 -641h701l-13 -68h-776zM603 1679q2 29 23.5 49.5t49.5 20.5q23 0 36 -16.5t13 -39.5q-2 -29 -23 -48t-50 -19q-23 0 -36 15.5t-13 37.5zM943 1679q2 29 23.5 49.5t49.5 20.5q23 0 36 -16.5t13 -39.5 q-2 -29 -23 -48t-50 -19q-23 0 -36 15.5t-13 37.5z" />
<glyph unicode="&#xcc;" horiz-adv-x="483" d="M178 0l252 1434h76l-252 -1434h-76zM248 1888h113l254 -319h-76z" />
<glyph unicode="&#xcd;" horiz-adv-x="483" d="M178 0l252 1434h76l-252 -1434h-76zM367 1569l364 319h113l-401 -319h-76z" />
<glyph unicode="&#xce;" horiz-adv-x="483" d="M143 1569l367 319h65l252 -319h-71l-224 245l-309 -245h-80zM178 0l252 1434h76l-252 -1434h-76z" />
<glyph unicode="&#xcf;" horiz-adv-x="483" d="M178 0l252 1434h76l-252 -1434h-76zM279 1679q2 29 23.5 49.5t49.5 20.5q23 0 36 -16.5t13 -39.5q-2 -29 -23 -48t-50 -19q-23 0 -36 15.5t-13 37.5zM619 1679q2 29 23.5 49.5t49.5 20.5q23 0 36 -16.5t13 -39.5q-2 -29 -23 -48t-50 -19q-23 0 -36 15.5t-13 37.5z" />
<glyph unicode="&#xd0;" horiz-adv-x="1320" d="M158 678l10 74h141l121 682h307q147 0 247.5 -48.5t163 -128t89.5 -182t27 -211.5q0 -168 -49.5 -323.5t-147.5 -275.5t-245.5 -192.5t-344.5 -72.5h-299l119 678h-139zM268 74h224q162 0 289.5 61.5t215.5 169t135.5 251.5t47.5 308q0 96 -22.5 186.5t-76 159 t-141.5 109.5t-217 41h-231l-107 -608h358l-10 -74h-360z" />
<glyph unicode="&#xd1;" horiz-adv-x="1353" d="M176 0l252 1434h72l553 -1293l227 1293h76l-252 -1434h-72l-553 1292l-227 -1292h-76zM586 1630q16 98 68 161.5t138 63.5q53 0 93 -25.5t76 -57t72 -57.5t79 -26q98 0 133 158h57q-16 -98 -68.5 -161.5t-138.5 -63.5q-53 0 -93 25.5t-75.5 57.5t-71.5 57.5t-79 25.5 q-98 0 -133 -158h-57z" />
<glyph unicode="&#xd2;" horiz-adv-x="1425" d="M236 553q0 98 17 202.5t54 206t92.5 191.5t132 157.5t175 107.5t219.5 40q123 0 205.5 -47t135 -126t75 -181.5t22.5 -212.5q0 -98 -17.5 -204.5t-52 -209t-90 -193.5t-131.5 -160t-173 -109t-218 -40t-206 49.5t-138 131.5t-77.5 185t-24.5 212zM315 545 q0 -98 19.5 -188.5t64.5 -159t117 -108.5t176 -40q106 0 191.5 38t152 101.5t113.5 148.5t77.5 178t45 190.5t14.5 187.5q0 96 -19.5 185t-63.5 157t-114.5 108.5t-173.5 40.5q-160 0 -273.5 -80.5t-186 -204.5t-106.5 -271.5t-34 -282.5zM725 1888h113l254 -319h-76z" />
<glyph unicode="&#xd3;" horiz-adv-x="1425" d="M236 553q0 98 17 202.5t54 206t92.5 191.5t132 157.5t175 107.5t219.5 40q123 0 205.5 -47t135 -126t75 -181.5t22.5 -212.5q0 -98 -17.5 -204.5t-52 -209t-90 -193.5t-131.5 -160t-173 -109t-218 -40t-206 49.5t-138 131.5t-77.5 185t-24.5 212zM315 545 q0 -98 19.5 -188.5t64.5 -159t117 -108.5t176 -40q106 0 191.5 38t152 101.5t113.5 148.5t77.5 178t45 190.5t14.5 187.5q0 96 -19.5 185t-63.5 157t-114.5 108.5t-173.5 40.5q-160 0 -273.5 -80.5t-186 -204.5t-106.5 -271.5t-34 -282.5zM803 1569l364 319h113l-401 -319 h-76z" />
<glyph unicode="&#xd4;" horiz-adv-x="1425" d="M236 553q0 98 17 202.5t54 206t92.5 191.5t132 157.5t175 107.5t219.5 40q123 0 205.5 -47t135 -126t75 -181.5t22.5 -212.5q0 -98 -17.5 -204.5t-52 -209t-90 -193.5t-131.5 -160t-173 -109t-218 -40t-206 49.5t-138 131.5t-77.5 185t-24.5 212zM315 545 q0 -98 19.5 -188.5t64.5 -159t117 -108.5t176 -40q106 0 191.5 38t152 101.5t113.5 148.5t77.5 178t45 190.5t14.5 187.5q0 96 -19.5 185t-63.5 157t-114.5 108.5t-173.5 40.5q-160 0 -273.5 -80.5t-186 -204.5t-106.5 -271.5t-34 -282.5zM600 1569l367 319h65l252 -319h-71 l-224 245l-309 -245h-80z" />
<glyph unicode="&#xd5;" horiz-adv-x="1425" d="M236 553q0 98 17 202.5t54 206t92.5 191.5t132 157.5t175 107.5t219.5 40q123 0 205.5 -47t135 -126t75 -181.5t22.5 -212.5q0 -98 -17.5 -204.5t-52 -209t-90 -193.5t-131.5 -160t-173 -109t-218 -40t-206 49.5t-138 131.5t-77.5 185t-24.5 212zM315 545 q0 -98 19.5 -188.5t64.5 -159t117 -108.5t176 -40q106 0 191.5 38t152 101.5t113.5 148.5t77.5 178t45 190.5t14.5 187.5q0 96 -19.5 185t-63.5 157t-114.5 108.5t-173.5 40.5q-160 0 -273.5 -80.5t-186 -204.5t-106.5 -271.5t-34 -282.5zM617 1630q16 98 68 161.5t138 63.5 q53 0 93 -25.5t76 -57t72 -57.5t79 -26q98 0 133 158h57q-16 -98 -68.5 -161.5t-138.5 -63.5q-53 0 -93 25.5t-75.5 57.5t-71.5 57.5t-79 25.5q-98 0 -133 -158h-57z" />
<glyph unicode="&#xd6;" horiz-adv-x="1425" d="M236 553q0 98 17 202.5t54 206t92.5 191.5t132 157.5t175 107.5t219.5 40q123 0 205.5 -47t135 -126t75 -181.5t22.5 -212.5q0 -98 -17.5 -204.5t-52 -209t-90 -193.5t-131.5 -160t-173 -109t-218 -40t-206 49.5t-138 131.5t-77.5 185t-24.5 212zM315 545 q0 -98 19.5 -188.5t64.5 -159t117 -108.5t176 -40q106 0 191.5 38t152 101.5t113.5 148.5t77.5 178t45 190.5t14.5 187.5q0 96 -19.5 185t-63.5 157t-114.5 108.5t-173.5 40.5q-160 0 -273.5 -80.5t-186 -204.5t-106.5 -271.5t-34 -282.5zM736 1679q2 29 23.5 49.5 t49.5 20.5q23 0 36 -16.5t13 -39.5q-2 -29 -23 -48t-50 -19q-23 0 -36 15.5t-13 37.5zM1076 1679q2 29 23.5 49.5t49.5 20.5q23 0 36 -16.5t13 -39.5q-2 -29 -23 -48t-50 -19q-23 0 -36 15.5t-13 37.5z" />
<glyph unicode="&#xd7;" horiz-adv-x="1302" d="M315 309l390 389l-390 389l52 50l387 -387l387 387l51 -50l-389 -389l389 -389l-51 -49l-387 387l-387 -387z" />
<glyph unicode="&#xd8;" horiz-adv-x="1425" d="M137 -25l180 213q-43 78 -62 172.5t-19 192.5t17 202.5t54 206t92.5 191.5t132 157.5t175 107.5t219.5 40q117 0 196.5 -42t132.5 -113l131 155h87l-183 -215q39 -76 56.5 -165t17.5 -187t-17.5 -204.5t-52 -209t-90 -193.5t-131.5 -160t-173 -109t-218 -40 q-113 0 -193.5 42t-134.5 114l-131 -156h-86zM315 545q0 -82 12.5 -157t41.5 -136l833 987q-45 66 -114.5 105.5t-172.5 39.5q-160 0 -273.5 -80.5t-186 -204.5t-106.5 -271.5t-34 -282.5zM403 190q45 -66 116 -103.5t173 -37.5q106 0 191.5 38t152 101.5t113.5 148.5 t77.5 178t45 190.5t14.5 187.5q0 78 -12 149.5t-39 133.5z" />
<glyph unicode="&#xd9;" d="M248 367q0 39 4 80.5t12 89.5l158 897h78l-156 -883q-10 -49 -13 -92t-3 -80q0 -104 27.5 -169t71.5 -100.5t96 -49t102 -13.5q72 0 142.5 19.5t132 71.5t108.5 143.5t71 232.5l160 920h76l-160 -924q-25 -143 -72 -244.5t-114.5 -166t-154.5 -94.5t-189 -30 q-80 0 -149.5 22.5t-120 70t-79 122t-28.5 177.5zM672 1888h113l254 -319h-76z" />
<glyph unicode="&#xda;" d="M248 367q0 39 4 80.5t12 89.5l158 897h78l-156 -883q-10 -49 -13 -92t-3 -80q0 -104 27.5 -169t71.5 -100.5t96 -49t102 -13.5q72 0 142.5 19.5t132 71.5t108.5 143.5t71 232.5l160 920h76l-160 -924q-25 -143 -72 -244.5t-114.5 -166t-154.5 -94.5t-189 -30 q-80 0 -149.5 22.5t-120 70t-79 122t-28.5 177.5zM750 1569l364 319h113l-401 -319h-76z" />
<glyph unicode="&#xdb;" d="M248 367q0 39 4 80.5t12 89.5l158 897h78l-156 -883q-10 -49 -13 -92t-3 -80q0 -104 27.5 -169t71.5 -100.5t96 -49t102 -13.5q72 0 142.5 19.5t132 71.5t108.5 143.5t71 232.5l160 920h76l-160 -924q-25 -143 -72 -244.5t-114.5 -166t-154.5 -94.5t-189 -30 q-80 0 -149.5 22.5t-120 70t-79 122t-28.5 177.5zM549 1569l367 319h65l252 -319h-71l-224 245l-309 -245h-80z" />
<glyph unicode="&#xdc;" d="M248 367q0 39 4 80.5t12 89.5l158 897h78l-156 -883q-10 -49 -13 -92t-3 -80q0 -104 27.5 -169t71.5 -100.5t96 -49t102 -13.5q72 0 142.5 19.5t132 71.5t108.5 143.5t71 232.5l160 920h76l-160 -924q-25 -143 -72 -244.5t-114.5 -166t-154.5 -94.5t-189 -30 q-80 0 -149.5 22.5t-120 70t-79 122t-28.5 177.5zM678 1679q2 29 23.5 49.5t49.5 20.5q23 0 36 -16.5t13 -39.5q-2 -29 -23 -48t-50 -19q-23 0 -36 15.5t-13 37.5zM1018 1679q2 29 23.5 49.5t49.5 20.5q23 0 36 -16.5t13 -39.5q-2 -29 -23 -48t-50 -19q-23 0 -36 15.5 t-13 37.5z" />
<glyph unicode="&#xdd;" horiz-adv-x="1187" d="M315 1434h76l277 -789l549 789h83l-604 -867l-100 -567h-74l101 567zM688 1569l364 319h113l-401 -319h-76z" />
<glyph unicode="&#xde;" horiz-adv-x="1185" d="M178 0l250 1434h76l-47 -285h370q109 0 182.5 -31t120 -81t65.5 -113.5t19 -130.5q0 -82 -29.5 -168t-94 -157t-166 -116t-242.5 -45h-375l-53 -307h-76zM319 381h369q119 0 203 39t137 98.5t77.5 133t24.5 141.5q0 53 -16 104t-53 91t-97.5 63.5t-148.5 23.5h-373z" />
<glyph unicode="&#xdf;" horiz-adv-x="1110" d="M84 -397l246 1392q23 127 69.5 215t108 143.5t132.5 80t144 24.5q145 0 227.5 -82t82.5 -217q0 -49 -13.5 -108.5t-48.5 -114.5t-93 -99t-146 -61q68 -12 114.5 -41.5t77.5 -71.5t45 -92.5t14 -103.5q0 -113 -37.5 -204t-102 -154.5t-147.5 -98.5t-173 -35q-47 0 -79 5.5 t-50 13.5l47 63q33 -8 84 -8q68 0 136.5 25.5t121.5 78t87 131t34 183.5q0 53 -16.5 103.5t-53.5 88t-97.5 61t-148.5 23.5h-8l12 68h9q154 0 253 84t99 262q0 106 -58.5 166.5t-171.5 60.5q-135 0 -238.5 -92t-139.5 -297l-238 -1355z" />
<glyph unicode="&#xe0;" horiz-adv-x="1017" d="M158 266q0 88 32.5 159t89 121t131 76.5t156.5 26.5q94 0 163 -29.5t124 -76.5l25 133q8 47 11 75.5t3 55.5q0 59 -15.5 97t-42 60.5t-63.5 31t-78 8.5q-90 0 -177 -34t-152 -71l-15 66q63 35 152.5 70.5t193.5 35.5q55 0 104.5 -12t86.5 -43t58.5 -81t21.5 -126 q0 -18 -2 -43t-11 -74l-120 -692h-74l26 154q-66 -72 -152.5 -125.5t-201.5 -53.5q-125 0 -199.5 75t-74.5 216zM242 266q0 -102 51 -162.5t143 -60.5q61 0 113.5 18.5t98.5 48t84 66.5t71 74l41 227q-53 41 -123 72t-158 31q-63 0 -121.5 -21.5t-102.5 -62.5t-70.5 -99.5 t-26.5 -130.5zM495 1499h113l254 -319h-76z" />
<glyph unicode="&#xe1;" horiz-adv-x="1017" d="M158 266q0 88 32.5 159t89 121t131 76.5t156.5 26.5q94 0 163 -29.5t124 -76.5l25 133q8 47 11 75.5t3 55.5q0 59 -15.5 97t-42 60.5t-63.5 31t-78 8.5q-90 0 -177 -34t-152 -71l-15 66q63 35 152.5 70.5t193.5 35.5q55 0 104.5 -12t86.5 -43t58.5 -81t21.5 -126 q0 -18 -2 -43t-11 -74l-120 -692h-74l26 154q-66 -72 -152.5 -125.5t-201.5 -53.5q-125 0 -199.5 75t-74.5 216zM242 266q0 -102 51 -162.5t143 -60.5q61 0 113.5 18.5t98.5 48t84 66.5t71 74l41 227q-53 41 -123 72t-158 31q-63 0 -121.5 -21.5t-102.5 -62.5t-70.5 -99.5 t-26.5 -130.5zM574 1180l364 319h113l-401 -319h-76z" />
<glyph unicode="&#xe2;" horiz-adv-x="1017" d="M158 266q0 88 32.5 159t89 121t131 76.5t156.5 26.5q94 0 163 -29.5t124 -76.5l25 133q8 47 11 75.5t3 55.5q0 59 -15.5 97t-42 60.5t-63.5 31t-78 8.5q-90 0 -177 -34t-152 -71l-15 66q63 35 152.5 70.5t193.5 35.5q55 0 104.5 -12t86.5 -43t58.5 -81t21.5 -126 q0 -18 -2 -43t-11 -74l-120 -692h-74l26 154q-66 -72 -152.5 -125.5t-201.5 -53.5q-125 0 -199.5 75t-74.5 216zM242 266q0 -102 51 -162.5t143 -60.5q61 0 113.5 18.5t98.5 48t84 66.5t71 74l41 227q-53 41 -123 72t-158 31q-63 0 -121.5 -21.5t-102.5 -62.5t-70.5 -99.5 t-26.5 -130.5zM366 1180l367 319h65l252 -319h-71l-224 245l-309 -245h-80z" />
<glyph unicode="&#xe3;" horiz-adv-x="1017" d="M158 266q0 88 32.5 159t89 121t131 76.5t156.5 26.5q94 0 163 -29.5t124 -76.5l25 133q8 47 11 75.5t3 55.5q0 59 -15.5 97t-42 60.5t-63.5 31t-78 8.5q-90 0 -177 -34t-152 -71l-15 66q63 35 152.5 70.5t193.5 35.5q55 0 104.5 -12t86.5 -43t58.5 -81t21.5 -126 q0 -18 -2 -43t-11 -74l-120 -692h-74l26 154q-66 -72 -152.5 -125.5t-201.5 -53.5q-125 0 -199.5 75t-74.5 216zM242 266q0 -102 51 -162.5t143 -60.5q61 0 113.5 18.5t98.5 48t84 66.5t71 74l41 227q-53 41 -123 72t-158 31q-63 0 -121.5 -21.5t-102.5 -62.5t-70.5 -99.5 t-26.5 -130.5zM383 1241q16 98 68 161.5t138 63.5q53 0 93 -25.5t76 -57t72 -57.5t79 -26q98 0 133 158h57q-16 -98 -68.5 -161.5t-138.5 -63.5q-53 0 -93 25.5t-75.5 57.5t-71.5 57.5t-79 25.5q-98 0 -133 -158h-57z" />
<glyph unicode="&#xe4;" horiz-adv-x="1017" d="M158 266q0 88 32.5 159t89 121t131 76.5t156.5 26.5q94 0 163 -29.5t124 -76.5l25 133q8 47 11 75.5t3 55.5q0 59 -15.5 97t-42 60.5t-63.5 31t-78 8.5q-90 0 -177 -34t-152 -71l-15 66q63 35 152.5 70.5t193.5 35.5q55 0 104.5 -12t86.5 -43t58.5 -81t21.5 -126 q0 -18 -2 -43t-11 -74l-120 -692h-74l26 154q-66 -72 -152.5 -125.5t-201.5 -53.5q-125 0 -199.5 75t-74.5 216zM242 266q0 -102 51 -162.5t143 -60.5q61 0 113.5 18.5t98.5 48t84 66.5t71 74l41 227q-53 41 -123 72t-158 31q-63 0 -121.5 -21.5t-102.5 -62.5t-70.5 -99.5 t-26.5 -130.5zM508 1329q2 29 23.5 49.5t49.5 20.5q23 0 36 -16.5t13 -39.5q-2 -29 -23 -48t-50 -19q-23 0 -36 15.5t-13 37.5zM848 1329q2 29 23.5 49.5t49.5 20.5q23 0 36 -16.5t13 -39.5q-2 -29 -23 -48t-50 -19q-23 0 -36 15.5t-13 37.5z" />
<glyph unicode="&#xe5;" horiz-adv-x="1017" d="M158 266q0 88 32.5 159t89 121t131 76.5t156.5 26.5q94 0 163 -29.5t124 -76.5l25 133q8 47 11 75.5t3 55.5q0 59 -15.5 97t-42 60.5t-63.5 31t-78 8.5q-90 0 -177 -34t-152 -71l-15 66q63 35 152.5 70.5t193.5 35.5q55 0 104.5 -12t86.5 -43t58.5 -81t21.5 -126 q0 -18 -2 -43t-11 -74l-120 -692h-74l26 154q-66 -72 -152.5 -125.5t-201.5 -53.5q-125 0 -199.5 75t-74.5 216zM242 266q0 -102 51 -162.5t143 -60.5q61 0 113.5 18.5t98.5 48t84 66.5t71 74l41 227q-53 41 -123 72t-158 31q-63 0 -121.5 -21.5t-102.5 -62.5t-70.5 -99.5 t-26.5 -130.5zM514 1383q0 55 20.5 102t55.5 81t84 53.5t105 19.5q96 0 154.5 -61.5t58.5 -143.5q0 -55 -20.5 -102.5t-55.5 -81t-84.5 -53t-104.5 -19.5q-45 0 -84 15.5t-67.5 43t-45 65.5t-16.5 81zM584 1383q0 -66 42 -104t101 -38q82 0 138.5 53.5t56.5 139.5 q0 61 -41 101t-102 40q-39 0 -75 -14t-62.5 -39t-42 -60.5t-15.5 -78.5z" />
<glyph unicode="&#xe6;" horiz-adv-x="1691" d="M158 266q0 92 34.5 164t93 121t131 73.5t150.5 24.5q92 0 163 -29.5t124 -76.5l29 157q6 31 8 57.5t2 49.5q0 59 -15.5 97t-43 60.5t-63.5 31t-75 8.5q-92 0 -178 -34t-153 -71l-15 66q66 35 153 70.5t195 35.5q45 0 90.5 -9t82 -35t62 -70t32.5 -113q70 111 170 169 t217 58q66 0 123 -19.5t99 -62.5t66.5 -110.5t24.5 -161.5q0 -80 -25 -193l-4 -22h-706q-6 -55 -6 -111q0 -76 13 -139.5t45 -108.5t83 -69.5t127 -24.5q59 0 122.5 22.5t127.5 69.5l39 -57q-63 -47 -138 -78t-169 -31q-129 0 -208 69t-108 198q-109 -147 -215 -207 t-203 -60q-143 0 -212.5 80t-69.5 211zM242 266q0 -98 49 -160.5t151 -62.5q59 0 115.5 21.5t108 57.5t97.5 84t85 103q-2 18 -3 43t-1 49q0 25 1 44.5t3 29.5q-53 41 -124 73t-161 32q-55 0 -112.5 -19.5t-103.5 -58.5t-75.5 -97.5t-29.5 -138.5zM940 569h633q6 41 10 77 t4 71q0 86 -21.5 141t-55 87t-75.5 45.5t-81 13.5q-92 0 -162 -37t-121 -97.5t-83 -138.5t-48 -162z" />
<glyph unicode="&#xe7;" horiz-adv-x="927" d="M178 387q0 143 35 268t97.5 217.5t149.5 145.5t191 53q63 0 112.5 -19.5t83.5 -50t53.5 -70.5t23.5 -81l-70 -27q-14 84 -67.5 129t-137.5 45q-88 0 -160.5 -47t-124 -130t-79 -193.5t-27.5 -239.5q0 -160 60.5 -249t179.5 -89q86 0 155.5 51.5t110.5 143.5l70 -29 q-47 -102 -123 -164.5t-176 -73.5l-72 -98q92 0 132 -46t40 -101q0 -43 -17.5 -81t-48 -66.5t-74 -46t-94.5 -17.5q-47 0 -80.5 15t-54.5 42l58 37q12 -12 32.5 -23.5t53.5 -11.5q72 0 112.5 42t40.5 102q0 47 -29.5 75.5t-82.5 28.5q-45 0 -80 -16l-17 24l123 139 q-139 8 -219 113t-80 299z" />
<glyph unicode="&#xe8;" horiz-adv-x="1026" d="M178 391q0 156 40 281t108.5 214t162 137t197.5 48q66 0 123 -19.5t99 -62.5t66.5 -110.5t24.5 -161.5q0 -80 -24 -193l-4 -22h-707q-6 -55 -6 -111q0 -76 13.5 -139.5t45 -108.5t83 -69.5t126.5 -24.5q59 0 123 22.5t127 69.5l39 -57q-63 -47 -138 -78t-169 -31 q-162 0 -246 107.5t-84 308.5zM274 569h633q6 41 10.5 77t4.5 71q0 86 -21.5 141t-55.5 87t-76 45.5t-81 13.5q-92 0 -161.5 -37t-121 -97.5t-83 -138.5t-48.5 -162zM487 1499h113l254 -319h-76z" />
<glyph unicode="&#xe9;" horiz-adv-x="1026" d="M178 391q0 156 40 281t108.5 214t162 137t197.5 48q66 0 123 -19.5t99 -62.5t66.5 -110.5t24.5 -161.5q0 -80 -24 -193l-4 -22h-707q-6 -55 -6 -111q0 -76 13.5 -139.5t45 -108.5t83 -69.5t126.5 -24.5q59 0 123 22.5t127 69.5l39 -57q-63 -47 -138 -78t-169 -31 q-162 0 -246 107.5t-84 308.5zM274 569h633q6 41 10.5 77t4.5 71q0 86 -21.5 141t-55.5 87t-76 45.5t-81 13.5q-92 0 -161.5 -37t-121 -97.5t-83 -138.5t-48.5 -162zM553 1180l364 319h113l-401 -319h-76z" />
<glyph unicode="&#xea;" horiz-adv-x="1026" d="M178 391q0 156 40 281t108.5 214t162 137t197.5 48q66 0 123 -19.5t99 -62.5t66.5 -110.5t24.5 -161.5q0 -80 -24 -193l-4 -22h-707q-6 -55 -6 -111q0 -76 13.5 -139.5t45 -108.5t83 -69.5t126.5 -24.5q59 0 123 22.5t127 69.5l39 -57q-63 -47 -138 -78t-169 -31 q-162 0 -246 107.5t-84 308.5zM274 569h633q6 41 10.5 77t4.5 71q0 86 -21.5 141t-55.5 87t-76 45.5t-81 13.5q-92 0 -161.5 -37t-121 -97.5t-83 -138.5t-48.5 -162zM356 1180l367 319h65l252 -319h-71l-224 245l-309 -245h-80z" />
<glyph unicode="&#xeb;" horiz-adv-x="1026" d="M178 391q0 156 40 281t108.5 214t162 137t197.5 48q66 0 123 -19.5t99 -62.5t66.5 -110.5t24.5 -161.5q0 -80 -24 -193l-4 -22h-707q-6 -55 -6 -111q0 -76 13.5 -139.5t45 -108.5t83 -69.5t126.5 -24.5q59 0 123 22.5t127 69.5l39 -57q-63 -47 -138 -78t-169 -31 q-162 0 -246 107.5t-84 308.5zM274 569h633q6 41 10.5 77t4.5 71q0 86 -21.5 141t-55.5 87t-76 45.5t-81 13.5q-92 0 -161.5 -37t-121 -97.5t-83 -138.5t-48.5 -162zM498 1329q2 29 23.5 49.5t49.5 20.5q23 0 36 -16.5t13 -39.5q-2 -29 -23 -48t-50 -19q-23 0 -36 15.5 t-13 37.5zM838 1329q2 29 23.5 49.5t49.5 20.5q23 0 36 -16.5t13 -39.5q-2 -29 -23 -48t-50 -19q-23 0 -36 15.5t-13 37.5z" />
<glyph unicode="&#xec;" horiz-adv-x="466" d="M168 1499h113l254 -319h-76zM176 0l184 1047h72l-182 -1047h-74z" />
<glyph unicode="&#xed;" horiz-adv-x="466" d="M176 0l184 1047h72l-182 -1047h-74zM305 1180l364 319h113l-401 -319h-76z" />
<glyph unicode="&#xee;" horiz-adv-x="466" d="M73 1180l367 319h65l252 -319h-71l-224 245l-309 -245h-80zM176 0l184 1047h72l-182 -1047h-74z" />
<glyph unicode="&#xef;" horiz-adv-x="466" d="M176 0l184 1047h72l-182 -1047h-74zM215 1329q2 29 23.5 49.5t49.5 20.5q23 0 36 -16.5t13 -39.5q-2 -29 -23 -48t-50 -19q-23 0 -36 15.5t-13 37.5zM555 1329q2 29 23.5 49.5t49.5 20.5q23 0 36 -16.5t13 -39.5q-2 -29 -23 -48t-50 -19q-23 0 -36 15.5t-13 37.5z" />
<glyph unicode="&#xf0;" horiz-adv-x="1064" d="M188 383q0 121 38 222.5t103.5 174t152.5 113.5t184 41q68 0 119 -20.5t86.5 -52.5t56 -72.5t30.5 -81.5q0 199 -45 331.5t-143 221.5l-172 -160l-39 45l162 151q-53 35 -119.5 59.5t-140.5 37.5l12 65q92 -16 166 -44t135 -68l152 143l39 -45l-144 -135 q111 -100 157 -251t46 -337q0 -180 -35 -319.5t-99.5 -233.5t-156.5 -143.5t-205 -49.5q-80 0 -143 31t-107.5 86t-67 130t-22.5 161zM268 387q0 -74 18.5 -135.5t53.5 -106.5t85 -70.5t116 -25.5q86 0 155.5 37t118.5 100.5t76 148.5t27 179q0 74 -18.5 137.5t-53.5 109.5 t-85.5 72.5t-113.5 26.5q-78 0 -146.5 -36t-119.5 -99t-82 -150.5t-31 -187.5z" />
<glyph unicode="&#xf1;" horiz-adv-x="1089" d="M172 0l184 1047h72l-33 -189q31 57 71 98t84 67t89 37t84 11q135 0 205.5 -73.5t70.5 -215.5q0 -74 -14 -157l-111 -625h-73l108 625q10 53 12.5 88t2.5 69q0 117 -56.5 168t-154.5 51q-59 0 -116.5 -20t-106 -66.5t-84 -121t-54.5 -185.5l-104 -608h-76zM404 1241 q16 98 68 161.5t138 63.5q53 0 93 -25.5t76 -57t72 -57.5t79 -26q98 0 133 158h57q-16 -98 -68.5 -161.5t-138.5 -63.5q-53 0 -93 25.5t-75.5 57.5t-71.5 57.5t-79 25.5q-98 0 -133 -158h-57z" />
<glyph unicode="&#xf2;" horiz-adv-x="1064" d="M188 395q0 156 36 282t102.5 213t158.5 134t205 47q158 0 246 -107.5t88 -306.5q0 -154 -35 -279.5t-99.5 -214.5t-158.5 -138.5t-213 -49.5q-154 0 -242 104.5t-88 315.5zM268 393q0 -162 65.5 -253t196.5 -91q96 0 173 44t130.5 123t82 188.5t28.5 240.5 q0 168 -67.5 260t-192.5 92q-100 0 -178 -45t-130 -126t-80 -191.5t-28 -241.5zM469 1499h113l254 -319h-76z" />
<glyph unicode="&#xf3;" horiz-adv-x="1064" d="M188 395q0 156 36 282t102.5 213t158.5 134t205 47q158 0 246 -107.5t88 -306.5q0 -154 -35 -279.5t-99.5 -214.5t-158.5 -138.5t-213 -49.5q-154 0 -242 104.5t-88 315.5zM268 393q0 -162 65.5 -253t196.5 -91q96 0 173 44t130.5 123t82 188.5t28.5 240.5 q0 168 -67.5 260t-192.5 92q-100 0 -178 -45t-130 -126t-80 -191.5t-28 -241.5zM588 1180l364 319h113l-401 -319h-76z" />
<glyph unicode="&#xf4;" horiz-adv-x="1064" d="M188 395q0 156 36 282t102.5 213t158.5 134t205 47q158 0 246 -107.5t88 -306.5q0 -154 -35 -279.5t-99.5 -214.5t-158.5 -138.5t-213 -49.5q-154 0 -242 104.5t-88 315.5zM268 393q0 -162 65.5 -253t196.5 -91q96 0 173 44t130.5 123t82 188.5t28.5 240.5 q0 168 -67.5 260t-192.5 92q-100 0 -178 -45t-130 -126t-80 -191.5t-28 -241.5zM372 1180l367 319h65l252 -319h-71l-224 245l-309 -245h-80z" />
<glyph unicode="&#xf5;" horiz-adv-x="1064" d="M188 395q0 156 36 282t102.5 213t158.5 134t205 47q158 0 246 -107.5t88 -306.5q0 -154 -35 -279.5t-99.5 -214.5t-158.5 -138.5t-213 -49.5q-154 0 -242 104.5t-88 315.5zM268 393q0 -162 65.5 -253t196.5 -91q96 0 173 44t130.5 123t82 188.5t28.5 240.5 q0 168 -67.5 260t-192.5 92q-100 0 -178 -45t-130 -126t-80 -191.5t-28 -241.5zM390 1241q16 98 68 161.5t138 63.5q53 0 93 -25.5t76 -57t72 -57.5t79 -26q98 0 133 158h57q-16 -98 -68.5 -161.5t-138.5 -63.5q-53 0 -93 25.5t-75.5 57.5t-71.5 57.5t-79 25.5 q-98 0 -133 -158h-57z" />
<glyph unicode="&#xf6;" horiz-adv-x="1064" d="M188 395q0 156 36 282t102.5 213t158.5 134t205 47q158 0 246 -107.5t88 -306.5q0 -154 -35 -279.5t-99.5 -214.5t-158.5 -138.5t-213 -49.5q-154 0 -242 104.5t-88 315.5zM268 393q0 -162 65.5 -253t196.5 -91q96 0 173 44t130.5 123t82 188.5t28.5 240.5 q0 168 -67.5 260t-192.5 92q-100 0 -178 -45t-130 -126t-80 -191.5t-28 -241.5zM514 1329q2 29 23.5 49.5t49.5 20.5q23 0 36 -16.5t13 -39.5q-2 -29 -23 -48t-50 -19q-23 0 -36 15.5t-13 37.5zM854 1329q2 29 23.5 49.5t49.5 20.5q23 0 36 -16.5t13 -39.5q-2 -29 -23 -48 t-50 -19q-23 0 -36 15.5t-13 37.5z" />
<glyph unicode="&#xf7;" horiz-adv-x="1302" d="M272 666v69h963v-69h-963zM688 274q0 27 17.5 45.5t42.5 18.5q27 0 43 -18.5t16 -45.5q0 -25 -16 -42t-43 -17q-25 0 -42.5 17.5t-17.5 41.5zM688 1124q0 27 17.5 45.5t42.5 18.5q27 0 43 -18.5t16 -45.5q0 -25 -16 -42t-43 -17q-25 0 -42.5 17.5t-17.5 41.5z" />
<glyph unicode="&#xf8;" horiz-adv-x="1064" d="M84 -25l149 172q-45 102 -45 248q0 156 36 282t102.5 213t159 134t204.5 47q80 0 142.5 -29.5t105.5 -85.5l100 115h88l-151 -174q49 -96 49 -240q0 -154 -35 -279.5t-99.5 -214.5t-158.5 -138.5t-213 -49.5q-162 0 -248 113l-98 -113h-88zM268 393q0 -102 25 -176 l590 676q-66 104 -199 104q-100 0 -178 -45t-130 -126t-80 -191.5t-28 -241.5zM326 152q65 -103 204 -103q96 0 173 44t130.5 123t82 188.5t28.5 240.5q0 104 -29 184z" />
<glyph unicode="&#xf9;" horiz-adv-x="1089" d="M219 264q0 31 4 68t10 76l113 639h74l-113 -656q-6 -35 -9 -67.5t-3 -59.5q0 -119 56.5 -170t160.5 -51q57 0 112.5 20.5t103.5 67.5t85 122t55 185l105 609h76l-185 -1047h-71l30 180q-35 -59 -74.5 -98t-82.5 -62.5t-85 -34t-81 -10.5q-137 0 -209 74t-72 215z M485 1499h113l254 -319h-76z" />
<glyph unicode="&#xfa;" horiz-adv-x="1089" d="M219 264q0 31 4 68t10 76l113 639h74l-113 -656q-6 -35 -9 -67.5t-3 -59.5q0 -119 56.5 -170t160.5 -51q57 0 112.5 20.5t103.5 67.5t85 122t55 185l105 609h76l-185 -1047h-71l30 180q-35 -59 -74.5 -98t-82.5 -62.5t-85 -34t-81 -10.5q-137 0 -209 74t-72 215z M568 1180l364 319h113l-401 -319h-76z" />
<glyph unicode="&#xfb;" horiz-adv-x="1089" d="M219 264q0 31 4 68t10 76l113 639h74l-113 -656q-6 -35 -9 -67.5t-3 -59.5q0 -119 56.5 -170t160.5 -51q57 0 112.5 20.5t103.5 67.5t85 122t55 185l105 609h76l-185 -1047h-71l30 180q-35 -59 -74.5 -98t-82.5 -62.5t-85 -34t-81 -10.5q-137 0 -209 74t-72 215z M368 1180l367 319h65l252 -319h-71l-224 245l-309 -245h-80z" />
<glyph unicode="&#xfc;" horiz-adv-x="1089" d="M219 264q0 31 4 68t10 76l113 639h74l-113 -656q-6 -35 -9 -67.5t-3 -59.5q0 -119 56.5 -170t160.5 -51q57 0 112.5 20.5t103.5 67.5t85 122t55 185l105 609h76l-185 -1047h-71l30 180q-35 -59 -74.5 -98t-82.5 -62.5t-85 -34t-81 -10.5q-137 0 -209 74t-72 215z M508 1329q2 29 23.5 49.5t49.5 20.5q23 0 36 -16.5t13 -39.5q-2 -29 -23 -48t-50 -19q-23 0 -36 15.5t-13 37.5zM848 1329q2 29 23.5 49.5t49.5 20.5q23 0 36 -16.5t13 -39.5q-2 -29 -23 -48t-50 -19q-23 0 -36 15.5t-13 37.5z" />
<glyph unicode="&#xfd;" horiz-adv-x="993" d="M201 -397l227 426l-184 1018h71l164 -926l494 926h80l-774 -1444h-78zM494 1180l364 319h113l-401 -319h-76z" />
<glyph unicode="&#xfe;" horiz-adv-x="1101" d="M98 -416l326 1858l82 37l-103 -586q68 88 148 133t182 45q74 0 133.5 -29.5t101.5 -85t63.5 -132t21.5 -171.5q0 -158 -37 -283.5t-103.5 -213.5t-157.5 -134.5t-202 -46.5q-94 0 -169 53.5t-105 145.5l-97 -553zM295 270q31 -104 97.5 -162.5t160.5 -58.5q98 0 176 44 t132 122t83 187.5t29 242.5q0 160 -64.5 256t-191.5 96q-92 0 -180 -54t-150 -146z" />
<glyph unicode="&#xff;" horiz-adv-x="993" d="M201 -397l227 426l-184 1018h71l164 -926l494 926h80l-774 -1444h-78zM463 1329q2 29 23.5 49.5t49.5 20.5q23 0 36 -16.5t13 -39.5q-2 -29 -23 -48t-50 -19q-23 0 -36 15.5t-13 37.5zM803 1329q2 29 23.5 49.5t49.5 20.5q23 0 36 -16.5t13 -39.5q-2 -29 -23 -48t-50 -19 q-23 0 -36 15.5t-13 37.5z" />
<glyph unicode="&#x152;" horiz-adv-x="1847" d="M236 547q0 100 17 206.5t54 208t93.5 191.5t133 157.5t175 107.5t219.5 40q100 0 164.5 -28.5t103.5 -63.5l10 68h652l-13 -68h-573l-105 -590h355l-13 -67h-354l-113 -641h619l-10 -68h-695l9 47q-41 -25 -113 -48.5t-170 -23.5q-121 0 -205 49.5t-138 130.5t-78.5 183 t-24.5 209zM315 545q0 -98 19.5 -188.5t64.5 -158t117 -108.5t176 -41q98 0 170 28.5t117 63.5l201 1129q-16 18 -40 38.5t-55.5 38t-73.5 27.5t-96 10q-106 0 -192 -36.5t-152.5 -100t-114.5 -147.5t-79 -177.5t-46.5 -190.5t-15.5 -187z" />
<glyph unicode="&#x153;" horiz-adv-x="1773" d="M188 395q0 137 32 260t94.5 215.5t156.5 146.5t219 54q129 0 214 -76.5t108 -228.5q33 76 80 133t103 96t117.5 57.5t125.5 18.5q137 0 225 -84t88 -262q0 -45 -5 -95t-20 -104l-6 -24h-704q-6 -61 -6 -115q0 -174 66.5 -256t203.5 -82q119 0 248 92l39 -57 q-66 -47 -138.5 -78t-166.5 -31q-141 0 -218 78t-100 213q-72 -158 -183.5 -224.5t-242.5 -66.5q-152 0 -241 102.5t-89 317.5zM268 393q0 -164 66.5 -254t195.5 -90q92 0 169 42t131.5 120t84 187.5t29.5 246.5q0 156 -63.5 254t-196.5 98q-98 0 -176 -45t-131 -124.5 t-81 -191.5t-28 -243zM1026 569h633q8 43 11 80t3 70q0 84 -21.5 139t-55 87t-75.5 45.5t-81 13.5q-145 0 -256 -104.5t-158 -330.5z" />
<glyph unicode="&#x178;" horiz-adv-x="1187" d="M315 1434h76l277 -789l549 789h83l-604 -867l-100 -567h-74l101 567zM619 1679q2 29 23.5 49.5t49.5 20.5q23 0 36 -16.5t13 -39.5q-2 -29 -23 -48t-50 -19q-23 0 -36 15.5t-13 37.5zM959 1679q2 29 23.5 49.5t49.5 20.5q23 0 36 -16.5t13 -39.5q-2 -29 -23 -48t-50 -19 q-23 0 -36 15.5t-13 37.5z" />
<glyph unicode="&#x2c6;" horiz-adv-x="636" d="M139 1180l367 319h65l252 -319h-71l-224 245l-309 -245h-80z" />
<glyph unicode="&#x2dc;" horiz-adv-x="636" d="M150 1241q16 98 68 161.5t138 63.5q53 0 93 -25.5t76 -57t72 -57.5t79 -26q98 0 133 158h57q-16 -98 -68.5 -161.5t-138.5 -63.5q-53 0 -93 25.5t-75.5 57.5t-71.5 57.5t-79 25.5q-98 0 -133 -158h-57z" />
<glyph unicode="&#x2000;" horiz-adv-x="944" />
<glyph unicode="&#x2001;" horiz-adv-x="1888" />
<glyph unicode="&#x2002;" horiz-adv-x="944" />
<glyph unicode="&#x2003;" horiz-adv-x="1888" />
<glyph unicode="&#x2004;" horiz-adv-x="629" />
<glyph unicode="&#x2005;" horiz-adv-x="472" />
<glyph unicode="&#x2006;" horiz-adv-x="314" />
<glyph unicode="&#x2007;" horiz-adv-x="314" />
<glyph unicode="&#x2008;" horiz-adv-x="236" />
<glyph unicode="&#x2009;" horiz-adv-x="377" />
<glyph unicode="&#x200a;" horiz-adv-x="104" />
<glyph unicode="&#x2010;" horiz-adv-x="776" d="M238 573l12 74h457l-13 -74h-456z" />
<glyph unicode="&#x2011;" horiz-adv-x="776" d="M238 573l12 74h457l-13 -74h-456z" />
<glyph unicode="&#x2012;" horiz-adv-x="776" d="M238 573l12 74h457l-13 -74h-456z" />
<glyph unicode="&#x2013;" horiz-adv-x="1026" d="M199 551l12 74h780l-12 -74h-780z" />
<glyph unicode="&#x2014;" horiz-adv-x="1189" d="M72 551l12 74h1198l-12 -74h-1198z" />
<glyph unicode="&#x2018;" horiz-adv-x="372" d="M274 1147q0 43 15.5 89t40 88t53.5 77t53 57l19 -6q-39 -43 -70 -108.5t-39 -118.5q-2 -10 -2 -16.5v-10.5q23 0 39 -14.5t16 -38.5q0 -31 -19.5 -50.5t-47.5 -19.5q-25 0 -41.5 17.5t-16.5 54.5z" />
<glyph unicode="&#x2019;" horiz-adv-x="372" d="M270 1081q39 43 70 108.5t39 119.5q2 10 2 16v10q-23 0 -39 14.5t-16 39.5q0 31 19.5 50t47.5 19q25 0 41.5 -17.5t16.5 -54.5q0 -43 -15.5 -89t-40 -88t-53.5 -77.5t-53 -56.5z" />
<glyph unicode="&#x201a;" horiz-adv-x="372" d="M80 -283q37 41 67.5 105.5t40.5 122.5q2 10 2 26q-23 0 -39 14.5t-16 39.5q0 29 18.5 49t49.5 20q23 0 40 -16.5t17 -54.5q0 -43 -15.5 -89.5t-40 -88.5t-53 -77.5t-53.5 -56.5z" />
<glyph unicode="&#x201c;" horiz-adv-x="733" d="M274 1147q0 43 15.5 89t40 88t53.5 77t53 57l19 -6q-39 -43 -70 -108.5t-39 -118.5q-2 -10 -2 -16.5v-10.5q23 0 39 -14.5t16 -38.5q0 -31 -19 -50.5t-48 -19.5q-25 0 -41.5 17.5t-16.5 54.5zM635 1147q0 43 15.5 89t40 88t53 77t53.5 57l18 -6q-39 -43 -69.5 -108.5 t-38.5 -118.5q-2 -10 -2 -16.5v-10.5q23 0 39 -14.5t16 -38.5q0 -31 -19.5 -50.5t-48.5 -19.5q-25 0 -41 17.5t-16 54.5z" />
<glyph unicode="&#x201d;" horiz-adv-x="733" d="M270 1081q39 43 70 108.5t39 119.5q2 10 2 16v10q-23 0 -39 14.5t-16 39.5q0 31 19.5 50t47.5 19q25 0 41.5 -17.5t16.5 -54.5q0 -43 -15.5 -89t-40 -88t-53.5 -77.5t-53 -56.5zM631 1081q39 43 69.5 108.5t38.5 119.5q2 10 2 16v10q-23 0 -39 14.5t-16 39.5 q0 31 19.5 50t48.5 19q25 0 41 -17.5t16 -54.5q0 -43 -15.5 -89t-40 -88t-53 -77.5t-53.5 -56.5z" />
<glyph unicode="&#x201e;" horiz-adv-x="733" d="M76 -283q39 43 69.5 108.5t38.5 119.5q2 10 2 16v10q-23 0 -39 14.5t-16 39.5q0 31 19.5 50t48.5 19q25 0 41 -17.5t16 -53.5q0 -43 -15.5 -89.5t-40 -88.5t-53 -77.5t-53.5 -56.5zM436 -283q39 43 70 108.5t39 119.5q2 10 2 16v10q-23 0 -39 14.5t-16 39.5q0 31 19 50 t48 19q25 0 41 -17.5t16 -53.5q0 -43 -15 -89.5t-39.5 -88.5t-53.5 -77.5t-53 -56.5z" />
<glyph unicode="&#x2022;" horiz-adv-x="802" d="M311 692q0 43 17.5 80t47.5 64.5t68.5 44t79.5 16.5q68 0 111 -44t43 -108q0 -43 -18.5 -79.5t-48 -64.5t-68.5 -44t-80 -16q-68 0 -110 44t-42 107z" />
<glyph unicode="&#x2026;" horiz-adv-x="1630" d="M209 25q2 29 23.5 49t50.5 20q23 0 36 -16.5t13 -38.5q-2 -29 -23.5 -48.5t-50.5 -19.5q-23 0 -36 15.5t-13 38.5zM750 25q2 29 23.5 49t49.5 20q23 0 36 -16.5t13 -38.5q-2 -29 -23 -48.5t-50 -19.5q-23 0 -36 15.5t-13 38.5zM1288 25q2 29 23.5 49t50.5 20 q23 0 36 -16.5t13 -38.5q-2 -29 -23.5 -48.5t-50.5 -19.5q-23 0 -36 15.5t-13 38.5z" />
<glyph unicode="&#x202f;" horiz-adv-x="377" />
<glyph unicode="&#x2039;" horiz-adv-x="534" d="M150 524l401 523h86l-401 -523l219 -524h-86z" />
<glyph unicode="&#x203a;" horiz-adv-x="534" d="M43 0l403 524l-221 523h86l221 -523l-403 -524h-86z" />
<glyph unicode="&#x205f;" horiz-adv-x="472" />
<glyph unicode="&#x20ac;" horiz-adv-x="1159" d="M160 500l41 67h90q6 63 16 128t33 143h-121l41 67h100q35 104 86.5 203.5t123 177.5t166.5 125t216 47q84 0 162 -20.5t131 -61.5l-37 -65q-49 35 -116.5 54t-145.5 19q-100 0 -180 -40.5t-141.5 -108.5t-106.5 -154t-76 -176h525l-41 -67h-506q-18 -66 -29.5 -132.5 t-19.5 -138.5h395l-39 -67h-358v-21q0 -84 15 -160.5t53 -137t100.5 -96.5t154.5 -36q98 0 178 41t146 100l55 -45q-63 -66 -158.5 -118t-222.5 -52q-113 0 -189.5 41t-123.5 111t-67.5 159t-20.5 185v29h-129z" />
<glyph unicode="&#x2122;" horiz-adv-x="1560" d="M221 1364v70h563v-70h-243v-795h-74v795h-246zM889 569v865h45l293 -701l293 701h45v-865h-74v609l-264 -629l-264 629v-609h-74z" />
<glyph unicode="&#x25fc;" horiz-adv-x="1044" d="M0 0v1044h1044v-1044h-1044z" />
</font>
</defs>
</svg>
